<?xml version="1.0" encoding="UTF-8" standalone="no"?>
<!DOCTYPE svg PUBLIC "-//W3C//DTD SVG 1.1//EN"
 "http://www.w3.org/Graphics/SVG/1.1/DTD/svg11.dtd">
<!-- Generated by graphviz version 2.44.0 (0)
 -->
<!-- Title: sci/FrsSciTcal2SingleTcal.h Pages: 1 -->
<svg width="756pt" height="140pt"
 viewBox="0.00 0.00 755.50 140.00" xmlns="http://www.w3.org/2000/svg" xmlns:xlink="http://www.w3.org/1999/xlink">
<g id="graph0" class="graph" transform="scale(1 1) rotate(0) translate(4 136)">
<title>sci/FrsSciTcal2SingleTcal.h</title>
<polygon fill="white" stroke="transparent" points="-4,4 -4,-136 751.5,-136 751.5,4 -4,4"/>
<!-- Node1 -->
<g id="node1" class="node">
<title>Node1</title>
<g id="a_node1"><a xlink:title=" ">
<polygon fill="#bfbfbf" stroke="black" points="360,-112.5 360,-131.5 498,-131.5 498,-112.5 360,-112.5"/>
<text text-anchor="middle" x="429" y="-119.5" font-family="Helvetica" font-size="10.00">sci/FrsSciTcal2SingleTcal.h</text>
</a>
</g>
</g>
<!-- Node2 -->
<g id="node2" class="node">
<title>Node2</title>
<g id="a_node2"><a xlink:title=" ">
<polygon fill="white" stroke="#bfbfbf" points="45,-56.5 45,-75.5 107,-75.5 107,-56.5 45,-56.5"/>
<text text-anchor="middle" x="76" y="-63.5" font-family="Helvetica" font-size="10.00">FairTask.h</text>
</a>
</g>
</g>
<!-- Node1&#45;&gt;Node2 -->
<g id="edge1" class="edge">
<title>Node1&#45;&gt;Node2</title>
<path fill="none" stroke="midnightblue" d="M359.75,-112.63C298.45,-104.86 206.36,-92.3 117.39,-76.14"/>
<polygon fill="midnightblue" stroke="midnightblue" points="117.86,-72.67 107.4,-74.31 116.6,-79.56 117.86,-72.67"/>
</g>
<!-- Node3 -->
<g id="node3" class="node">
<title>Node3</title>
<g id="a_node3"><a xlink:href="../../d3/dc4/FrsSciRawPosPar_8h.html" target="_top" xlink:title=" ">
<polygon fill="white" stroke="black" points="245,-56.5 245,-75.5 351,-75.5 351,-56.5 245,-56.5"/>
<text text-anchor="middle" x="298" y="-63.5" font-family="Helvetica" font-size="10.00">FrsSciRawPosPar.h</text>
</a>
</g>
</g>
<!-- Node1&#45;&gt;Node3 -->
<g id="edge2" class="edge">
<title>Node1&#45;&gt;Node3</title>
<path fill="none" stroke="midnightblue" d="M408.24,-112.44C386.68,-103.56 352.74,-89.56 328.21,-79.45"/>
<polygon fill="midnightblue" stroke="midnightblue" points="329.24,-76.09 318.66,-75.52 326.57,-82.56 329.24,-76.09"/>
</g>
<!-- Node9 -->
<g id="node9" class="node">
<title>Node9</title>
<g id="a_node9"><a xlink:href="../../d5/d83/FrsSciRawTofPar_8h.html" target="_top" xlink:title=" ">
<polygon fill="white" stroke="black" points="125,-56.5 125,-75.5 227,-75.5 227,-56.5 125,-56.5"/>
<text text-anchor="middle" x="176" y="-63.5" font-family="Helvetica" font-size="10.00">FrsSciRawTofPar.h</text>
</a>
</g>
</g>
<!-- Node1&#45;&gt;Node9 -->
<g id="edge8" class="edge">
<title>Node1&#45;&gt;Node9</title>
<path fill="none" stroke="midnightblue" d="M388.91,-112.44C344.68,-103 273.46,-87.8 225.72,-77.61"/>
<polygon fill="midnightblue" stroke="midnightblue" points="226.41,-74.18 215.9,-75.52 224.95,-81.03 226.41,-74.18"/>
</g>
<!-- Node10 -->
<g id="node10" class="node">
<title>Node10</title>
<g id="a_node10"><a xlink:href="../../d3/d1d/FrsSciSingleTcalData_8h.html" target="_top" xlink:title=" ">
<polygon fill="white" stroke="black" points="369.5,-56.5 369.5,-75.5 488.5,-75.5 488.5,-56.5 369.5,-56.5"/>
<text text-anchor="middle" x="429" y="-63.5" font-family="Helvetica" font-size="10.00">FrsSciSingleTcalData.h</text>
</a>
</g>
</g>
<!-- Node1&#45;&gt;Node10 -->
<g id="edge14" class="edge">
<title>Node1&#45;&gt;Node10</title>
<path fill="none" stroke="midnightblue" d="M429,-112.08C429,-105.01 429,-94.86 429,-85.99"/>
<polygon fill="midnightblue" stroke="midnightblue" points="432.5,-85.75 429,-75.75 425.5,-85.75 432.5,-85.75"/>
</g>
<!-- Node12 -->
<g id="node12" class="node">
<title>Node12</title>
<g id="a_node12"><a xlink:title=" ">
<polygon fill="white" stroke="#bfbfbf" points="507,-56.5 507,-75.5 591,-75.5 591,-56.5 507,-56.5"/>
<text text-anchor="middle" x="549" y="-63.5" font-family="Helvetica" font-size="10.00">TClonesArray.h</text>
</a>
</g>
</g>
<!-- Node1&#45;&gt;Node12 -->
<g id="edge17" class="edge">
<title>Node1&#45;&gt;Node12</title>
<path fill="none" stroke="midnightblue" d="M448.01,-112.44C467.59,-103.64 498.31,-89.81 520.73,-79.72"/>
<polygon fill="midnightblue" stroke="midnightblue" points="522.39,-82.81 530.07,-75.52 519.52,-76.43 522.39,-82.81"/>
</g>
<!-- Node13 -->
<g id="node13" class="node">
<title>Node13</title>
<g id="a_node13"><a xlink:title=" ">
<polygon fill="white" stroke="#bfbfbf" points="609.5,-56.5 609.5,-75.5 662.5,-75.5 662.5,-56.5 609.5,-56.5"/>
<text text-anchor="middle" x="636" y="-63.5" font-family="Helvetica" font-size="10.00">TMath.h</text>
</a>
</g>
</g>
<!-- Node1&#45;&gt;Node13 -->
<g id="edge18" class="edge">
<title>Node1&#45;&gt;Node13</title>
<path fill="none" stroke="midnightblue" d="M461.8,-112.44C499.26,-102.67 560.4,-86.72 599.39,-76.55"/>
<polygon fill="midnightblue" stroke="midnightblue" points="600.49,-79.88 609.28,-73.97 598.72,-73.11 600.49,-79.88"/>
</g>
<!-- Node14 -->
<g id="node14" class="node">
<title>Node14</title>
<g id="a_node14"><a xlink:title=" ">
<polygon fill="white" stroke="#bfbfbf" points="680.5,-56.5 680.5,-75.5 747.5,-75.5 747.5,-56.5 680.5,-56.5"/>
<text text-anchor="middle" x="714" y="-63.5" font-family="Helvetica" font-size="10.00">TRandom.h</text>
</a>
</g>
</g>
<!-- Node1&#45;&gt;Node14 -->
<g id="edge19" class="edge">
<title>Node1&#45;&gt;Node14</title>
<path fill="none" stroke="midnightblue" d="M477.49,-112.43C524.38,-104.05 597.72,-90.71 669.91,-76.38"/>
<polygon fill="midnightblue" stroke="midnightblue" points="670.97,-79.74 680.09,-74.35 669.6,-72.87 670.97,-79.74"/>
</g>
<!-- Node4 -->
<g id="node4" class="node">
<title>Node4</title>
<g id="a_node4"><a xlink:title=" ">
<polygon fill="white" stroke="#bfbfbf" points="0,-0.5 0,-19.5 104,-19.5 104,-0.5 0,-0.5"/>
<text text-anchor="middle" x="52" y="-7.5" font-family="Helvetica" font-size="10.00">FairParGenericSet.h</text>
</a>
</g>
</g>
<!-- Node3&#45;&gt;Node4 -->
<g id="edge3" class="edge">
<title>Node3&#45;&gt;Node4</title>
<path fill="none" stroke="midnightblue" d="M259.02,-56.44C216.11,-47.02 147.05,-31.87 100.63,-21.68"/>
<polygon fill="midnightblue" stroke="midnightblue" points="101.31,-18.24 90.8,-19.52 99.81,-25.08 101.31,-18.24"/>
</g>
<!-- Node5 -->
<g id="node5" class="node">
<title>Node5</title>
<g id="a_node5"><a xlink:title=" ">
<polygon fill="white" stroke="#bfbfbf" points="122.5,-0.5 122.5,-19.5 181.5,-19.5 181.5,-0.5 122.5,-0.5"/>
<text text-anchor="middle" x="152" y="-7.5" font-family="Helvetica" font-size="10.00">TArrayF.h</text>
</a>
</g>
</g>
<!-- Node3&#45;&gt;Node5 -->
<g id="edge4" class="edge">
<title>Node3&#45;&gt;Node5</title>
<path fill="none" stroke="midnightblue" d="M274.87,-56.44C250.52,-47.44 211.99,-33.19 184.58,-23.05"/>
<polygon fill="midnightblue" stroke="midnightblue" points="185.62,-19.7 175.03,-19.52 183.19,-26.27 185.62,-19.7"/>
</g>
<!-- Node6 -->
<g id="node6" class="node">
<title>Node6</title>
<g id="a_node6"><a xlink:title=" ">
<polygon fill="white" stroke="#bfbfbf" points="200,-0.5 200,-19.5 268,-19.5 268,-0.5 200,-0.5"/>
<text text-anchor="middle" x="234" y="-7.5" font-family="Helvetica" font-size="10.00">TObjArray.h</text>
</a>
</g>
</g>
<!-- Node3&#45;&gt;Node6 -->
<g id="edge5" class="edge">
<title>Node3&#45;&gt;Node6</title>
<path fill="none" stroke="midnightblue" d="M287.72,-56.32C278.16,-48.26 263.72,-36.08 252.22,-26.37"/>
<polygon fill="midnightblue" stroke="midnightblue" points="254.37,-23.61 244.47,-19.83 249.86,-28.96 254.37,-23.61"/>
</g>
<!-- Node7 -->
<g id="node7" class="node">
<title>Node7</title>
<g id="a_node7"><a xlink:title=" ">
<polygon fill="white" stroke="#bfbfbf" points="375.5,-0.5 375.5,-19.5 434.5,-19.5 434.5,-0.5 375.5,-0.5"/>
<text text-anchor="middle" x="405" y="-7.5" font-family="Helvetica" font-size="10.00">TObject.h</text>
</a>
</g>
</g>
<!-- Node3&#45;&gt;Node7 -->
<g id="edge6" class="edge">
<title>Node3&#45;&gt;Node7</title>
<path fill="none" stroke="midnightblue" d="M315.19,-56.32C332.35,-47.66 358.95,-34.24 378.75,-24.25"/>
<polygon fill="midnightblue" stroke="midnightblue" points="380.5,-27.28 387.85,-19.65 377.35,-21.04 380.5,-27.28"/>
</g>
<!-- Node8 -->
<g id="node8" class="node">
<title>Node8</title>
<g id="a_node8"><a xlink:title=" ">
<polygon fill="white" stroke="#bfbfbf" points="286.5,-0.5 286.5,-19.5 357.5,-19.5 357.5,-0.5 286.5,-0.5"/>
<text text-anchor="middle" x="322" y="-7.5" font-family="Helvetica" font-size="10.00">TObjString.h</text>
</a>
</g>
</g>
<!-- Node3&#45;&gt;Node8 -->
<g id="edge7" class="edge">
<title>Node3&#45;&gt;Node8</title>
<path fill="none" stroke="midnightblue" d="M301.96,-56.08C305.21,-48.77 309.92,-38.18 313.95,-29.1"/>
<polygon fill="midnightblue" stroke="midnightblue" points="317.25,-30.31 318.11,-19.75 310.85,-27.47 317.25,-30.31"/>
</g>
<!-- Node9&#45;&gt;Node4 -->
<g id="edge9" class="edge">
<title>Node9&#45;&gt;Node4</title>
<path fill="none" stroke="midnightblue" d="M156.35,-56.44C136.04,-47.6 104.1,-33.69 80.9,-23.59"/>
<polygon fill="midnightblue" stroke="midnightblue" points="82.12,-20.3 71.56,-19.52 79.33,-26.72 82.12,-20.3"/>
</g>
<!-- Node9&#45;&gt;Node5 -->
<g id="edge10" class="edge">
<title>Node9&#45;&gt;Node5</title>
<path fill="none" stroke="midnightblue" d="M172.04,-56.08C168.79,-48.77 164.08,-38.18 160.05,-29.1"/>
<polygon fill="midnightblue" stroke="midnightblue" points="163.15,-27.47 155.89,-19.75 156.75,-30.31 163.15,-27.47"/>
</g>
<!-- Node9&#45;&gt;Node6 -->
<g id="edge11" class="edge">
<title>Node9&#45;&gt;Node6</title>
<path fill="none" stroke="midnightblue" d="M185.32,-56.32C193.89,-48.34 206.81,-36.31 217.19,-26.65"/>
<polygon fill="midnightblue" stroke="midnightblue" points="219.58,-29.21 224.51,-19.83 214.81,-24.09 219.58,-29.21"/>
</g>
<!-- Node9&#45;&gt;Node7 -->
<g id="edge12" class="edge">
<title>Node9&#45;&gt;Node7</title>
<path fill="none" stroke="midnightblue" d="M212.26,-56.47C248.66,-47.91 306.6,-34.26 365.32,-20.4"/>
<polygon fill="midnightblue" stroke="midnightblue" points="366.2,-23.78 375.13,-18.08 364.59,-16.97 366.2,-23.78"/>
</g>
<!-- Node9&#45;&gt;Node8 -->
<g id="edge13" class="edge">
<title>Node9&#45;&gt;Node8</title>
<path fill="none" stroke="midnightblue" d="M199.13,-56.44C223.48,-47.44 262.01,-33.19 289.42,-23.05"/>
<polygon fill="midnightblue" stroke="midnightblue" points="290.81,-26.27 298.97,-19.52 288.38,-19.7 290.81,-26.27"/>
</g>
<!-- Node10&#45;&gt;Node7 -->
<g id="edge16" class="edge">
<title>Node10&#45;&gt;Node7</title>
<path fill="none" stroke="midnightblue" d="M425.04,-56.08C421.79,-48.77 417.08,-38.18 413.05,-29.1"/>
<polygon fill="midnightblue" stroke="midnightblue" points="416.15,-27.47 408.89,-19.75 409.75,-30.31 416.15,-27.47"/>
</g>
<!-- Node11 -->
<g id="node11" class="node">
<title>Node11</title>
<g id="a_node11"><a xlink:title=" ">
<polygon fill="white" stroke="#bfbfbf" points="452.5,-0.5 452.5,-19.5 523.5,-19.5 523.5,-0.5 452.5,-0.5"/>
<text text-anchor="middle" x="488" y="-7.5" font-family="Helvetica" font-size="10.00">FairLogger.h</text>
</a>
</g>
</g>
<!-- Node10&#45;&gt;Node11 -->
<g id="edge15" class="edge">
<title>Node10&#45;&gt;Node11</title>
<path fill="none" stroke="midnightblue" d="M438.48,-56.32C447.2,-48.34 460.34,-36.31 470.9,-26.65"/>
<polygon fill="midnightblue" stroke="midnightblue" points="473.33,-29.17 478.35,-19.83 468.61,-24 473.33,-29.17"/>
</g>
</g>
</svg>
