<?xml version="1.0" encoding="UTF-8" standalone="no"?>
<!DOCTYPE svg PUBLIC "-//W3C//DTD SVG 1.1//EN"
 "http://www.w3.org/Graphics/SVG/1.1/DTD/svg11.dtd">
<!-- Generated by graphviz version 2.44.0 (0)
 -->
<!-- Title: sci/FrsSciTcalPar.cxx Pages: 1 -->
<svg width="643pt" height="140pt"
 viewBox="0.00 0.00 642.50 140.00" xmlns="http://www.w3.org/2000/svg" xmlns:xlink="http://www.w3.org/1999/xlink">
<g id="graph0" class="graph" transform="scale(1 1) rotate(0) translate(4 136)">
<title>sci/FrsSciTcalPar.cxx</title>
<polygon fill="white" stroke="transparent" points="-4,4 -4,-136 638.5,-136 638.5,4 -4,4"/>
<!-- Node1 -->
<g id="node1" class="node">
<title>Node1</title>
<g id="a_node1"><a xlink:title=" ">
<polygon fill="#bfbfbf" stroke="black" points="318,-112.5 318,-131.5 431,-131.5 431,-112.5 318,-112.5"/>
<text text-anchor="middle" x="374.5" y="-119.5" font-family="Helvetica" font-size="10.00">sci/FrsSciTcalPar.cxx</text>
</a>
</g>
</g>
<!-- Node2 -->
<g id="node2" class="node">
<title>Node2</title>
<g id="a_node2"><a xlink:href="../../d4/dfe/FrsSciTcalPar_8h.html" target="_top" xlink:title=" ">
<polygon fill="white" stroke="black" points="138,-56.5 138,-75.5 225,-75.5 225,-56.5 138,-56.5"/>
<text text-anchor="middle" x="181.5" y="-63.5" font-family="Helvetica" font-size="10.00">FrsSciTcalPar.h</text>
</a>
</g>
</g>
<!-- Node1&#45;&gt;Node2 -->
<g id="edge1" class="edge">
<title>Node1&#45;&gt;Node2</title>
<path fill="none" stroke="midnightblue" d="M343.92,-112.44C310.89,-103.2 258.11,-88.44 221.73,-78.26"/>
<polygon fill="midnightblue" stroke="midnightblue" points="222.51,-74.84 211.94,-75.52 220.63,-81.58 222.51,-74.84"/>
</g>
<!-- Node4 -->
<g id="node4" class="node">
<title>Node4</title>
<g id="a_node4"><a xlink:title=" ">
<polygon fill="white" stroke="#bfbfbf" points="0,-0.5 0,-19.5 59,-19.5 59,-0.5 0,-0.5"/>
<text text-anchor="middle" x="29.5" y="-7.5" font-family="Helvetica" font-size="10.00">TArrayF.h</text>
</a>
</g>
</g>
<!-- Node1&#45;&gt;Node4 -->
<g id="edge9" class="edge">
<title>Node1&#45;&gt;Node4</title>
<path fill="none" stroke="midnightblue" d="M317.78,-116.95C266.97,-111.85 191.17,-100.56 129.5,-76 98.47,-63.64 66.84,-41.05 47.69,-26.03"/>
<polygon fill="midnightblue" stroke="midnightblue" points="49.81,-23.24 39.82,-19.73 45.43,-28.71 49.81,-23.24"/>
</g>
<!-- Node8 -->
<g id="node8" class="node">
<title>Node8</title>
<g id="a_node8"><a xlink:title=" ">
<polygon fill="white" stroke="#bfbfbf" points="243,-56.5 243,-75.5 314,-75.5 314,-56.5 243,-56.5"/>
<text text-anchor="middle" x="278.5" y="-63.5" font-family="Helvetica" font-size="10.00">FairLogger.h</text>
</a>
</g>
</g>
<!-- Node1&#45;&gt;Node8 -->
<g id="edge7" class="edge">
<title>Node1&#45;&gt;Node8</title>
<path fill="none" stroke="midnightblue" d="M359.08,-112.32C343.96,-103.82 320.68,-90.73 303.03,-80.8"/>
<polygon fill="midnightblue" stroke="midnightblue" points="304.32,-77.51 293.89,-75.65 300.89,-83.61 304.32,-77.51"/>
</g>
<!-- Node9 -->
<g id="node9" class="node">
<title>Node9</title>
<g id="a_node9"><a xlink:title=" ">
<polygon fill="white" stroke="#bfbfbf" points="332,-56.5 332,-75.5 417,-75.5 417,-56.5 332,-56.5"/>
<text text-anchor="middle" x="374.5" y="-63.5" font-family="Helvetica" font-size="10.00">FairParamList.h</text>
</a>
</g>
</g>
<!-- Node1&#45;&gt;Node9 -->
<g id="edge8" class="edge">
<title>Node1&#45;&gt;Node9</title>
<path fill="none" stroke="midnightblue" d="M374.5,-112.08C374.5,-105.01 374.5,-94.86 374.5,-85.99"/>
<polygon fill="midnightblue" stroke="midnightblue" points="378,-85.75 374.5,-75.75 371,-85.75 378,-85.75"/>
</g>
<!-- Node10 -->
<g id="node10" class="node">
<title>Node10</title>
<g id="a_node10"><a xlink:title=" ">
<polygon fill="white" stroke="#bfbfbf" points="435,-56.5 435,-75.5 488,-75.5 488,-56.5 435,-56.5"/>
<text text-anchor="middle" x="461.5" y="-63.5" font-family="Helvetica" font-size="10.00">TMath.h</text>
</a>
</g>
</g>
<!-- Node1&#45;&gt;Node10 -->
<g id="edge10" class="edge">
<title>Node1&#45;&gt;Node10</title>
<path fill="none" stroke="midnightblue" d="M388.48,-112.32C402.05,-103.9 422.88,-90.97 438.82,-81.07"/>
<polygon fill="midnightblue" stroke="midnightblue" points="440.91,-83.9 447.56,-75.65 437.21,-77.95 440.91,-83.9"/>
</g>
<!-- Node11 -->
<g id="node11" class="node">
<title>Node11</title>
<g id="a_node11"><a xlink:title=" ">
<polygon fill="white" stroke="#bfbfbf" points="506.5,-56.5 506.5,-75.5 562.5,-75.5 562.5,-56.5 506.5,-56.5"/>
<text text-anchor="middle" x="534.5" y="-63.5" font-family="Helvetica" font-size="10.00">TString.h</text>
</a>
</g>
</g>
<!-- Node1&#45;&gt;Node11 -->
<g id="edge11" class="edge">
<title>Node1&#45;&gt;Node11</title>
<path fill="none" stroke="midnightblue" d="M399.85,-112.44C426.77,-103.36 469.5,-88.94 499.59,-78.78"/>
<polygon fill="midnightblue" stroke="midnightblue" points="500.91,-82.03 509.27,-75.52 498.67,-75.4 500.91,-82.03"/>
</g>
<!-- Node12 -->
<g id="node12" class="node">
<title>Node12</title>
<g id="a_node12"><a xlink:title=" ">
<polygon fill="white" stroke="#bfbfbf" points="580.5,-56.5 580.5,-75.5 634.5,-75.5 634.5,-56.5 580.5,-56.5"/>
<text text-anchor="middle" x="607.5" y="-63.5" font-family="Helvetica" font-size="10.00">iostream</text>
</a>
</g>
</g>
<!-- Node1&#45;&gt;Node12 -->
<g id="edge12" class="edge">
<title>Node1&#45;&gt;Node12</title>
<path fill="none" stroke="midnightblue" d="M413.06,-112.44C450.71,-104.02 509.91,-90.64 570.3,-76.25"/>
<polygon fill="midnightblue" stroke="midnightblue" points="571.48,-79.57 580.39,-73.84 569.85,-72.76 571.48,-79.57"/>
</g>
<!-- Node3 -->
<g id="node3" class="node">
<title>Node3</title>
<g id="a_node3"><a xlink:title=" ">
<polygon fill="white" stroke="#bfbfbf" points="77.5,-0.5 77.5,-19.5 181.5,-19.5 181.5,-0.5 77.5,-0.5"/>
<text text-anchor="middle" x="129.5" y="-7.5" font-family="Helvetica" font-size="10.00">FairParGenericSet.h</text>
</a>
</g>
</g>
<!-- Node2&#45;&gt;Node3 -->
<g id="edge2" class="edge">
<title>Node2&#45;&gt;Node3</title>
<path fill="none" stroke="midnightblue" d="M172.91,-56.08C165.34,-48.22 154.12,-36.57 144.99,-27.08"/>
<polygon fill="midnightblue" stroke="midnightblue" points="147.38,-24.53 137.93,-19.75 142.34,-29.38 147.38,-24.53"/>
</g>
<!-- Node2&#45;&gt;Node4 -->
<g id="edge3" class="edge">
<title>Node2&#45;&gt;Node4</title>
<path fill="none" stroke="midnightblue" d="M157.42,-56.44C131.96,-47.4 91.61,-33.06 63.04,-22.92"/>
<polygon fill="midnightblue" stroke="midnightblue" points="64.07,-19.57 53.47,-19.52 61.72,-26.16 64.07,-19.57"/>
</g>
<!-- Node5 -->
<g id="node5" class="node">
<title>Node5</title>
<g id="a_node5"><a xlink:title=" ">
<polygon fill="white" stroke="#bfbfbf" points="199.5,-0.5 199.5,-19.5 267.5,-19.5 267.5,-0.5 199.5,-0.5"/>
<text text-anchor="middle" x="233.5" y="-7.5" font-family="Helvetica" font-size="10.00">TObjArray.h</text>
</a>
</g>
</g>
<!-- Node2&#45;&gt;Node5 -->
<g id="edge4" class="edge">
<title>Node2&#45;&gt;Node5</title>
<path fill="none" stroke="midnightblue" d="M190.09,-56.08C197.66,-48.22 208.88,-36.57 218.01,-27.08"/>
<polygon fill="midnightblue" stroke="midnightblue" points="220.66,-29.38 225.07,-19.75 215.62,-24.53 220.66,-29.38"/>
</g>
<!-- Node6 -->
<g id="node6" class="node">
<title>Node6</title>
<g id="a_node6"><a xlink:title=" ">
<polygon fill="white" stroke="#bfbfbf" points="286,-0.5 286,-19.5 345,-19.5 345,-0.5 286,-0.5"/>
<text text-anchor="middle" x="315.5" y="-7.5" font-family="Helvetica" font-size="10.00">TObject.h</text>
</a>
</g>
</g>
<!-- Node2&#45;&gt;Node6 -->
<g id="edge5" class="edge">
<title>Node2&#45;&gt;Node6</title>
<path fill="none" stroke="midnightblue" d="M202.73,-56.44C224.88,-47.52 259.82,-33.44 284.94,-23.32"/>
<polygon fill="midnightblue" stroke="midnightblue" points="286.4,-26.5 294.37,-19.52 283.78,-20.01 286.4,-26.5"/>
</g>
<!-- Node7 -->
<g id="node7" class="node">
<title>Node7</title>
<g id="a_node7"><a xlink:title=" ">
<polygon fill="white" stroke="#bfbfbf" points="363,-0.5 363,-19.5 434,-19.5 434,-0.5 363,-0.5"/>
<text text-anchor="middle" x="398.5" y="-7.5" font-family="Helvetica" font-size="10.00">TObjString.h</text>
</a>
</g>
</g>
<!-- Node2&#45;&gt;Node7 -->
<g id="edge6" class="edge">
<title>Node2&#45;&gt;Node7</title>
<path fill="none" stroke="midnightblue" d="M215.88,-56.44C253.42,-47.1 313.63,-32.12 354.57,-21.93"/>
<polygon fill="midnightblue" stroke="midnightblue" points="355.42,-25.33 364.28,-19.52 353.73,-18.53 355.42,-25.33"/>
</g>
</g>
</svg>
