<?xml version="1.0" encoding="UTF-8" standalone="no"?>
<!DOCTYPE svg PUBLIC "-//W3C//DTD SVG 1.1//EN"
 "http://www.w3.org/Graphics/SVG/1.1/DTD/svg11.dtd">
<!-- Generated by graphviz version 2.44.0 (0)
 -->
<!-- Title: FRSMusicCal2HitPar Pages: 1 -->
<svg width="174pt" height="152pt"
 viewBox="0.00 0.00 173.50 152.00" xmlns="http://www.w3.org/2000/svg" xmlns:xlink="http://www.w3.org/1999/xlink">
<g id="graph0" class="graph" transform="scale(1 1) rotate(0) translate(4 148)">
<title>FRSMusicCal2HitPar</title>
<polygon fill="white" stroke="transparent" points="-4,4 -4,-148 169.5,-148 169.5,4 -4,4"/>
<!-- Node1 -->
<g id="node1" class="node">
<title>Node1</title>
<g id="a_node1"><a xlink:title=" ">
<polygon fill="#bfbfbf" stroke="black" points="2,-0.5 2,-19.5 112,-19.5 112,-0.5 2,-0.5"/>
<text text-anchor="middle" x="57" y="-7.5" font-family="Helvetica" font-size="10.00">FRSMusicCal2HitPar</text>
</a>
</g>
</g>
<!-- Node2 -->
<g id="node2" class="node">
<title>Node2</title>
<g id="a_node2"><a xlink:title=" ">
<polygon fill="white" stroke="#bfbfbf" points="0,-67.5 0,-86.5 54,-86.5 54,-67.5 0,-67.5"/>
<text text-anchor="middle" x="27" y="-74.5" font-family="Helvetica" font-size="10.00">FairTask</text>
</a>
</g>
</g>
<!-- Node2&#45;&gt;Node1 -->
<g id="edge1" class="edge">
<title>Node2&#45;&gt;Node1</title>
<path fill="none" stroke="midnightblue" d="M35.4,-57.79C41.17,-45.31 48.55,-29.31 53.02,-19.63"/>
<polygon fill="midnightblue" stroke="midnightblue" points="32.06,-56.69 31.05,-67.23 38.41,-59.62 32.06,-56.69"/>
</g>
<!-- Node3 -->
<g id="node3" class="node">
<title>Node3</title>
<g id="a_node3"><a xlink:href="../../d6/d57/classFRSMusicHitPar.html" target="_top" xlink:title=" ">
<polygon fill="white" stroke="black" points="72,-67.5 72,-86.5 162,-86.5 162,-67.5 72,-67.5"/>
<text text-anchor="middle" x="117" y="-74.5" font-family="Helvetica" font-size="10.00">FRSMusicHitPar</text>
</a>
</g>
</g>
<!-- Node3&#45;&gt;Node1 -->
<g id="edge2" class="edge">
<title>Node3&#45;&gt;Node1</title>
<path fill="none" stroke="#9a32cd" stroke-dasharray="5,2" d="M101.89,-59.63C90.16,-46.92 74.35,-29.8 64.96,-19.63"/>
<polygon fill="#9a32cd" stroke="#9a32cd" points="99.55,-62.26 108.91,-67.23 104.7,-57.51 99.55,-62.26"/>
<text text-anchor="middle" x="111.5" y="-41" font-family="Helvetica" font-size="10.00"> fDet_Par</text>
</g>
<!-- Node4 -->
<g id="node4" class="node">
<title>Node4</title>
<g id="a_node4"><a xlink:title=" ">
<polygon fill="white" stroke="#bfbfbf" points="68.5,-124.5 68.5,-143.5 165.5,-143.5 165.5,-124.5 68.5,-124.5"/>
<text text-anchor="middle" x="117" y="-131.5" font-family="Helvetica" font-size="10.00">FairParGenericSet</text>
</a>
</g>
</g>
<!-- Node4&#45;&gt;Node3 -->
<g id="edge3" class="edge">
<title>Node4&#45;&gt;Node3</title>
<path fill="none" stroke="midnightblue" d="M117,-114.12C117,-104.82 117,-94.06 117,-86.71"/>
<polygon fill="midnightblue" stroke="midnightblue" points="113.5,-114.41 117,-124.41 120.5,-114.41 113.5,-114.41"/>
</g>
</g>
</svg>
