<?xml version="1.0" encoding="UTF-8" standalone="no"?>
<!DOCTYPE svg PUBLIC "-//W3C//DTD SVG 1.1//EN"
 "http://www.w3.org/Graphics/SVG/1.1/DTD/svg11.dtd">
<!-- Generated by graphviz version 2.44.0 (0)
 -->
<!-- Title: frsdetectors/R3BFrsContFact.cxx Pages: 1 -->
<!--zoomable 140 -->
<svg id="main" version="1.1" xmlns="http://www.w3.org/2000/svg" xmlns:xlink="http://www.w3.org/1999/xlink" xml:space="preserve" onload="init(evt)">
<style type="text/css"><![CDATA[
.edge:hover path { stroke: red; }
.edge:hover polygon { stroke: red; fill: red; }
]]></style>
<script type="text/javascript"><![CDATA[
var edges = document.getElementsByTagName('g');
if (edges && edges.length) {
  for (var i=0;i<edges.length;i++) {
    if (edges[i].id.substr(0,4)=='edge') {
      edges[i].setAttribute('class','edge');
    }
  }
}
]]></script>
        <defs>
                <circle id="rim" cx="0" cy="0" r="7"/>
                <circle id="rim2" cx="0" cy="0" r="3.5"/>
                <g id="zoomPlus">
                        <use xlink:href="#rim" fill="#404040">
                                <set attributeName="fill" to="#808080" begin="zoomplus.mouseover" end="zoomplus.mouseout"/>
                        </use>
                        <path d="M-4,0h8M0,-4v8" fill="none" stroke="white" stroke-width="1.5" pointer-events="none"/>
                </g>
                <g id="zoomMin">
                        <use xlink:href="#rim" fill="#404040">
                                <set attributeName="fill" to="#808080" begin="zoomminus.mouseover" end="zoomminus.mouseout"/>
                        </use>
                        <path d="M-4,0h8" fill="none" stroke="white" stroke-width="1.5" pointer-events="none"/>
                </g>
                <g id="dirArrow">
                        <path fill="none" stroke="white" stroke-width="1.5" d="M0,-3.0v7 M-2.5,-0.5L0,-3.0L2.5,-0.5"/>
                </g>
               <g id="resetDef">
                       <use xlink:href="#rim2" fill="#404040">
                               <set attributeName="fill" to="#808080" begin="reset.mouseover" end="reset.mouseout"/>
                       </use>
               </g>
        </defs>

<script type="text/javascript">
var viewWidth = 1072;
var viewHeight = 140;
var sectionId = 'dynsection-0';
</script>
<script xlink:href="../../svgpan.js"/>
<svg id="graph" class="graph">
<g id="viewport">
<title>frsdetectors/R3BFrsContFact.cxx</title>
<polygon fill="white" stroke="transparent" points="-4,4 -4,-136 1067.5,-136 1067.5,4 -4,4"/>
<!-- Node1 -->
<g id="node1" class="node">
<title>Node1</title>
<g id="a_node1"><a xlink:title=" ">
<polygon fill="#bfbfbf" stroke="black" points="465.5,-112.5 465.5,-131.5 631.5,-131.5 631.5,-112.5 465.5,-112.5"/>
<text text-anchor="middle" x="548.5" y="-119.5" font-family="Helvetica" font-size="10.00">frsdetectors/R3BFrsContFact.cxx</text>
</a>
</g>
</g>
<!-- Node2 -->
<g id="node2" class="node">
<title>Node2</title>
<g id="a_node2"><a xlink:href="../../d4/d30/R3BFrsContFact_8h.html" target="_top" xlink:title=" ">
<polygon fill="white" stroke="black" points="0,-56.5 0,-75.5 99,-75.5 99,-56.5 0,-56.5"/>
<text text-anchor="middle" x="49.5" y="-63.5" font-family="Helvetica" font-size="10.00">R3BFrsContFact.h</text>
</a>
</g>
</g>
<!-- Node1&#45;&gt;Node2 -->
<g id="edge1" class="edge">
<title>Node1&#45;&gt;Node2</title>
<path fill="none" stroke="midnightblue" d="M465.45,-113.83C378.94,-106.06 239.24,-92.69 109.29,-76.18"/>
<polygon fill="midnightblue" stroke="midnightblue" points="109.51,-72.68 99.15,-74.88 108.62,-79.62 109.51,-72.68"/>
</g>
<!-- Node4 -->
<g id="node4" class="node">
<title>Node4</title>
<g id="a_node4"><a xlink:title=" ">
<polygon fill="white" stroke="#bfbfbf" points="117,-56.5 117,-75.5 188,-75.5 188,-56.5 117,-56.5"/>
<text text-anchor="middle" x="152.5" y="-63.5" font-family="Helvetica" font-size="10.00">FairLogger.h</text>
</a>
</g>
</g>
<!-- Node1&#45;&gt;Node4 -->
<g id="edge3" class="edge">
<title>Node1&#45;&gt;Node4</title>
<path fill="none" stroke="midnightblue" d="M469.51,-112.47C400.52,-104.65 297.46,-92.09 198.22,-76.02"/>
<polygon fill="midnightblue" stroke="midnightblue" points="198.75,-72.56 188.32,-74.4 197.62,-79.47 198.75,-72.56"/>
</g>
<!-- Node5 -->
<g id="node5" class="node">
<title>Node5</title>
<g id="a_node5"><a xlink:title=" ">
<polygon fill="white" stroke="#bfbfbf" points="206.5,-56.5 206.5,-75.5 308.5,-75.5 308.5,-56.5 206.5,-56.5"/>
<text text-anchor="middle" x="257.5" y="-63.5" font-family="Helvetica" font-size="10.00">FairParAsciiFileIo.h</text>
</a>
</g>
</g>
<!-- Node1&#45;&gt;Node5 -->
<g id="edge4" class="edge">
<title>Node1&#45;&gt;Node5</title>
<path fill="none" stroke="midnightblue" d="M502.39,-112.44C451.09,-102.92 368.23,-87.55 313.31,-77.36"/>
<polygon fill="midnightblue" stroke="midnightblue" points="313.86,-73.9 303.39,-75.52 312.59,-80.78 313.86,-73.9"/>
</g>
<!-- Node6 -->
<g id="node6" class="node">
<title>Node6</title>
<g id="a_node6"><a xlink:title=" ">
<polygon fill="white" stroke="#bfbfbf" points="327,-56.5 327,-75.5 428,-75.5 428,-56.5 327,-56.5"/>
<text text-anchor="middle" x="377.5" y="-63.5" font-family="Helvetica" font-size="10.00">FairParRootFileIo.h</text>
</a>
</g>
</g>
<!-- Node1&#45;&gt;Node6 -->
<g id="edge5" class="edge">
<title>Node1&#45;&gt;Node6</title>
<path fill="none" stroke="midnightblue" d="M521.4,-112.44C492.51,-103.32 446.58,-88.81 414.39,-78.65"/>
<polygon fill="midnightblue" stroke="midnightblue" points="415.06,-75.19 404.47,-75.52 412.95,-81.87 415.06,-75.19"/>
</g>
<!-- Node7 -->
<g id="node7" class="node">
<title>Node7</title>
<g id="a_node7"><a xlink:title=" ">
<polygon fill="white" stroke="#bfbfbf" points="446,-56.5 446,-75.5 537,-75.5 537,-56.5 446,-56.5"/>
<text text-anchor="middle" x="491.5" y="-63.5" font-family="Helvetica" font-size="10.00">FairRuntimeDb.h</text>
</a>
</g>
</g>
<!-- Node1&#45;&gt;Node7 -->
<g id="edge6" class="edge">
<title>Node1&#45;&gt;Node7</title>
<path fill="none" stroke="midnightblue" d="M539.34,-112.32C531,-104.42 518.47,-92.55 508.32,-82.94"/>
<polygon fill="midnightblue" stroke="midnightblue" points="510.49,-80.17 500.82,-75.83 505.68,-85.25 510.49,-80.17"/>
</g>
<!-- Node8 -->
<g id="node8" class="node">
<title>Node8</title>
<g id="a_node8"><a xlink:href="../../d6/d2c/FRSMusicCalPar_8h.html" target="_top" xlink:title=" ">
<polygon fill="white" stroke="black" points="555.5,-56.5 555.5,-75.5 655.5,-75.5 655.5,-56.5 555.5,-56.5"/>
<text text-anchor="middle" x="605.5" y="-63.5" font-family="Helvetica" font-size="10.00">FRSMusicCalPar.h</text>
</a>
</g>
</g>
<!-- Node1&#45;&gt;Node8 -->
<g id="edge7" class="edge">
<title>Node1&#45;&gt;Node8</title>
<path fill="none" stroke="midnightblue" d="M557.66,-112.32C566,-104.42 578.53,-92.55 588.68,-82.94"/>
<polygon fill="midnightblue" stroke="midnightblue" points="591.32,-85.25 596.18,-75.83 586.51,-80.17 591.32,-85.25"/>
</g>
<!-- Node14 -->
<g id="node14" class="node">
<title>Node14</title>
<g id="a_node14"><a xlink:href="../../d0/d13/FRSMusicHitPar_8h.html" target="_top" xlink:title=" ">
<polygon fill="white" stroke="black" points="673.5,-56.5 673.5,-75.5 771.5,-75.5 771.5,-56.5 673.5,-56.5"/>
<text text-anchor="middle" x="722.5" y="-63.5" font-family="Helvetica" font-size="10.00">FRSMusicHitPar.h</text>
</a>
</g>
</g>
<!-- Node1&#45;&gt;Node14 -->
<g id="edge13" class="edge">
<title>Node1&#45;&gt;Node14</title>
<path fill="none" stroke="midnightblue" d="M576.07,-112.44C605.6,-103.28 652.62,-88.69 685.38,-78.52"/>
<polygon fill="midnightblue" stroke="midnightblue" points="686.54,-81.82 695.06,-75.52 684.47,-75.14 686.54,-81.82"/>
</g>
<!-- Node15 -->
<g id="node15" class="node">
<title>Node15</title>
<g id="a_node15"><a xlink:href="../../df/d3b/R3BFrsAnaPar_8h.html" target="_top" xlink:title=" ">
<polygon fill="white" stroke="black" points="789.5,-56.5 789.5,-75.5 881.5,-75.5 881.5,-56.5 789.5,-56.5"/>
<text text-anchor="middle" x="835.5" y="-63.5" font-family="Helvetica" font-size="10.00">R3BFrsAnaPar.h</text>
</a>
</g>
</g>
<!-- Node1&#45;&gt;Node15 -->
<g id="edge19" class="edge">
<title>Node1&#45;&gt;Node15</title>
<path fill="none" stroke="midnightblue" d="M593.98,-112.44C644.46,-102.94 725.96,-87.61 780.12,-77.42"/>
<polygon fill="midnightblue" stroke="midnightblue" points="781.06,-80.81 790.24,-75.52 779.76,-73.93 781.06,-80.81"/>
</g>
<!-- Node16 -->
<g id="node16" class="node">
<title>Node16</title>
<g id="a_node16"><a xlink:href="../../de/d16/R3BTpcCalPar_8h.html" target="_top" xlink:title=" ">
<polygon fill="white" stroke="black" points="899.5,-56.5 899.5,-75.5 989.5,-75.5 989.5,-56.5 899.5,-56.5"/>
<text text-anchor="middle" x="944.5" y="-63.5" font-family="Helvetica" font-size="10.00">R3BTpcCalPar.h</text>
</a>
</g>
</g>
<!-- Node1&#45;&gt;Node16 -->
<g id="edge25" class="edge">
<title>Node1&#45;&gt;Node16</title>
<path fill="none" stroke="midnightblue" d="M618.68,-112.48C685.66,-104.19 789.65,-90.89 889.48,-76.11"/>
<polygon fill="midnightblue" stroke="midnightblue" points="890.06,-79.56 899.44,-74.63 889.03,-72.64 890.06,-79.56"/>
</g>
<!-- Node17 -->
<g id="node17" class="node">
<title>Node17</title>
<g id="a_node17"><a xlink:title=" ">
<polygon fill="white" stroke="#bfbfbf" points="1007.5,-56.5 1007.5,-75.5 1063.5,-75.5 1063.5,-56.5 1007.5,-56.5"/>
<text text-anchor="middle" x="1035.5" y="-63.5" font-family="Helvetica" font-size="10.00">TClass.h</text>
</a>
</g>
</g>
<!-- Node1&#45;&gt;Node17 -->
<g id="edge31" class="edge">
<title>Node1&#45;&gt;Node17</title>
<path fill="none" stroke="midnightblue" d="M631.9,-116.14C720.38,-110.2 864.33,-98.28 997.34,-75.98"/>
<polygon fill="midnightblue" stroke="midnightblue" points="998.03,-79.41 1007.3,-74.29 996.86,-72.51 998.03,-79.41"/>
</g>
<!-- Node3 -->
<g id="node3" class="node">
<title>Node3</title>
<g id="a_node3"><a xlink:title=" ">
<polygon fill="white" stroke="#bfbfbf" points="9,-0.5 9,-19.5 90,-19.5 90,-0.5 9,-0.5"/>
<text text-anchor="middle" x="49.5" y="-7.5" font-family="Helvetica" font-size="10.00">FairContFact.h</text>
</a>
</g>
</g>
<!-- Node2&#45;&gt;Node3 -->
<g id="edge2" class="edge">
<title>Node2&#45;&gt;Node3</title>
<path fill="none" stroke="midnightblue" d="M49.5,-56.08C49.5,-49.01 49.5,-38.86 49.5,-29.99"/>
<polygon fill="midnightblue" stroke="midnightblue" points="53,-29.75 49.5,-19.75 46,-29.75 53,-29.75"/>
</g>
<!-- Node9 -->
<g id="node9" class="node">
<title>Node9</title>
<g id="a_node9"><a xlink:title=" ">
<polygon fill="white" stroke="#bfbfbf" points="643.5,-0.5 643.5,-19.5 747.5,-19.5 747.5,-0.5 643.5,-0.5"/>
<text text-anchor="middle" x="695.5" y="-7.5" font-family="Helvetica" font-size="10.00">FairParGenericSet.h</text>
</a>
</g>
</g>
<!-- Node8&#45;&gt;Node9 -->
<g id="edge8" class="edge">
<title>Node8&#45;&gt;Node9</title>
<path fill="none" stroke="midnightblue" d="M619.96,-56.32C634,-47.9 655.55,-34.97 672.04,-25.07"/>
<polygon fill="midnightblue" stroke="midnightblue" points="674.3,-27.8 681.08,-19.65 670.7,-21.8 674.3,-27.8"/>
</g>
<!-- Node10 -->
<g id="node10" class="node">
<title>Node10</title>
<g id="a_node10"><a xlink:title=" ">
<polygon fill="white" stroke="#bfbfbf" points="766,-0.5 766,-19.5 825,-19.5 825,-0.5 766,-0.5"/>
<text text-anchor="middle" x="795.5" y="-7.5" font-family="Helvetica" font-size="10.00">TArrayF.h</text>
</a>
</g>
</g>
<!-- Node8&#45;&gt;Node10 -->
<g id="edge9" class="edge">
<title>Node8&#45;&gt;Node10</title>
<path fill="none" stroke="midnightblue" d="M635.61,-56.44C668.22,-47.17 720.38,-32.35 756.21,-22.17"/>
<polygon fill="midnightblue" stroke="midnightblue" points="757.19,-25.53 765.85,-19.43 755.27,-18.79 757.19,-25.53"/>
</g>
<!-- Node11 -->
<g id="node11" class="node">
<title>Node11</title>
<g id="a_node11"><a xlink:title=" ">
<polygon fill="white" stroke="#bfbfbf" points="843.5,-0.5 843.5,-19.5 911.5,-19.5 911.5,-0.5 843.5,-0.5"/>
<text text-anchor="middle" x="877.5" y="-7.5" font-family="Helvetica" font-size="10.00">TObjArray.h</text>
</a>
</g>
</g>
<!-- Node8&#45;&gt;Node11 -->
<g id="edge10" class="edge">
<title>Node8&#45;&gt;Node11</title>
<path fill="none" stroke="midnightblue" d="M649.23,-56.46C695.14,-47.48 769.42,-32.88 833.5,-20 833.6,-19.98 833.7,-19.96 833.8,-19.94"/>
<polygon fill="midnightblue" stroke="midnightblue" points="834.29,-23.41 843.39,-18 832.9,-16.55 834.29,-23.41"/>
</g>
<!-- Node12 -->
<g id="node12" class="node">
<title>Node12</title>
<g id="a_node12"><a xlink:title=" ">
<polygon fill="white" stroke="#bfbfbf" points="930,-0.5 930,-19.5 989,-19.5 989,-0.5 930,-0.5"/>
<text text-anchor="middle" x="959.5" y="-7.5" font-family="Helvetica" font-size="10.00">TObject.h</text>
</a>
</g>
</g>
<!-- Node8&#45;&gt;Node12 -->
<g id="edge11" class="edge">
<title>Node8&#45;&gt;Node12</title>
<path fill="none" stroke="midnightblue" d="M655.71,-57.3C658.68,-56.86 661.63,-56.42 664.5,-56 774.96,-39.81 805.8,-40.86 919.58,-20.03"/>
<polygon fill="midnightblue" stroke="midnightblue" points="920.55,-23.41 929.75,-18.15 919.28,-16.52 920.55,-23.41"/>
</g>
<!-- Node13 -->
<g id="node13" class="node">
<title>Node13</title>
<g id="a_node13"><a xlink:title=" ">
<polygon fill="white" stroke="#bfbfbf" points="554,-0.5 554,-19.5 625,-19.5 625,-0.5 554,-0.5"/>
<text text-anchor="middle" x="589.5" y="-7.5" font-family="Helvetica" font-size="10.00">TObjString.h</text>
</a>
</g>
</g>
<!-- Node8&#45;&gt;Node13 -->
<g id="edge12" class="edge">
<title>Node8&#45;&gt;Node13</title>
<path fill="none" stroke="midnightblue" d="M602.86,-56.08C600.71,-48.85 597.62,-38.41 594.95,-29.4"/>
<polygon fill="midnightblue" stroke="midnightblue" points="598.29,-28.34 592.09,-19.75 591.58,-30.33 598.29,-28.34"/>
</g>
<!-- Node14&#45;&gt;Node9 -->
<g id="edge14" class="edge">
<title>Node14&#45;&gt;Node9</title>
<path fill="none" stroke="midnightblue" d="M718.04,-56.08C714.35,-48.69 708.98,-37.95 704.41,-28.81"/>
<polygon fill="midnightblue" stroke="midnightblue" points="707.48,-27.13 699.88,-19.75 701.22,-30.26 707.48,-27.13"/>
</g>
<!-- Node14&#45;&gt;Node10 -->
<g id="edge15" class="edge">
<title>Node14&#45;&gt;Node10</title>
<path fill="none" stroke="midnightblue" d="M734.23,-56.32C745.34,-48.11 762.24,-35.6 775.48,-25.81"/>
<polygon fill="midnightblue" stroke="midnightblue" points="777.6,-28.59 783.56,-19.83 773.44,-22.97 777.6,-28.59"/>
</g>
<!-- Node14&#45;&gt;Node11 -->
<g id="edge16" class="edge">
<title>Node14&#45;&gt;Node11</title>
<path fill="none" stroke="midnightblue" d="M747.06,-56.44C773.02,-47.4 814.17,-33.06 843.3,-22.92"/>
<polygon fill="midnightblue" stroke="midnightblue" points="844.76,-26.11 853.05,-19.52 842.46,-19.5 844.76,-26.11"/>
</g>
<!-- Node14&#45;&gt;Node12 -->
<g id="edge17" class="edge">
<title>Node14&#45;&gt;Node12</title>
<path fill="none" stroke="midnightblue" d="M760.1,-56.49C797.91,-47.93 858.15,-34.26 919.79,-20.16"/>
<polygon fill="midnightblue" stroke="midnightblue" points="920.73,-23.53 929.69,-17.89 919.16,-16.71 920.73,-23.53"/>
</g>
<!-- Node14&#45;&gt;Node13 -->
<g id="edge18" class="edge">
<title>Node14&#45;&gt;Node13</title>
<path fill="none" stroke="midnightblue" d="M701.43,-56.44C679.44,-47.52 644.77,-33.44 619.84,-23.32"/>
<polygon fill="midnightblue" stroke="midnightblue" points="621.06,-20.04 610.48,-19.52 618.42,-26.52 621.06,-20.04"/>
</g>
<!-- Node15&#45;&gt;Node9 -->
<g id="edge20" class="edge">
<title>Node15&#45;&gt;Node9</title>
<path fill="none" stroke="midnightblue" d="M813.32,-56.44C790.07,-47.48 753.35,-33.31 727.08,-23.18"/>
<polygon fill="midnightblue" stroke="midnightblue" points="728.17,-19.85 717.58,-19.52 725.65,-26.38 728.17,-19.85"/>
</g>
<!-- Node15&#45;&gt;Node10 -->
<g id="edge21" class="edge">
<title>Node15&#45;&gt;Node10</title>
<path fill="none" stroke="midnightblue" d="M828.89,-56.08C823.24,-48.46 814.96,-37.26 808.05,-27.94"/>
<polygon fill="midnightblue" stroke="midnightblue" points="810.75,-25.7 801.98,-19.75 805.12,-29.87 810.75,-25.7"/>
</g>
<!-- Node15&#45;&gt;Node11 -->
<g id="edge22" class="edge">
<title>Node15&#45;&gt;Node11</title>
<path fill="none" stroke="midnightblue" d="M842.44,-56.08C848.43,-48.38 857.25,-37.03 864.55,-27.65"/>
<polygon fill="midnightblue" stroke="midnightblue" points="867.32,-29.79 870.69,-19.75 861.79,-25.5 867.32,-29.79"/>
</g>
<!-- Node15&#45;&gt;Node12 -->
<g id="edge23" class="edge">
<title>Node15&#45;&gt;Node12</title>
<path fill="none" stroke="midnightblue" d="M855.15,-56.44C875.46,-47.6 907.4,-33.69 930.6,-23.59"/>
<polygon fill="midnightblue" stroke="midnightblue" points="932.17,-26.72 939.94,-19.52 929.38,-20.3 932.17,-26.72"/>
</g>
<!-- Node15&#45;&gt;Node13 -->
<g id="edge24" class="edge">
<title>Node15&#45;&gt;Node13</title>
<path fill="none" stroke="midnightblue" d="M796.52,-56.44C752.6,-46.8 681.29,-31.15 634.89,-20.96"/>
<polygon fill="midnightblue" stroke="midnightblue" points="635.62,-17.54 625.1,-18.82 634.12,-24.38 635.62,-17.54"/>
</g>
<!-- Node16&#45;&gt;Node9 -->
<g id="edge26" class="edge">
<title>Node16&#45;&gt;Node9</title>
<path fill="none" stroke="midnightblue" d="M905.05,-56.44C861.61,-47.02 791.71,-31.87 744.72,-21.68"/>
<polygon fill="midnightblue" stroke="midnightblue" points="745.28,-18.22 734.77,-19.52 743.8,-25.06 745.28,-18.22"/>
</g>
<!-- Node16&#45;&gt;Node10 -->
<g id="edge27" class="edge">
<title>Node16&#45;&gt;Node10</title>
<path fill="none" stroke="midnightblue" d="M920.89,-56.44C896.04,-47.44 856.73,-33.19 828.75,-23.05"/>
<polygon fill="midnightblue" stroke="midnightblue" points="829.59,-19.63 819,-19.52 827.21,-26.21 829.59,-19.63"/>
</g>
<!-- Node16&#45;&gt;Node11 -->
<g id="edge28" class="edge">
<title>Node16&#45;&gt;Node11</title>
<path fill="none" stroke="midnightblue" d="M933.74,-56.32C923.73,-48.26 908.61,-36.08 896.57,-26.37"/>
<polygon fill="midnightblue" stroke="midnightblue" points="898.44,-23.38 888.46,-19.83 894.05,-28.83 898.44,-23.38"/>
</g>
<!-- Node16&#45;&gt;Node12 -->
<g id="edge29" class="edge">
<title>Node16&#45;&gt;Node12</title>
<path fill="none" stroke="midnightblue" d="M946.98,-56.08C948.99,-48.85 951.89,-38.41 954.39,-29.4"/>
<polygon fill="midnightblue" stroke="midnightblue" points="957.76,-30.32 957.07,-19.75 951.02,-28.45 957.76,-30.32"/>
</g>
<!-- Node16&#45;&gt;Node13 -->
<g id="edge30" class="edge">
<title>Node16&#45;&gt;Node13</title>
<path fill="none" stroke="midnightblue" d="M899.43,-57.4C896.41,-56.92 893.41,-56.45 890.5,-56 780.15,-39.05 749.49,-39.25 635.51,-20.08"/>
<polygon fill="midnightblue" stroke="midnightblue" points="635.77,-16.58 625.33,-18.36 634.6,-23.48 635.77,-16.58"/>
</g>
</g>
</svg>
        <g id="navigator" transform="translate(0 0)" fill="#404254">
                <rect fill="#f2f5e9" fill-opacity="0.5" stroke="#606060" stroke-width=".5" x="0" y="0" width="60" height="60"/>
                <use id="zoomplus" xlink:href="#zoomPlus" x="17" y="9" onmousedown="handleZoom(evt,'in')"/>
                <use id="zoomminus" xlink:href="#zoomMin" x="42" y="9" onmousedown="handleZoom(evt,'out')"/>
                <use id="reset" xlink:href="#resetDef" x="30" y="36" onmousedown="handleReset()"/>
                <g id="arrowUp" xlink:href="#dirArrow" transform="translate(30 24)" onmousedown="handlePan(0,-1)">
                  <use xlink:href="#rim" fill="#404040">
                        <set attributeName="fill" to="#808080" begin="arrowUp.mouseover" end="arrowUp.mouseout"/>
                  </use>
                  <path fill="none" stroke="white" stroke-width="1.5" d="M0,-3.0v7 M-2.5,-0.5L0,-3.0L2.5,-0.5"/>
                </g>
                <g id="arrowRight" xlink:href="#dirArrow" transform="rotate(90) translate(36 -43)" onmousedown="handlePan(1,0)">
                  <use xlink:href="#rim" fill="#404040">
                        <set attributeName="fill" to="#808080" begin="arrowRight.mouseover" end="arrowRight.mouseout"/>
                  </use>
                  <path fill="none" stroke="white" stroke-width="1.5" d="M0,-3.0v7 M-2.5,-0.5L0,-3.0L2.5,-0.5"/>
                </g>
                <g id="arrowDown" xlink:href="#dirArrow" transform="rotate(180) translate(-30 -48)" onmousedown="handlePan(0,1)">
                  <use xlink:href="#rim" fill="#404040">
                        <set attributeName="fill" to="#808080" begin="arrowDown.mouseover" end="arrowDown.mouseout"/>
                  </use>
                  <path fill="none" stroke="white" stroke-width="1.5" d="M0,-3.0v7 M-2.5,-0.5L0,-3.0L2.5,-0.5"/>
                </g>
                <g id="arrowLeft" xlink:href="#dirArrow" transform="rotate(270) translate(-36 17)" onmousedown="handlePan(-1,0)">
                  <use xlink:href="#rim" fill="#404040">
                        <set attributeName="fill" to="#808080" begin="arrowLeft.mouseover" end="arrowLeft.mouseout"/>
                  </use>
                  <path fill="none" stroke="white" stroke-width="1.5" d="M0,-3.0v7 M-2.5,-0.5L0,-3.0L2.5,-0.5"/>
                </g>
        </g>
        <svg viewBox="0 0 15 15" width="100%" height="30px" preserveAspectRatio="xMaxYMin meet">
         <g id="arrow_out" transform="scale(0.3 0.3)">
          <a xlink:href="R3BFrsContFact_8cxx__incl_org.svg" target="_base">
           <rect id="button" ry="5" rx="5" y="6" x="6" height="38" width="38"
                fill="#f2f5e9" fill-opacity="0.5" stroke="#606060" stroke-width="1.0"/>
           <path id="arrow"
             d="M 11.500037,31.436501 C 11.940474,20.09759 22.043105,11.32322 32.158766,21.979434 L 37.068811,17.246167 C 37.068811,17.246167 37.088388,32 37.088388,32 L 22.160133,31.978069 C 22.160133,31.978069 26.997745,27.140456 26.997745,27.140456 C 18.528582,18.264221 13.291696,25.230495 11.500037,31.436501 z"
             style="fill:#404040;"/>
          </a>
         </g>
        </svg>
</svg>
