<?xml version="1.0" encoding="UTF-8" standalone="no"?>
<!DOCTYPE svg PUBLIC "-//W3C//DTD SVG 1.1//EN"
 "http://www.w3.org/Graphics/SVG/1.1/DTD/svg11.dtd">
<!-- Generated by graphviz version 2.44.0 (0)
 -->
<!-- Title: frsdetectors/R3BTpcMapped2CalPar.cxx Pages: 1 -->
<svg width="1663pt" height="151pt"
 viewBox="0.00 0.00 1663.00 151.00" xmlns="http://www.w3.org/2000/svg" xmlns:xlink="http://www.w3.org/1999/xlink">
<g id="graph0" class="graph" transform="scale(1 1) rotate(0) translate(4 147)">
<title>frsdetectors/R3BTpcMapped2CalPar.cxx</title>
<polygon fill="white" stroke="transparent" points="-4,4 -4,-147 1659,-147 1659,4 -4,4"/>
<!-- Node1 -->
<g id="node1" class="node">
<title>Node1</title>
<g id="a_node1"><a xlink:title=" ">
<polygon fill="#bfbfbf" stroke="black" points="837.5,-112.5 837.5,-142.5 986.5,-142.5 986.5,-112.5 837.5,-112.5"/>
<text text-anchor="start" x="845.5" y="-130.5" font-family="Helvetica" font-size="10.00">frsdetectors/R3BTpcMapped2</text>
<text text-anchor="middle" x="912" y="-119.5" font-family="Helvetica" font-size="10.00">CalPar.cxx</text>
</a>
</g>
</g>
<!-- Node2 -->
<g id="node2" class="node">
<title>Node2</title>
<g id="a_node2"><a xlink:href="../../dd/d1c/R3BTpcMapped2CalPar_8h.html" target="_top" xlink:title=" ">
<polygon fill="white" stroke="black" points="33,-56.5 33,-75.5 163,-75.5 163,-56.5 33,-56.5"/>
<text text-anchor="middle" x="98" y="-63.5" font-family="Helvetica" font-size="10.00">R3BTpcMapped2CalPar.h</text>
</a>
</g>
</g>
<!-- Node1&#45;&gt;Node2 -->
<g id="edge1" class="edge">
<title>Node1&#45;&gt;Node2</title>
<path fill="none" stroke="midnightblue" d="M837.31,-122.48C704.39,-115.07 418.06,-98 177,-76 175.72,-75.88 174.44,-75.76 173.14,-75.64"/>
<polygon fill="midnightblue" stroke="midnightblue" points="173.37,-72.15 163.07,-74.65 172.68,-79.11 173.37,-72.15"/>
</g>
<!-- Node4 -->
<g id="node4" class="node">
<title>Node4</title>
<g id="a_node4"><a xlink:title=" ">
<polygon fill="white" stroke="#bfbfbf" points="160.5,-0.5 160.5,-19.5 209.5,-19.5 209.5,-0.5 160.5,-0.5"/>
<text text-anchor="middle" x="185" y="-7.5" font-family="Helvetica" font-size="10.00">TH1F.h</text>
</a>
</g>
</g>
<!-- Node1&#45;&gt;Node4 -->
<g id="edge22" class="edge">
<title>Node1&#45;&gt;Node4</title>
<path fill="none" stroke="midnightblue" d="M837.46,-125.6C666.98,-122.92 259.52,-112.69 210,-76 195.6,-65.33 189.5,-45.23 186.91,-30.19"/>
<polygon fill="midnightblue" stroke="midnightblue" points="190.33,-29.37 185.53,-19.92 183.39,-30.29 190.33,-29.37"/>
</g>
<!-- Node6 -->
<g id="node6" class="node">
<title>Node6</title>
<g id="a_node6"><a xlink:title=" ">
<polygon fill="white" stroke="#bfbfbf" points="219.5,-56.5 219.5,-75.5 290.5,-75.5 290.5,-56.5 219.5,-56.5"/>
<text text-anchor="middle" x="255" y="-63.5" font-family="Helvetica" font-size="10.00">FairLogger.h</text>
</a>
</g>
</g>
<!-- Node1&#45;&gt;Node6 -->
<g id="edge5" class="edge">
<title>Node1&#45;&gt;Node6</title>
<path fill="none" stroke="midnightblue" d="M837.27,-123.11C723.58,-117.34 500.24,-103.59 300.87,-75.96"/>
<polygon fill="midnightblue" stroke="midnightblue" points="301.19,-72.47 290.8,-74.55 300.22,-79.4 301.19,-72.47"/>
</g>
<!-- Node7 -->
<g id="node7" class="node">
<title>Node7</title>
<g id="a_node7"><a xlink:title=" ">
<polygon fill="white" stroke="#bfbfbf" points="309,-56.5 309,-75.5 409,-75.5 409,-56.5 309,-56.5"/>
<text text-anchor="middle" x="359" y="-63.5" font-family="Helvetica" font-size="10.00">FairRootManager.h</text>
</a>
</g>
</g>
<!-- Node1&#45;&gt;Node7 -->
<g id="edge6" class="edge">
<title>Node1&#45;&gt;Node7</title>
<path fill="none" stroke="midnightblue" d="M837.38,-120.03C742.62,-111.56 573.83,-95.59 419.34,-76.12"/>
<polygon fill="midnightblue" stroke="midnightblue" points="419.55,-72.61 409.19,-74.83 418.67,-79.56 419.55,-72.61"/>
</g>
<!-- Node8 -->
<g id="node8" class="node">
<title>Node8</title>
<g id="a_node8"><a xlink:title=" ">
<polygon fill="white" stroke="#bfbfbf" points="427.5,-56.5 427.5,-75.5 504.5,-75.5 504.5,-56.5 427.5,-56.5"/>
<text text-anchor="middle" x="466" y="-63.5" font-family="Helvetica" font-size="10.00">FairRunAna.h</text>
</a>
</g>
</g>
<!-- Node1&#45;&gt;Node8 -->
<g id="edge7" class="edge">
<title>Node1&#45;&gt;Node8</title>
<path fill="none" stroke="midnightblue" d="M837.16,-118.46C759.02,-109.74 632.71,-94.73 514.63,-76.18"/>
<polygon fill="midnightblue" stroke="midnightblue" points="515.12,-72.72 504.69,-74.61 514.02,-79.63 515.12,-72.72"/>
</g>
<!-- Node9 -->
<g id="node9" class="node">
<title>Node9</title>
<g id="a_node9"><a xlink:title=" ">
<polygon fill="white" stroke="#bfbfbf" points="522.5,-56.5 522.5,-75.5 613.5,-75.5 613.5,-56.5 522.5,-56.5"/>
<text text-anchor="middle" x="568" y="-63.5" font-family="Helvetica" font-size="10.00">FairRuntimeDb.h</text>
</a>
</g>
</g>
<!-- Node1&#45;&gt;Node9 -->
<g id="edge8" class="edge">
<title>Node1&#45;&gt;Node9</title>
<path fill="none" stroke="midnightblue" d="M837.36,-113.59C773.05,-102.47 681.66,-86.66 623.6,-76.62"/>
<polygon fill="midnightblue" stroke="midnightblue" points="623.97,-73.13 613.52,-74.87 622.77,-80.03 623.97,-73.13"/>
</g>
<!-- Node10 -->
<g id="node10" class="node">
<title>Node10</title>
<g id="a_node10"><a xlink:title=" ">
<polygon fill="white" stroke="#bfbfbf" points="631.5,-56.5 631.5,-75.5 732.5,-75.5 732.5,-56.5 631.5,-56.5"/>
<text text-anchor="middle" x="682" y="-63.5" font-family="Helvetica" font-size="10.00">R3BEventHeader.h</text>
</a>
</g>
</g>
<!-- Node1&#45;&gt;Node10 -->
<g id="edge9" class="edge">
<title>Node1&#45;&gt;Node10</title>
<path fill="none" stroke="midnightblue" d="M857.78,-112.47C817.24,-101.99 762.55,-87.84 724.99,-78.12"/>
<polygon fill="midnightblue" stroke="midnightblue" points="725.44,-74.62 714.88,-75.51 723.69,-81.4 725.44,-74.62"/>
</g>
<!-- Node11 -->
<g id="node11" class="node">
<title>Node11</title>
<g id="a_node11"><a xlink:href="../../de/d16/R3BTpcCalPar_8h.html" target="_top" xlink:title=" ">
<polygon fill="white" stroke="black" points="751,-56.5 751,-75.5 841,-75.5 841,-56.5 751,-56.5"/>
<text text-anchor="middle" x="796" y="-63.5" font-family="Helvetica" font-size="10.00">R3BTpcCalPar.h</text>
</a>
</g>
</g>
<!-- Node1&#45;&gt;Node11 -->
<g id="edge10" class="edge">
<title>Node1&#45;&gt;Node11</title>
<path fill="none" stroke="midnightblue" d="M884.51,-112.4C865.57,-102.68 840.56,-89.86 821.96,-80.31"/>
<polygon fill="midnightblue" stroke="midnightblue" points="823.37,-77.11 812.88,-75.66 820.18,-83.34 823.37,-77.11"/>
</g>
<!-- Node14 -->
<g id="node14" class="node">
<title>Node14</title>
<g id="a_node14"><a xlink:title=" ">
<polygon fill="white" stroke="#bfbfbf" points="839,-0.5 839,-19.5 907,-19.5 907,-0.5 839,-0.5"/>
<text text-anchor="middle" x="873" y="-7.5" font-family="Helvetica" font-size="10.00">TObjArray.h</text>
</a>
</g>
</g>
<!-- Node1&#45;&gt;Node14 -->
<g id="edge24" class="edge">
<title>Node1&#45;&gt;Node14</title>
<path fill="none" stroke="midnightblue" d="M904.21,-112.27C899.04,-102.34 892.41,-88.65 888,-76 882.7,-60.77 878.72,-42.89 876.21,-29.73"/>
<polygon fill="midnightblue" stroke="midnightblue" points="879.59,-28.8 874.37,-19.58 872.7,-30.04 879.59,-28.8"/>
</g>
<!-- Node17 -->
<g id="node17" class="node">
<title>Node17</title>
<g id="a_node17"><a xlink:href="../../d6/d64/R3BTpcMappedData_8h.html" target="_top" xlink:title=" ">
<polygon fill="white" stroke="black" points="897,-56.5 897,-75.5 1013,-75.5 1013,-56.5 897,-56.5"/>
<text text-anchor="middle" x="955" y="-63.5" font-family="Helvetica" font-size="10.00">R3BTpcMappedData.h</text>
</a>
</g>
</g>
<!-- Node1&#45;&gt;Node17 -->
<g id="edge16" class="edge">
<title>Node1&#45;&gt;Node17</title>
<path fill="none" stroke="midnightblue" d="M922.19,-112.4C928.37,-103.84 936.3,-92.87 942.82,-83.86"/>
<polygon fill="midnightblue" stroke="midnightblue" points="945.72,-85.81 948.74,-75.66 940.05,-81.71 945.72,-85.81"/>
</g>
<!-- Node18 -->
<g id="node18" class="node">
<title>Node18</title>
<g id="a_node18"><a xlink:title=" ">
<polygon fill="white" stroke="#bfbfbf" points="1031,-56.5 1031,-75.5 1115,-75.5 1115,-56.5 1031,-56.5"/>
<text text-anchor="middle" x="1073" y="-63.5" font-family="Helvetica" font-size="10.00">TClonesArray.h</text>
</a>
</g>
</g>
<!-- Node1&#45;&gt;Node18 -->
<g id="edge18" class="edge">
<title>Node1&#45;&gt;Node18</title>
<path fill="none" stroke="midnightblue" d="M950.15,-112.4C977.53,-102.28 1014.04,-88.79 1040.13,-79.15"/>
<polygon fill="midnightblue" stroke="midnightblue" points="1041.41,-82.41 1049.57,-75.66 1038.98,-75.84 1041.41,-82.41"/>
</g>
<!-- Node19 -->
<g id="node19" class="node">
<title>Node19</title>
<g id="a_node19"><a xlink:title=" ">
<polygon fill="white" stroke="#bfbfbf" points="1133,-56.5 1133,-75.5 1175,-75.5 1175,-56.5 1133,-56.5"/>
<text text-anchor="middle" x="1154" y="-63.5" font-family="Helvetica" font-size="10.00">TF1.h</text>
</a>
</g>
</g>
<!-- Node1&#45;&gt;Node19 -->
<g id="edge19" class="edge">
<title>Node1&#45;&gt;Node19</title>
<path fill="none" stroke="midnightblue" d="M975.32,-112.42C1015.19,-103.32 1067.93,-90.87 1122.83,-76.21"/>
<polygon fill="midnightblue" stroke="midnightblue" points="1123.99,-79.52 1132.74,-73.54 1122.17,-72.76 1123.99,-79.52"/>
</g>
<!-- Node20 -->
<g id="node20" class="node">
<title>Node20</title>
<g id="a_node20"><a xlink:title=" ">
<polygon fill="white" stroke="#bfbfbf" points="1193,-56.5 1193,-75.5 1279,-75.5 1279,-56.5 1193,-56.5"/>
<text text-anchor="middle" x="1236" y="-63.5" font-family="Helvetica" font-size="10.00">TGeoManager.h</text>
</a>
</g>
</g>
<!-- Node1&#45;&gt;Node20 -->
<g id="edge20" class="edge">
<title>Node1&#45;&gt;Node20</title>
<path fill="none" stroke="midnightblue" d="M986.74,-112.77C1046.78,-101.75 1129.63,-86.53 1183.01,-76.73"/>
<polygon fill="midnightblue" stroke="midnightblue" points="1183.74,-80.15 1192.95,-74.91 1182.48,-73.27 1183.74,-80.15"/>
</g>
<!-- Node21 -->
<g id="node21" class="node">
<title>Node21</title>
<g id="a_node21"><a xlink:title=" ">
<polygon fill="white" stroke="#bfbfbf" points="1297.5,-56.5 1297.5,-75.5 1354.5,-75.5 1354.5,-56.5 1297.5,-56.5"/>
<text text-anchor="middle" x="1326" y="-63.5" font-family="Helvetica" font-size="10.00">TGraph.h</text>
</a>
</g>
</g>
<!-- Node1&#45;&gt;Node21 -->
<g id="edge21" class="edge">
<title>Node1&#45;&gt;Node21</title>
<path fill="none" stroke="midnightblue" d="M986.54,-118.69C1060.42,-110.45 1176.98,-96.11 1287.45,-75.93"/>
<polygon fill="midnightblue" stroke="midnightblue" points="1288.23,-79.34 1297.43,-74.09 1286.96,-72.46 1288.23,-79.34"/>
</g>
<!-- Node22 -->
<g id="node22" class="node">
<title>Node22</title>
<g id="a_node22"><a xlink:title=" ">
<polygon fill="white" stroke="#bfbfbf" points="1372.5,-56.5 1372.5,-75.5 1425.5,-75.5 1425.5,-56.5 1372.5,-56.5"/>
<text text-anchor="middle" x="1399" y="-63.5" font-family="Helvetica" font-size="10.00">TMath.h</text>
</a>
</g>
</g>
<!-- Node1&#45;&gt;Node22 -->
<g id="edge23" class="edge">
<title>Node1&#45;&gt;Node22</title>
<path fill="none" stroke="midnightblue" d="M986.85,-121.37C1074.78,-114.62 1225.11,-100.82 1362.47,-76.07"/>
<polygon fill="midnightblue" stroke="midnightblue" points="1363.12,-79.51 1372.33,-74.27 1361.87,-72.62 1363.12,-79.51"/>
</g>
<!-- Node23 -->
<g id="node23" class="node">
<title>Node23</title>
<g id="a_node23"><a xlink:title=" ">
<polygon fill="white" stroke="#bfbfbf" points="1443.5,-56.5 1443.5,-75.5 1516.5,-75.5 1516.5,-56.5 1443.5,-56.5"/>
<text text-anchor="middle" x="1480" y="-63.5" font-family="Helvetica" font-size="10.00">TSpectrum.h</text>
</a>
</g>
</g>
<!-- Node1&#45;&gt;Node23 -->
<g id="edge25" class="edge">
<title>Node1&#45;&gt;Node23</title>
<path fill="none" stroke="midnightblue" d="M986.77,-121.67C1086.45,-114.7 1268.52,-100.1 1432.91,-76.19"/>
<polygon fill="midnightblue" stroke="midnightblue" points="1433.83,-79.59 1443.22,-74.67 1432.81,-72.66 1433.83,-79.59"/>
</g>
<!-- Node24 -->
<g id="node24" class="node">
<title>Node24</title>
<g id="a_node24"><a xlink:title=" ">
<polygon fill="white" stroke="#bfbfbf" points="1535,-56.5 1535,-75.5 1589,-75.5 1589,-56.5 1535,-56.5"/>
<text text-anchor="middle" x="1562" y="-63.5" font-family="Helvetica" font-size="10.00">iostream</text>
</a>
</g>
</g>
<!-- Node1&#45;&gt;Node24 -->
<g id="edge26" class="edge">
<title>Node1&#45;&gt;Node24</title>
<path fill="none" stroke="midnightblue" d="M986.67,-124.28C1100.81,-120.02 1325.52,-108.22 1524.9,-75.91"/>
<polygon fill="midnightblue" stroke="midnightblue" points="1525.67,-79.33 1534.97,-74.26 1524.54,-72.42 1525.67,-79.33"/>
</g>
<!-- Node25 -->
<g id="node25" class="node">
<title>Node25</title>
<g id="a_node25"><a xlink:title=" ">
<polygon fill="white" stroke="#bfbfbf" points="1607,-56.5 1607,-75.5 1655,-75.5 1655,-56.5 1607,-56.5"/>
<text text-anchor="middle" x="1631" y="-63.5" font-family="Helvetica" font-size="10.00">stdlib.h</text>
</a>
</g>
</g>
<!-- Node1&#45;&gt;Node25 -->
<g id="edge27" class="edge">
<title>Node1&#45;&gt;Node25</title>
<path fill="none" stroke="midnightblue" d="M986.67,-125.7C1111.46,-123.33 1370.18,-114.03 1596.88,-75.85"/>
<polygon fill="midnightblue" stroke="midnightblue" points="1597.7,-79.26 1606.97,-74.13 1596.52,-72.36 1597.7,-79.26"/>
</g>
<!-- Node3 -->
<g id="node3" class="node">
<title>Node3</title>
<g id="a_node3"><a xlink:title=" ">
<polygon fill="white" stroke="#bfbfbf" points="0,-0.5 0,-19.5 62,-19.5 62,-0.5 0,-0.5"/>
<text text-anchor="middle" x="31" y="-7.5" font-family="Helvetica" font-size="10.00">FairTask.h</text>
</a>
</g>
</g>
<!-- Node2&#45;&gt;Node3 -->
<g id="edge2" class="edge">
<title>Node2&#45;&gt;Node3</title>
<path fill="none" stroke="midnightblue" d="M87.24,-56.32C77.23,-48.26 62.11,-36.08 50.07,-26.37"/>
<polygon fill="midnightblue" stroke="midnightblue" points="51.94,-23.38 41.96,-19.83 47.55,-28.83 51.94,-23.38"/>
</g>
<!-- Node2&#45;&gt;Node4 -->
<g id="edge3" class="edge">
<title>Node2&#45;&gt;Node4</title>
<path fill="none" stroke="midnightblue" d="M111.98,-56.32C125.55,-47.9 146.38,-34.97 162.32,-25.07"/>
<polygon fill="midnightblue" stroke="midnightblue" points="164.41,-27.9 171.06,-19.65 160.71,-21.95 164.41,-27.9"/>
</g>
<!-- Node5 -->
<g id="node5" class="node">
<title>Node5</title>
<g id="a_node5"><a xlink:title=" ">
<polygon fill="white" stroke="#bfbfbf" points="80.5,-0.5 80.5,-19.5 129.5,-19.5 129.5,-0.5 80.5,-0.5"/>
<text text-anchor="middle" x="105" y="-7.5" font-family="Helvetica" font-size="10.00">TH2F.h</text>
</a>
</g>
</g>
<!-- Node2&#45;&gt;Node5 -->
<g id="edge4" class="edge">
<title>Node2&#45;&gt;Node5</title>
<path fill="none" stroke="midnightblue" d="M99.16,-56.08C100.08,-48.93 101.42,-38.64 102.58,-29.69"/>
<polygon fill="midnightblue" stroke="midnightblue" points="106.05,-30.12 103.87,-19.75 99.11,-29.22 106.05,-30.12"/>
</g>
<!-- Node12 -->
<g id="node12" class="node">
<title>Node12</title>
<g id="a_node12"><a xlink:title=" ">
<polygon fill="white" stroke="#bfbfbf" points="550,-0.5 550,-19.5 654,-19.5 654,-0.5 550,-0.5"/>
<text text-anchor="middle" x="602" y="-7.5" font-family="Helvetica" font-size="10.00">FairParGenericSet.h</text>
</a>
</g>
</g>
<!-- Node11&#45;&gt;Node12 -->
<g id="edge11" class="edge">
<title>Node11&#45;&gt;Node12</title>
<path fill="none" stroke="midnightblue" d="M765.26,-56.44C732.06,-47.2 679.01,-32.44 642.44,-22.26"/>
<polygon fill="midnightblue" stroke="midnightblue" points="643.17,-18.83 632.6,-19.52 641.29,-25.57 643.17,-18.83"/>
</g>
<!-- Node13 -->
<g id="node13" class="node">
<title>Node13</title>
<g id="a_node13"><a xlink:title=" ">
<polygon fill="white" stroke="#bfbfbf" points="672.5,-0.5 672.5,-19.5 731.5,-19.5 731.5,-0.5 672.5,-0.5"/>
<text text-anchor="middle" x="702" y="-7.5" font-family="Helvetica" font-size="10.00">TArrayF.h</text>
</a>
</g>
</g>
<!-- Node11&#45;&gt;Node13 -->
<g id="edge12" class="edge">
<title>Node11&#45;&gt;Node13</title>
<path fill="none" stroke="midnightblue" d="M780.9,-56.32C766.1,-47.82 743.31,-34.73 726.02,-24.8"/>
<polygon fill="midnightblue" stroke="midnightblue" points="727.48,-21.6 717.07,-19.65 723.99,-27.67 727.48,-21.6"/>
</g>
<!-- Node11&#45;&gt;Node14 -->
<g id="edge13" class="edge">
<title>Node11&#45;&gt;Node14</title>
<path fill="none" stroke="midnightblue" d="M808.37,-56.32C820.16,-48.06 838.13,-35.45 852.14,-25.63"/>
<polygon fill="midnightblue" stroke="midnightblue" points="854.48,-28.26 860.66,-19.65 850.46,-22.53 854.48,-28.26"/>
</g>
<!-- Node15 -->
<g id="node15" class="node">
<title>Node15</title>
<g id="a_node15"><a xlink:title=" ">
<polygon fill="white" stroke="#bfbfbf" points="925.5,-0.5 925.5,-19.5 984.5,-19.5 984.5,-0.5 925.5,-0.5"/>
<text text-anchor="middle" x="955" y="-7.5" font-family="Helvetica" font-size="10.00">TObject.h</text>
</a>
</g>
</g>
<!-- Node11&#45;&gt;Node15 -->
<g id="edge14" class="edge">
<title>Node11&#45;&gt;Node15</title>
<path fill="none" stroke="midnightblue" d="M821.19,-56.44C847.94,-47.36 890.4,-32.94 920.31,-22.78"/>
<polygon fill="midnightblue" stroke="midnightblue" points="921.58,-26.05 929.92,-19.52 919.33,-19.42 921.58,-26.05"/>
</g>
<!-- Node16 -->
<g id="node16" class="node">
<title>Node16</title>
<g id="a_node16"><a xlink:title=" ">
<polygon fill="white" stroke="#bfbfbf" points="749.5,-0.5 749.5,-19.5 820.5,-19.5 820.5,-0.5 749.5,-0.5"/>
<text text-anchor="middle" x="785" y="-7.5" font-family="Helvetica" font-size="10.00">TObjString.h</text>
</a>
</g>
</g>
<!-- Node11&#45;&gt;Node16 -->
<g id="edge15" class="edge">
<title>Node11&#45;&gt;Node16</title>
<path fill="none" stroke="midnightblue" d="M794.18,-56.08C792.73,-48.93 790.63,-38.64 788.81,-29.69"/>
<polygon fill="midnightblue" stroke="midnightblue" points="792.21,-28.85 786.78,-19.75 785.35,-30.25 792.21,-28.85"/>
</g>
<!-- Node17&#45;&gt;Node15 -->
<g id="edge17" class="edge">
<title>Node17&#45;&gt;Node15</title>
<path fill="none" stroke="midnightblue" d="M955,-56.08C955,-49.01 955,-38.86 955,-29.99"/>
<polygon fill="midnightblue" stroke="midnightblue" points="958.5,-29.75 955,-19.75 951.5,-29.75 958.5,-29.75"/>
</g>
</g>
</svg>
