<?xml version="1.0" encoding="UTF-8" standalone="no"?>
<!DOCTYPE svg PUBLIC "-//W3C//DTD SVG 1.1//EN"
 "http://www.w3.org/Graphics/SVG/1.1/DTD/svg11.dtd">
<!-- Generated by graphviz version 2.44.0 (0)
 -->
<!-- Title: frsdetectors/R3BTpcCal2Hit.cxx Pages: 1 -->
<!--zoomable 196 -->
<svg id="main" version="1.1" xmlns="http://www.w3.org/2000/svg" xmlns:xlink="http://www.w3.org/1999/xlink" xml:space="preserve" onload="init(evt)">
<style type="text/css"><![CDATA[
.edge:hover path { stroke: red; }
.edge:hover polygon { stroke: red; fill: red; }
]]></style>
<script type="text/javascript"><![CDATA[
var edges = document.getElementsByTagName('g');
if (edges && edges.length) {
  for (var i=0;i<edges.length;i++) {
    if (edges[i].id.substr(0,4)=='edge') {
      edges[i].setAttribute('class','edge');
    }
  }
}
]]></script>
        <defs>
                <circle id="rim" cx="0" cy="0" r="7"/>
                <circle id="rim2" cx="0" cy="0" r="3.5"/>
                <g id="zoomPlus">
                        <use xlink:href="#rim" fill="#404040">
                                <set attributeName="fill" to="#808080" begin="zoomplus.mouseover" end="zoomplus.mouseout"/>
                        </use>
                        <path d="M-4,0h8M0,-4v8" fill="none" stroke="white" stroke-width="1.5" pointer-events="none"/>
                </g>
                <g id="zoomMin">
                        <use xlink:href="#rim" fill="#404040">
                                <set attributeName="fill" to="#808080" begin="zoomminus.mouseover" end="zoomminus.mouseout"/>
                        </use>
                        <path d="M-4,0h8" fill="none" stroke="white" stroke-width="1.5" pointer-events="none"/>
                </g>
                <g id="dirArrow">
                        <path fill="none" stroke="white" stroke-width="1.5" d="M0,-3.0v7 M-2.5,-0.5L0,-3.0L2.5,-0.5"/>
                </g>
               <g id="resetDef">
                       <use xlink:href="#rim2" fill="#404040">
                               <set attributeName="fill" to="#808080" begin="reset.mouseover" end="reset.mouseout"/>
                       </use>
               </g>
        </defs>

<script type="text/javascript">
var viewWidth = 1001;
var viewHeight = 196;
var sectionId = 'dynsection-0';
</script>
<script xlink:href="../../svgpan.js"/>
<svg id="graph" class="graph">
<g id="viewport">
<title>frsdetectors/R3BTpcCal2Hit.cxx</title>
<polygon fill="white" stroke="transparent" points="-4,4 -4,-192 996.5,-192 996.5,4 -4,4"/>
<!-- Node1 -->
<g id="node1" class="node">
<title>Node1</title>
<g id="a_node1"><a xlink:title=" ">
<polygon fill="#bfbfbf" stroke="black" points="350,-168.5 350,-187.5 509,-187.5 509,-168.5 350,-168.5"/>
<text text-anchor="middle" x="429.5" y="-175.5" font-family="Helvetica" font-size="10.00">frsdetectors/R3BTpcCal2Hit.cxx</text>
</a>
</g>
</g>
<!-- Node2 -->
<g id="node2" class="node">
<title>Node2</title>
<g id="a_node2"><a xlink:title=" ">
<polygon fill="white" stroke="#bfbfbf" points="23.5,-112.5 23.5,-131.5 107.5,-131.5 107.5,-112.5 23.5,-112.5"/>
<text text-anchor="middle" x="65.5" y="-119.5" font-family="Helvetica" font-size="10.00">TClonesArray.h</text>
</a>
</g>
</g>
<!-- Node1&#45;&gt;Node2 -->
<g id="edge1" class="edge">
<title>Node1&#45;&gt;Node2</title>
<path fill="none" stroke="midnightblue" d="M366.16,-168.5C305.1,-160.16 209.82,-146.8 117.58,-132.13"/>
<polygon fill="midnightblue" stroke="midnightblue" points="117.93,-128.64 107.51,-130.52 116.83,-135.56 117.93,-128.64"/>
</g>
<!-- Node3 -->
<g id="node3" class="node">
<title>Node3</title>
<g id="a_node3"><a xlink:title=" ">
<polygon fill="white" stroke="#bfbfbf" points="126,-112.5 126,-131.5 179,-131.5 179,-112.5 126,-112.5"/>
<text text-anchor="middle" x="152.5" y="-119.5" font-family="Helvetica" font-size="10.00">TMath.h</text>
</a>
</g>
</g>
<!-- Node1&#45;&gt;Node3 -->
<g id="edge2" class="edge">
<title>Node1&#45;&gt;Node3</title>
<path fill="none" stroke="midnightblue" d="M382.86,-168.5C335.19,-159.72 259.08,-145.45 193.5,-132 192.21,-131.74 190.91,-131.47 189.59,-131.19"/>
<polygon fill="midnightblue" stroke="midnightblue" points="189.89,-127.68 179.38,-129.01 188.43,-134.52 189.89,-127.68"/>
</g>
<!-- Node4 -->
<g id="node4" class="node">
<title>Node4</title>
<g id="a_node4"><a xlink:title=" ">
<polygon fill="white" stroke="#bfbfbf" points="0,-56.5 0,-75.5 67,-75.5 67,-56.5 0,-56.5"/>
<text text-anchor="middle" x="33.5" y="-63.5" font-family="Helvetica" font-size="10.00">TRandom.h</text>
</a>
</g>
</g>
<!-- Node1&#45;&gt;Node4 -->
<g id="edge3" class="edge">
<title>Node1&#45;&gt;Node4</title>
<path fill="none" stroke="midnightblue" d="M372.84,-168.44C331.5,-161.24 274.55,-149.32 226.5,-132 208.17,-125.39 205.6,-119.21 187.5,-112 151.07,-97.49 108.14,-85.33 76.88,-77.33"/>
<polygon fill="midnightblue" stroke="midnightblue" points="77.71,-73.93 67.16,-74.87 76,-80.71 77.71,-73.93"/>
</g>
<!-- Node5 -->
<g id="node5" class="node">
<title>Node5</title>
<g id="a_node5"><a xlink:title=" ">
<polygon fill="white" stroke="#bfbfbf" points="530,-112.5 530,-131.5 601,-131.5 601,-112.5 530,-112.5"/>
<text text-anchor="middle" x="565.5" y="-119.5" font-family="Helvetica" font-size="10.00">FairLogger.h</text>
</a>
</g>
</g>
<!-- Node1&#45;&gt;Node5 -->
<g id="edge4" class="edge">
<title>Node1&#45;&gt;Node5</title>
<path fill="none" stroke="midnightblue" d="M451.05,-168.44C473.53,-159.52 508.99,-145.44 534.48,-135.32"/>
<polygon fill="midnightblue" stroke="midnightblue" points="536.05,-138.46 544.05,-131.52 533.47,-131.95 536.05,-138.46"/>
</g>
<!-- Node6 -->
<g id="node6" class="node">
<title>Node6</title>
<g id="a_node6"><a xlink:title=" ">
<polygon fill="white" stroke="#bfbfbf" points="619.5,-112.5 619.5,-131.5 719.5,-131.5 719.5,-112.5 619.5,-112.5"/>
<text text-anchor="middle" x="669.5" y="-119.5" font-family="Helvetica" font-size="10.00">FairRootManager.h</text>
</a>
</g>
</g>
<!-- Node1&#45;&gt;Node6 -->
<g id="edge5" class="edge">
<title>Node1&#45;&gt;Node6</title>
<path fill="none" stroke="midnightblue" d="M467.53,-168.44C509.31,-159.04 576.48,-143.93 621.77,-133.74"/>
<polygon fill="midnightblue" stroke="midnightblue" points="622.66,-137.13 631.65,-131.52 621.12,-130.3 622.66,-137.13"/>
</g>
<!-- Node7 -->
<g id="node7" class="node">
<title>Node7</title>
<g id="a_node7"><a xlink:title=" ">
<polygon fill="white" stroke="#bfbfbf" points="738,-112.5 738,-131.5 815,-131.5 815,-112.5 738,-112.5"/>
<text text-anchor="middle" x="776.5" y="-119.5" font-family="Helvetica" font-size="10.00">FairRunAna.h</text>
</a>
</g>
</g>
<!-- Node1&#45;&gt;Node7 -->
<g id="edge6" class="edge">
<title>Node1&#45;&gt;Node7</title>
<path fill="none" stroke="midnightblue" d="M490.59,-168.46C548.9,-160.16 639.49,-146.88 727.83,-132.06"/>
<polygon fill="midnightblue" stroke="midnightblue" points="728.47,-135.5 737.75,-130.39 727.31,-128.6 728.47,-135.5"/>
</g>
<!-- Node8 -->
<g id="node8" class="node">
<title>Node8</title>
<g id="a_node8"><a xlink:title=" ">
<polygon fill="white" stroke="#bfbfbf" points="833,-112.5 833,-131.5 924,-131.5 924,-112.5 833,-112.5"/>
<text text-anchor="middle" x="878.5" y="-119.5" font-family="Helvetica" font-size="10.00">FairRuntimeDb.h</text>
</a>
</g>
</g>
<!-- Node1&#45;&gt;Node8 -->
<g id="edge7" class="edge">
<title>Node1&#45;&gt;Node8</title>
<path fill="none" stroke="midnightblue" d="M509.09,-169.15C586.71,-161.22 708.35,-148.06 822.87,-132.17"/>
<polygon fill="midnightblue" stroke="midnightblue" points="823.44,-135.63 832.86,-130.78 822.47,-128.69 823.44,-135.63"/>
</g>
<!-- Node9 -->
<g id="node9" class="node">
<title>Node9</title>
<g id="a_node9"><a xlink:title=" ">
<polygon fill="white" stroke="#bfbfbf" points="942.5,-112.5 942.5,-131.5 992.5,-131.5 992.5,-112.5 942.5,-112.5"/>
<text text-anchor="middle" x="967.5" y="-119.5" font-family="Helvetica" font-size="10.00">iomanip</text>
</a>
</g>
</g>
<!-- Node1&#45;&gt;Node9 -->
<g id="edge8" class="edge">
<title>Node1&#45;&gt;Node9</title>
<path fill="none" stroke="midnightblue" d="M509.05,-174.07C606.69,-169.54 777.37,-158.59 932.18,-131.94"/>
<polygon fill="midnightblue" stroke="midnightblue" points="933.11,-135.33 942.35,-130.17 931.9,-128.44 933.11,-135.33"/>
</g>
<!-- Node10 -->
<g id="node10" class="node">
<title>Node10</title>
<g id="a_node10"><a xlink:href="../../d5/de4/R3BTpcCal2Hit_8h.html" target="_top" xlink:title=" ">
<polygon fill="white" stroke="black" points="235.5,-112.5 235.5,-131.5 327.5,-131.5 327.5,-112.5 235.5,-112.5"/>
<text text-anchor="middle" x="281.5" y="-119.5" font-family="Helvetica" font-size="10.00">R3BTpcCal2Hit.h</text>
</a>
</g>
</g>
<!-- Node1&#45;&gt;Node10 -->
<g id="edge9" class="edge">
<title>Node1&#45;&gt;Node10</title>
<path fill="none" stroke="midnightblue" d="M406.05,-168.44C381.37,-159.44 342.31,-145.19 314.52,-135.05"/>
<polygon fill="midnightblue" stroke="midnightblue" points="315.44,-131.66 304.84,-131.52 313.04,-138.23 315.44,-131.66"/>
</g>
<!-- Node12 -->
<g id="node12" class="node">
<title>Node12</title>
<g id="a_node12"><a xlink:href="../../db/d53/R3BTpcCalData_8h.html" target="_top" xlink:title=" ">
<polygon fill="white" stroke="black" points="346,-56.5 346,-75.5 441,-75.5 441,-56.5 346,-56.5"/>
<text text-anchor="middle" x="393.5" y="-63.5" font-family="Helvetica" font-size="10.00">R3BTpcCalData.h</text>
</a>
</g>
</g>
<!-- Node1&#45;&gt;Node12 -->
<g id="edge17" class="edge">
<title>Node1&#45;&gt;Node12</title>
<path fill="none" stroke="midnightblue" d="M426.04,-168.44C422.46,-159.44 416.79,-144.83 412.5,-132 407.31,-116.49 402.16,-98.65 398.53,-85.59"/>
<polygon fill="midnightblue" stroke="midnightblue" points="401.89,-84.62 395.87,-75.9 395.14,-86.47 401.89,-84.62"/>
</g>
<!-- Node14 -->
<g id="node14" class="node">
<title>Node14</title>
<g id="a_node14"><a xlink:href="../../d5/dce/R3BTpcHitData_8h.html" target="_top" xlink:title=" ">
<polygon fill="white" stroke="black" points="233.5,-56.5 233.5,-75.5 327.5,-75.5 327.5,-56.5 233.5,-56.5"/>
<text text-anchor="middle" x="280.5" y="-63.5" font-family="Helvetica" font-size="10.00">R3BTpcHitData.h</text>
</a>
</g>
</g>
<!-- Node1&#45;&gt;Node14 -->
<g id="edge24" class="edge">
<title>Node1&#45;&gt;Node14</title>
<path fill="none" stroke="midnightblue" d="M417.81,-168.37C392.35,-149.57 331.66,-104.77 300.19,-81.53"/>
<polygon fill="midnightblue" stroke="midnightblue" points="302.26,-78.72 292.14,-75.59 298.1,-84.35 302.26,-78.72"/>
</g>
<!-- Node16 -->
<g id="node16" class="node">
<title>Node16</title>
<g id="a_node16"><a xlink:href="../../de/d16/R3BTpcCalPar_8h.html" target="_top" xlink:title=" ">
<polygon fill="white" stroke="black" points="421.5,-112.5 421.5,-131.5 511.5,-131.5 511.5,-112.5 421.5,-112.5"/>
<text text-anchor="middle" x="466.5" y="-119.5" font-family="Helvetica" font-size="10.00">R3BTpcCalPar.h</text>
</a>
</g>
</g>
<!-- Node1&#45;&gt;Node16 -->
<g id="edge18" class="edge">
<title>Node1&#45;&gt;Node16</title>
<path fill="none" stroke="midnightblue" d="M435.61,-168.08C440.78,-160.53 448.35,-149.49 454.69,-140.23"/>
<polygon fill="midnightblue" stroke="midnightblue" points="457.74,-141.98 460.5,-131.75 451.96,-138.02 457.74,-141.98"/>
</g>
<!-- Node10&#45;&gt;Node4 -->
<g id="edge16" class="edge">
<title>Node10&#45;&gt;Node4</title>
<path fill="none" stroke="midnightblue" d="M242.2,-112.44C197.16,-102.64 123.55,-86.61 76.86,-76.44"/>
<polygon fill="midnightblue" stroke="midnightblue" points="77.56,-73.01 67.05,-74.3 76.07,-79.85 77.56,-73.01"/>
</g>
<!-- Node11 -->
<g id="node11" class="node">
<title>Node11</title>
<g id="a_node11"><a xlink:title=" ">
<polygon fill="white" stroke="#bfbfbf" points="85.5,-56.5 85.5,-75.5 147.5,-75.5 147.5,-56.5 85.5,-56.5"/>
<text text-anchor="middle" x="116.5" y="-63.5" font-family="Helvetica" font-size="10.00">FairTask.h</text>
</a>
</g>
</g>
<!-- Node10&#45;&gt;Node11 -->
<g id="edge10" class="edge">
<title>Node10&#45;&gt;Node11</title>
<path fill="none" stroke="midnightblue" d="M255.36,-112.44C227.48,-103.32 183.15,-88.81 152.1,-78.65"/>
<polygon fill="midnightblue" stroke="midnightblue" points="153.12,-75.3 142.52,-75.52 150.94,-81.95 153.12,-75.3"/>
</g>
<!-- Node10&#45;&gt;Node12 -->
<g id="edge11" class="edge">
<title>Node10&#45;&gt;Node12</title>
<path fill="none" stroke="midnightblue" d="M299.49,-112.32C317.54,-103.62 345.55,-90.12 366.3,-80.11"/>
<polygon fill="midnightblue" stroke="midnightblue" points="368.06,-83.15 375.55,-75.65 365.02,-76.84 368.06,-83.15"/>
</g>
<!-- Node10&#45;&gt;Node14 -->
<g id="edge13" class="edge">
<title>Node10&#45;&gt;Node14</title>
<path fill="none" stroke="midnightblue" d="M281.33,-112.08C281.2,-105.01 281.02,-94.86 280.85,-85.99"/>
<polygon fill="midnightblue" stroke="midnightblue" points="284.35,-85.68 280.66,-75.75 277.35,-85.81 284.35,-85.68"/>
</g>
<!-- Node15 -->
<g id="node15" class="node">
<title>Node15</title>
<g id="a_node15"><a xlink:title=" ">
<polygon fill="white" stroke="#bfbfbf" points="166,-56.5 166,-75.5 215,-75.5 215,-56.5 166,-56.5"/>
<text text-anchor="middle" x="190.5" y="-63.5" font-family="Helvetica" font-size="10.00">TH1F.h</text>
</a>
</g>
</g>
<!-- Node10&#45;&gt;Node15 -->
<g id="edge15" class="edge">
<title>Node10&#45;&gt;Node15</title>
<path fill="none" stroke="midnightblue" d="M266.88,-112.32C252.55,-103.82 230.49,-90.73 213.75,-80.8"/>
<polygon fill="midnightblue" stroke="midnightblue" points="215.47,-77.75 205.08,-75.65 211.9,-83.77 215.47,-77.75"/>
</g>
<!-- Node13 -->
<g id="node13" class="node">
<title>Node13</title>
<g id="a_node13"><a xlink:title=" ">
<polygon fill="white" stroke="#bfbfbf" points="364,-0.5 364,-19.5 423,-19.5 423,-0.5 364,-0.5"/>
<text text-anchor="middle" x="393.5" y="-7.5" font-family="Helvetica" font-size="10.00">TObject.h</text>
</a>
</g>
</g>
<!-- Node12&#45;&gt;Node13 -->
<g id="edge12" class="edge">
<title>Node12&#45;&gt;Node13</title>
<path fill="none" stroke="midnightblue" d="M393.5,-56.08C393.5,-49.01 393.5,-38.86 393.5,-29.99"/>
<polygon fill="midnightblue" stroke="midnightblue" points="397,-29.75 393.5,-19.75 390,-29.75 397,-29.75"/>
</g>
<!-- Node14&#45;&gt;Node13 -->
<g id="edge14" class="edge">
<title>Node14&#45;&gt;Node13</title>
<path fill="none" stroke="midnightblue" d="M298.41,-56.44C316.75,-47.68 345.51,-33.94 366.59,-23.86"/>
<polygon fill="midnightblue" stroke="midnightblue" points="368.17,-26.99 375.68,-19.52 365.15,-20.67 368.17,-26.99"/>
</g>
<!-- Node16&#45;&gt;Node13 -->
<g id="edge22" class="edge">
<title>Node16&#45;&gt;Node13</title>
<path fill="none" stroke="midnightblue" d="M465.95,-112.31C464.77,-99.15 461.04,-73.82 449.5,-56 441.42,-43.53 428.73,-32.92 417.47,-25.14"/>
<polygon fill="midnightblue" stroke="midnightblue" points="419.15,-22.06 408.87,-19.52 415.33,-27.92 419.15,-22.06"/>
</g>
<!-- Node17 -->
<g id="node17" class="node">
<title>Node17</title>
<g id="a_node17"><a xlink:title=" ">
<polygon fill="white" stroke="#bfbfbf" points="497.5,-56.5 497.5,-75.5 601.5,-75.5 601.5,-56.5 497.5,-56.5"/>
<text text-anchor="middle" x="549.5" y="-63.5" font-family="Helvetica" font-size="10.00">FairParGenericSet.h</text>
</a>
</g>
</g>
<!-- Node16&#45;&gt;Node17 -->
<g id="edge19" class="edge">
<title>Node16&#45;&gt;Node17</title>
<path fill="none" stroke="midnightblue" d="M479.84,-112.32C492.66,-103.98 512.28,-91.21 527.44,-81.35"/>
<polygon fill="midnightblue" stroke="midnightblue" points="529.72,-84.04 536.2,-75.65 525.91,-78.17 529.72,-84.04"/>
</g>
<!-- Node18 -->
<g id="node18" class="node">
<title>Node18</title>
<g id="a_node18"><a xlink:title=" ">
<polygon fill="white" stroke="#bfbfbf" points="620,-56.5 620,-75.5 679,-75.5 679,-56.5 620,-56.5"/>
<text text-anchor="middle" x="649.5" y="-63.5" font-family="Helvetica" font-size="10.00">TArrayF.h</text>
</a>
</g>
</g>
<!-- Node16&#45;&gt;Node18 -->
<g id="edge20" class="edge">
<title>Node16&#45;&gt;Node18</title>
<path fill="none" stroke="midnightblue" d="M495.5,-112.44C526.68,-103.24 576.43,-88.56 610.91,-78.39"/>
<polygon fill="midnightblue" stroke="midnightblue" points="612.04,-81.7 620.64,-75.52 610.06,-74.99 612.04,-81.7"/>
</g>
<!-- Node19 -->
<g id="node19" class="node">
<title>Node19</title>
<g id="a_node19"><a xlink:title=" ">
<polygon fill="white" stroke="#bfbfbf" points="697.5,-56.5 697.5,-75.5 765.5,-75.5 765.5,-56.5 697.5,-56.5"/>
<text text-anchor="middle" x="731.5" y="-63.5" font-family="Helvetica" font-size="10.00">TObjArray.h</text>
</a>
</g>
</g>
<!-- Node16&#45;&gt;Node19 -->
<g id="edge21" class="edge">
<title>Node16&#45;&gt;Node19</title>
<path fill="none" stroke="midnightblue" d="M509.08,-112.45C551.68,-103.88 619.38,-90.21 687.23,-76.25"/>
<polygon fill="midnightblue" stroke="midnightblue" points="688.15,-79.64 697.24,-74.19 686.74,-72.78 688.15,-79.64"/>
</g>
<!-- Node20 -->
<g id="node20" class="node">
<title>Node20</title>
<g id="a_node20"><a xlink:title=" ">
<polygon fill="white" stroke="#bfbfbf" points="784,-56.5 784,-75.5 855,-75.5 855,-56.5 784,-56.5"/>
<text text-anchor="middle" x="819.5" y="-63.5" font-family="Helvetica" font-size="10.00">TObjString.h</text>
</a>
</g>
</g>
<!-- Node16&#45;&gt;Node20 -->
<g id="edge23" class="edge">
<title>Node16&#45;&gt;Node20</title>
<path fill="none" stroke="midnightblue" d="M511.51,-113.56C514.89,-113.02 518.25,-112.5 521.5,-112 630.59,-95.31 660.85,-95.14 773.6,-76.07"/>
<polygon fill="midnightblue" stroke="midnightblue" points="774.4,-79.48 783.67,-74.35 773.23,-72.58 774.4,-79.48"/>
</g>
</g>
</svg>
        <g id="navigator" transform="translate(0 0)" fill="#404254">
                <rect fill="#f2f5e9" fill-opacity="0.5" stroke="#606060" stroke-width=".5" x="0" y="0" width="60" height="60"/>
                <use id="zoomplus" xlink:href="#zoomPlus" x="17" y="9" onmousedown="handleZoom(evt,'in')"/>
                <use id="zoomminus" xlink:href="#zoomMin" x="42" y="9" onmousedown="handleZoom(evt,'out')"/>
                <use id="reset" xlink:href="#resetDef" x="30" y="36" onmousedown="handleReset()"/>
                <g id="arrowUp" xlink:href="#dirArrow" transform="translate(30 24)" onmousedown="handlePan(0,-1)">
                  <use xlink:href="#rim" fill="#404040">
                        <set attributeName="fill" to="#808080" begin="arrowUp.mouseover" end="arrowUp.mouseout"/>
                  </use>
                  <path fill="none" stroke="white" stroke-width="1.5" d="M0,-3.0v7 M-2.5,-0.5L0,-3.0L2.5,-0.5"/>
                </g>
                <g id="arrowRight" xlink:href="#dirArrow" transform="rotate(90) translate(36 -43)" onmousedown="handlePan(1,0)">
                  <use xlink:href="#rim" fill="#404040">
                        <set attributeName="fill" to="#808080" begin="arrowRight.mouseover" end="arrowRight.mouseout"/>
                  </use>
                  <path fill="none" stroke="white" stroke-width="1.5" d="M0,-3.0v7 M-2.5,-0.5L0,-3.0L2.5,-0.5"/>
                </g>
                <g id="arrowDown" xlink:href="#dirArrow" transform="rotate(180) translate(-30 -48)" onmousedown="handlePan(0,1)">
                  <use xlink:href="#rim" fill="#404040">
                        <set attributeName="fill" to="#808080" begin="arrowDown.mouseover" end="arrowDown.mouseout"/>
                  </use>
                  <path fill="none" stroke="white" stroke-width="1.5" d="M0,-3.0v7 M-2.5,-0.5L0,-3.0L2.5,-0.5"/>
                </g>
                <g id="arrowLeft" xlink:href="#dirArrow" transform="rotate(270) translate(-36 17)" onmousedown="handlePan(-1,0)">
                  <use xlink:href="#rim" fill="#404040">
                        <set attributeName="fill" to="#808080" begin="arrowLeft.mouseover" end="arrowLeft.mouseout"/>
                  </use>
                  <path fill="none" stroke="white" stroke-width="1.5" d="M0,-3.0v7 M-2.5,-0.5L0,-3.0L2.5,-0.5"/>
                </g>
        </g>
        <svg viewBox="0 0 15 15" width="100%" height="30px" preserveAspectRatio="xMaxYMin meet">
         <g id="arrow_out" transform="scale(0.3 0.3)">
          <a xlink:href="R3BTpcCal2Hit_8cxx__incl_org.svg" target="_base">
           <rect id="button" ry="5" rx="5" y="6" x="6" height="38" width="38"
                fill="#f2f5e9" fill-opacity="0.5" stroke="#606060" stroke-width="1.0"/>
           <path id="arrow"
             d="M 11.500037,31.436501 C 11.940474,20.09759 22.043105,11.32322 32.158766,21.979434 L 37.068811,17.246167 C 37.068811,17.246167 37.088388,32 37.088388,32 L 22.160133,31.978069 C 22.160133,31.978069 26.997745,27.140456 26.997745,27.140456 C 18.528582,18.264221 13.291696,25.230495 11.500037,31.436501 z"
             style="fill:#404040;"/>
          </a>
         </g>
        </svg>
</svg>
