<?xml version="1.0" encoding="UTF-8" standalone="no"?>
<!DOCTYPE svg PUBLIC "-//W3C//DTD SVG 1.1//EN"
 "http://www.w3.org/Graphics/SVG/1.1/DTD/svg11.dtd">
<!-- Generated by graphviz version 2.44.0 (0)
 -->
<!-- Title: frsdetectors/R3BFrsAnaPar.cxx Pages: 1 -->
<!--zoomable 140 -->
<svg id="main" version="1.1" xmlns="http://www.w3.org/2000/svg" xmlns:xlink="http://www.w3.org/1999/xlink" xml:space="preserve" onload="init(evt)">
<style type="text/css"><![CDATA[
.edge:hover path { stroke: red; }
.edge:hover polygon { stroke: red; fill: red; }
]]></style>
<script type="text/javascript"><![CDATA[
var edges = document.getElementsByTagName('g');
if (edges && edges.length) {
  for (var i=0;i<edges.length;i++) {
    if (edges[i].id.substr(0,4)=='edge') {
      edges[i].setAttribute('class','edge');
    }
  }
}
]]></script>
        <defs>
                <circle id="rim" cx="0" cy="0" r="7"/>
                <circle id="rim2" cx="0" cy="0" r="3.5"/>
                <g id="zoomPlus">
                        <use xlink:href="#rim" fill="#404040">
                                <set attributeName="fill" to="#808080" begin="zoomplus.mouseover" end="zoomplus.mouseout"/>
                        </use>
                        <path d="M-4,0h8M0,-4v8" fill="none" stroke="white" stroke-width="1.5" pointer-events="none"/>
                </g>
                <g id="zoomMin">
                        <use xlink:href="#rim" fill="#404040">
                                <set attributeName="fill" to="#808080" begin="zoomminus.mouseover" end="zoomminus.mouseout"/>
                        </use>
                        <path d="M-4,0h8" fill="none" stroke="white" stroke-width="1.5" pointer-events="none"/>
                </g>
                <g id="dirArrow">
                        <path fill="none" stroke="white" stroke-width="1.5" d="M0,-3.0v7 M-2.5,-0.5L0,-3.0L2.5,-0.5"/>
                </g>
               <g id="resetDef">
                       <use xlink:href="#rim2" fill="#404040">
                               <set attributeName="fill" to="#808080" begin="reset.mouseover" end="reset.mouseout"/>
                       </use>
               </g>
        </defs>

<script type="text/javascript">
var viewWidth = 646;
var viewHeight = 140;
var sectionId = 'dynsection-0';
</script>
<script xlink:href="../../svgpan.js"/>
<svg id="graph" class="graph">
<g id="viewport">
<title>frsdetectors/R3BFrsAnaPar.cxx</title>
<polygon fill="white" stroke="transparent" points="-4,4 -4,-136 641.5,-136 641.5,4 -4,4"/>
<!-- Node1 -->
<g id="node1" class="node">
<title>Node1</title>
<g id="a_node1"><a xlink:title=" ">
<polygon fill="#bfbfbf" stroke="black" points="298.5,-112.5 298.5,-131.5 456.5,-131.5 456.5,-112.5 298.5,-112.5"/>
<text text-anchor="middle" x="377.5" y="-119.5" font-family="Helvetica" font-size="10.00">frsdetectors/R3BFrsAnaPar.cxx</text>
</a>
</g>
</g>
<!-- Node2 -->
<g id="node2" class="node">
<title>Node2</title>
<g id="a_node2"><a xlink:href="../../df/d3b/R3BFrsAnaPar_8h.html" target="_top" xlink:title=" ">
<polygon fill="white" stroke="black" points="135.5,-56.5 135.5,-75.5 227.5,-75.5 227.5,-56.5 135.5,-56.5"/>
<text text-anchor="middle" x="181.5" y="-63.5" font-family="Helvetica" font-size="10.00">R3BFrsAnaPar.h</text>
</a>
</g>
</g>
<!-- Node1&#45;&gt;Node2 -->
<g id="edge1" class="edge">
<title>Node1&#45;&gt;Node2</title>
<path fill="none" stroke="midnightblue" d="M346.44,-112.44C312.9,-103.2 259.3,-88.44 222.36,-78.26"/>
<polygon fill="midnightblue" stroke="midnightblue" points="222.98,-74.8 212.41,-75.52 221.12,-81.55 222.98,-74.8"/>
</g>
<!-- Node4 -->
<g id="node4" class="node">
<title>Node4</title>
<g id="a_node4"><a xlink:title=" ">
<polygon fill="white" stroke="#bfbfbf" points="0,-0.5 0,-19.5 59,-19.5 59,-0.5 0,-0.5"/>
<text text-anchor="middle" x="29.5" y="-7.5" font-family="Helvetica" font-size="10.00">TArrayF.h</text>
</a>
</g>
</g>
<!-- Node1&#45;&gt;Node4 -->
<g id="edge9" class="edge">
<title>Node1&#45;&gt;Node4</title>
<path fill="none" stroke="midnightblue" d="M298.29,-115.22C247.7,-109.51 181.51,-98.22 126.5,-76 96.16,-63.74 65.51,-41.1 47.01,-26.04"/>
<polygon fill="midnightblue" stroke="midnightblue" points="49.11,-23.23 39.18,-19.53 44.63,-28.61 49.11,-23.23"/>
</g>
<!-- Node8 -->
<g id="node8" class="node">
<title>Node8</title>
<g id="a_node8"><a xlink:title=" ">
<polygon fill="white" stroke="#bfbfbf" points="246,-56.5 246,-75.5 317,-75.5 317,-56.5 246,-56.5"/>
<text text-anchor="middle" x="281.5" y="-63.5" font-family="Helvetica" font-size="10.00">FairLogger.h</text>
</a>
</g>
</g>
<!-- Node1&#45;&gt;Node8 -->
<g id="edge7" class="edge">
<title>Node1&#45;&gt;Node8</title>
<path fill="none" stroke="midnightblue" d="M362.08,-112.32C346.96,-103.82 323.68,-90.73 306.03,-80.8"/>
<polygon fill="midnightblue" stroke="midnightblue" points="307.32,-77.51 296.89,-75.65 303.89,-83.61 307.32,-77.51"/>
</g>
<!-- Node9 -->
<g id="node9" class="node">
<title>Node9</title>
<g id="a_node9"><a xlink:title=" ">
<polygon fill="white" stroke="#bfbfbf" points="335,-56.5 335,-75.5 420,-75.5 420,-56.5 335,-56.5"/>
<text text-anchor="middle" x="377.5" y="-63.5" font-family="Helvetica" font-size="10.00">FairParamList.h</text>
</a>
</g>
</g>
<!-- Node1&#45;&gt;Node9 -->
<g id="edge8" class="edge">
<title>Node1&#45;&gt;Node9</title>
<path fill="none" stroke="midnightblue" d="M377.5,-112.08C377.5,-105.01 377.5,-94.86 377.5,-85.99"/>
<polygon fill="midnightblue" stroke="midnightblue" points="381,-85.75 377.5,-75.75 374,-85.75 381,-85.75"/>
</g>
<!-- Node10 -->
<g id="node10" class="node">
<title>Node10</title>
<g id="a_node10"><a xlink:title=" ">
<polygon fill="white" stroke="#bfbfbf" points="438,-56.5 438,-75.5 491,-75.5 491,-56.5 438,-56.5"/>
<text text-anchor="middle" x="464.5" y="-63.5" font-family="Helvetica" font-size="10.00">TMath.h</text>
</a>
</g>
</g>
<!-- Node1&#45;&gt;Node10 -->
<g id="edge10" class="edge">
<title>Node1&#45;&gt;Node10</title>
<path fill="none" stroke="midnightblue" d="M391.48,-112.32C405.05,-103.9 425.88,-90.97 441.82,-81.07"/>
<polygon fill="midnightblue" stroke="midnightblue" points="443.91,-83.9 450.56,-75.65 440.21,-77.95 443.91,-83.9"/>
</g>
<!-- Node11 -->
<g id="node11" class="node">
<title>Node11</title>
<g id="a_node11"><a xlink:title=" ">
<polygon fill="white" stroke="#bfbfbf" points="509.5,-56.5 509.5,-75.5 565.5,-75.5 565.5,-56.5 509.5,-56.5"/>
<text text-anchor="middle" x="537.5" y="-63.5" font-family="Helvetica" font-size="10.00">TString.h</text>
</a>
</g>
</g>
<!-- Node1&#45;&gt;Node11 -->
<g id="edge11" class="edge">
<title>Node1&#45;&gt;Node11</title>
<path fill="none" stroke="midnightblue" d="M402.85,-112.44C429.77,-103.36 472.5,-88.94 502.59,-78.78"/>
<polygon fill="midnightblue" stroke="midnightblue" points="503.91,-82.03 512.27,-75.52 501.67,-75.4 503.91,-82.03"/>
</g>
<!-- Node12 -->
<g id="node12" class="node">
<title>Node12</title>
<g id="a_node12"><a xlink:title=" ">
<polygon fill="white" stroke="#bfbfbf" points="583.5,-56.5 583.5,-75.5 637.5,-75.5 637.5,-56.5 583.5,-56.5"/>
<text text-anchor="middle" x="610.5" y="-63.5" font-family="Helvetica" font-size="10.00">iostream</text>
</a>
</g>
</g>
<!-- Node1&#45;&gt;Node12 -->
<g id="edge12" class="edge">
<title>Node1&#45;&gt;Node12</title>
<path fill="none" stroke="midnightblue" d="M416.06,-112.44C453.71,-104.02 512.91,-90.64 573.3,-76.25"/>
<polygon fill="midnightblue" stroke="midnightblue" points="574.48,-79.57 583.39,-73.84 572.85,-72.76 574.48,-79.57"/>
</g>
<!-- Node3 -->
<g id="node3" class="node">
<title>Node3</title>
<g id="a_node3"><a xlink:title=" ">
<polygon fill="white" stroke="#bfbfbf" points="77.5,-0.5 77.5,-19.5 181.5,-19.5 181.5,-0.5 77.5,-0.5"/>
<text text-anchor="middle" x="129.5" y="-7.5" font-family="Helvetica" font-size="10.00">FairParGenericSet.h</text>
</a>
</g>
</g>
<!-- Node2&#45;&gt;Node3 -->
<g id="edge2" class="edge">
<title>Node2&#45;&gt;Node3</title>
<path fill="none" stroke="midnightblue" d="M172.91,-56.08C165.34,-48.22 154.12,-36.57 144.99,-27.08"/>
<polygon fill="midnightblue" stroke="midnightblue" points="147.38,-24.53 137.93,-19.75 142.34,-29.38 147.38,-24.53"/>
</g>
<!-- Node2&#45;&gt;Node4 -->
<g id="edge3" class="edge">
<title>Node2&#45;&gt;Node4</title>
<path fill="none" stroke="midnightblue" d="M157.42,-56.44C131.96,-47.4 91.61,-33.06 63.04,-22.92"/>
<polygon fill="midnightblue" stroke="midnightblue" points="64.07,-19.57 53.47,-19.52 61.72,-26.16 64.07,-19.57"/>
</g>
<!-- Node5 -->
<g id="node5" class="node">
<title>Node5</title>
<g id="a_node5"><a xlink:title=" ">
<polygon fill="white" stroke="#bfbfbf" points="199.5,-0.5 199.5,-19.5 267.5,-19.5 267.5,-0.5 199.5,-0.5"/>
<text text-anchor="middle" x="233.5" y="-7.5" font-family="Helvetica" font-size="10.00">TObjArray.h</text>
</a>
</g>
</g>
<!-- Node2&#45;&gt;Node5 -->
<g id="edge4" class="edge">
<title>Node2&#45;&gt;Node5</title>
<path fill="none" stroke="midnightblue" d="M190.09,-56.08C197.66,-48.22 208.88,-36.57 218.01,-27.08"/>
<polygon fill="midnightblue" stroke="midnightblue" points="220.66,-29.38 225.07,-19.75 215.62,-24.53 220.66,-29.38"/>
</g>
<!-- Node6 -->
<g id="node6" class="node">
<title>Node6</title>
<g id="a_node6"><a xlink:title=" ">
<polygon fill="white" stroke="#bfbfbf" points="286,-0.5 286,-19.5 345,-19.5 345,-0.5 286,-0.5"/>
<text text-anchor="middle" x="315.5" y="-7.5" font-family="Helvetica" font-size="10.00">TObject.h</text>
</a>
</g>
</g>
<!-- Node2&#45;&gt;Node6 -->
<g id="edge5" class="edge">
<title>Node2&#45;&gt;Node6</title>
<path fill="none" stroke="midnightblue" d="M202.73,-56.44C224.88,-47.52 259.82,-33.44 284.94,-23.32"/>
<polygon fill="midnightblue" stroke="midnightblue" points="286.4,-26.5 294.37,-19.52 283.78,-20.01 286.4,-26.5"/>
</g>
<!-- Node7 -->
<g id="node7" class="node">
<title>Node7</title>
<g id="a_node7"><a xlink:title=" ">
<polygon fill="white" stroke="#bfbfbf" points="363,-0.5 363,-19.5 434,-19.5 434,-0.5 363,-0.5"/>
<text text-anchor="middle" x="398.5" y="-7.5" font-family="Helvetica" font-size="10.00">TObjString.h</text>
</a>
</g>
</g>
<!-- Node2&#45;&gt;Node7 -->
<g id="edge6" class="edge">
<title>Node2&#45;&gt;Node7</title>
<path fill="none" stroke="midnightblue" d="M215.88,-56.44C253.42,-47.1 313.63,-32.12 354.57,-21.93"/>
<polygon fill="midnightblue" stroke="midnightblue" points="355.42,-25.33 364.28,-19.52 353.73,-18.53 355.42,-25.33"/>
</g>
</g>
</svg>
        <g id="navigator" transform="translate(0 0)" fill="#404254">
                <rect fill="#f2f5e9" fill-opacity="0.5" stroke="#606060" stroke-width=".5" x="0" y="0" width="60" height="60"/>
                <use id="zoomplus" xlink:href="#zoomPlus" x="17" y="9" onmousedown="handleZoom(evt,'in')"/>
                <use id="zoomminus" xlink:href="#zoomMin" x="42" y="9" onmousedown="handleZoom(evt,'out')"/>
                <use id="reset" xlink:href="#resetDef" x="30" y="36" onmousedown="handleReset()"/>
                <g id="arrowUp" xlink:href="#dirArrow" transform="translate(30 24)" onmousedown="handlePan(0,-1)">
                  <use xlink:href="#rim" fill="#404040">
                        <set attributeName="fill" to="#808080" begin="arrowUp.mouseover" end="arrowUp.mouseout"/>
                  </use>
                  <path fill="none" stroke="white" stroke-width="1.5" d="M0,-3.0v7 M-2.5,-0.5L0,-3.0L2.5,-0.5"/>
                </g>
                <g id="arrowRight" xlink:href="#dirArrow" transform="rotate(90) translate(36 -43)" onmousedown="handlePan(1,0)">
                  <use xlink:href="#rim" fill="#404040">
                        <set attributeName="fill" to="#808080" begin="arrowRight.mouseover" end="arrowRight.mouseout"/>
                  </use>
                  <path fill="none" stroke="white" stroke-width="1.5" d="M0,-3.0v7 M-2.5,-0.5L0,-3.0L2.5,-0.5"/>
                </g>
                <g id="arrowDown" xlink:href="#dirArrow" transform="rotate(180) translate(-30 -48)" onmousedown="handlePan(0,1)">
                  <use xlink:href="#rim" fill="#404040">
                        <set attributeName="fill" to="#808080" begin="arrowDown.mouseover" end="arrowDown.mouseout"/>
                  </use>
                  <path fill="none" stroke="white" stroke-width="1.5" d="M0,-3.0v7 M-2.5,-0.5L0,-3.0L2.5,-0.5"/>
                </g>
                <g id="arrowLeft" xlink:href="#dirArrow" transform="rotate(270) translate(-36 17)" onmousedown="handlePan(-1,0)">
                  <use xlink:href="#rim" fill="#404040">
                        <set attributeName="fill" to="#808080" begin="arrowLeft.mouseover" end="arrowLeft.mouseout"/>
                  </use>
                  <path fill="none" stroke="white" stroke-width="1.5" d="M0,-3.0v7 M-2.5,-0.5L0,-3.0L2.5,-0.5"/>
                </g>
        </g>
        <svg viewBox="0 0 15 15" width="100%" height="30px" preserveAspectRatio="xMaxYMin meet">
         <g id="arrow_out" transform="scale(0.3 0.3)">
          <a xlink:href="R3BFrsAnaPar_8cxx__incl_org.svg" target="_base">
           <rect id="button" ry="5" rx="5" y="6" x="6" height="38" width="38"
                fill="#f2f5e9" fill-opacity="0.5" stroke="#606060" stroke-width="1.0"/>
           <path id="arrow"
             d="M 11.500037,31.436501 C 11.940474,20.09759 22.043105,11.32322 32.158766,21.979434 L 37.068811,17.246167 C 37.068811,17.246167 37.088388,32 37.088388,32 L 22.160133,31.978069 C 22.160133,31.978069 26.997745,27.140456 26.997745,27.140456 C 18.528582,18.264221 13.291696,25.230495 11.500037,31.436501 z"
             style="fill:#404040;"/>
          </a>
         </g>
        </svg>
</svg>
