<?xml version="1.0" encoding="UTF-8" standalone="no"?>
<!DOCTYPE svg PUBLIC "-//W3C//DTD SVG 1.1//EN"
 "http://www.w3.org/Graphics/SVG/1.1/DTD/svg11.dtd">
<!-- Generated by graphviz version 2.44.0 (0)
 -->
<!-- Title: frsdetectors/FRSMusicCal2HitPar.cxx Pages: 1 -->
<!--zoomable 151 -->
<svg id="main" version="1.1" xmlns="http://www.w3.org/2000/svg" xmlns:xlink="http://www.w3.org/1999/xlink" xml:space="preserve" onload="init(evt)">
<style type="text/css"><![CDATA[
.edge:hover path { stroke: red; }
.edge:hover polygon { stroke: red; fill: red; }
]]></style>
<script type="text/javascript"><![CDATA[
var edges = document.getElementsByTagName('g');
if (edges && edges.length) {
  for (var i=0;i<edges.length;i++) {
    if (edges[i].id.substr(0,4)=='edge') {
      edges[i].setAttribute('class','edge');
    }
  }
}
]]></script>
        <defs>
                <circle id="rim" cx="0" cy="0" r="7"/>
                <circle id="rim2" cx="0" cy="0" r="3.5"/>
                <g id="zoomPlus">
                        <use xlink:href="#rim" fill="#404040">
                                <set attributeName="fill" to="#808080" begin="zoomplus.mouseover" end="zoomplus.mouseout"/>
                        </use>
                        <path d="M-4,0h8M0,-4v8" fill="none" stroke="white" stroke-width="1.5" pointer-events="none"/>
                </g>
                <g id="zoomMin">
                        <use xlink:href="#rim" fill="#404040">
                                <set attributeName="fill" to="#808080" begin="zoomminus.mouseover" end="zoomminus.mouseout"/>
                        </use>
                        <path d="M-4,0h8" fill="none" stroke="white" stroke-width="1.5" pointer-events="none"/>
                </g>
                <g id="dirArrow">
                        <path fill="none" stroke="white" stroke-width="1.5" d="M0,-3.0v7 M-2.5,-0.5L0,-3.0L2.5,-0.5"/>
                </g>
               <g id="resetDef">
                       <use xlink:href="#rim2" fill="#404040">
                               <set attributeName="fill" to="#808080" begin="reset.mouseover" end="reset.mouseout"/>
                       </use>
               </g>
        </defs>

<script type="text/javascript">
var viewWidth = 1877;
var viewHeight = 151;
var sectionId = 'dynsection-0';
</script>
<script xlink:href="../../svgpan.js"/>
<svg id="graph" class="graph">
<g id="viewport">
<title>frsdetectors/FRSMusicCal2HitPar.cxx</title>
<polygon fill="white" stroke="transparent" points="-4,4 -4,-147 1873,-147 1873,4 -4,4"/>
<!-- Node1 -->
<g id="node1" class="node">
<title>Node1</title>
<g id="a_node1"><a xlink:title=" ">
<polygon fill="#bfbfbf" stroke="black" points="958,-112.5 958,-142.5 1096,-142.5 1096,-112.5 958,-112.5"/>
<text text-anchor="start" x="966" y="-130.5" font-family="Helvetica" font-size="10.00">frsdetectors/FRSMusicCal2</text>
<text text-anchor="middle" x="1027" y="-119.5" font-family="Helvetica" font-size="10.00">HitPar.cxx</text>
</a>
</g>
</g>
<!-- Node2 -->
<g id="node2" class="node">
<title>Node2</title>
<g id="a_node2"><a xlink:href="../../d2/db5/FRSMusicCal2HitPar_8h.html" target="_top" xlink:title=" ">
<polygon fill="white" stroke="black" points="1,-56.5 1,-75.5 119,-75.5 119,-56.5 1,-56.5"/>
<text text-anchor="middle" x="60" y="-63.5" font-family="Helvetica" font-size="10.00">FRSMusicCal2HitPar.h</text>
</a>
</g>
</g>
<!-- Node1&#45;&gt;Node2 -->
<g id="edge1" class="edge">
<title>Node1&#45;&gt;Node2</title>
<path fill="none" stroke="midnightblue" d="M957.9,-124.16C807.64,-118.72 439.96,-103.56 133,-76 131.89,-75.9 130.77,-75.8 129.64,-75.69"/>
<polygon fill="midnightblue" stroke="midnightblue" points="129.63,-72.17 119.33,-74.65 128.92,-79.14 129.63,-72.17"/>
</g>
<!-- Node4 -->
<g id="node4" class="node">
<title>Node4</title>
<g id="a_node4"><a xlink:title=" ">
<polygon fill="white" stroke="#bfbfbf" points="80.5,-0.5 80.5,-19.5 129.5,-19.5 129.5,-0.5 80.5,-0.5"/>
<text text-anchor="middle" x="105" y="-7.5" font-family="Helvetica" font-size="10.00">TH1F.h</text>
</a>
</g>
</g>
<!-- Node1&#45;&gt;Node4 -->
<g id="edge22" class="edge">
<title>Node1&#45;&gt;Node4</title>
<path fill="none" stroke="midnightblue" d="M957.76,-125.37C765.89,-121.84 236.86,-109.17 166,-76 144.18,-65.78 126.34,-43.95 115.71,-28.41"/>
<polygon fill="midnightblue" stroke="midnightblue" points="118.43,-26.19 110.05,-19.71 112.57,-30 118.43,-26.19"/>
</g>
<!-- Node5 -->
<g id="node5" class="node">
<title>Node5</title>
<g id="a_node5"><a xlink:href="../../d7/ddc/FRSMusicCalData_8h.html" target="_top" xlink:title=" ">
<polygon fill="white" stroke="black" points="175.5,-56.5 175.5,-75.5 280.5,-75.5 280.5,-56.5 175.5,-56.5"/>
<text text-anchor="middle" x="228" y="-63.5" font-family="Helvetica" font-size="10.00">FRSMusicCalData.h</text>
</a>
</g>
</g>
<!-- Node1&#45;&gt;Node5 -->
<g id="edge4" class="edge">
<title>Node1&#45;&gt;Node5</title>
<path fill="none" stroke="midnightblue" d="M957.75,-123.51C828.71,-117.55 542.53,-102.53 290.8,-76"/>
<polygon fill="midnightblue" stroke="midnightblue" points="291.04,-72.51 280.73,-74.93 290.31,-79.47 291.04,-72.51"/>
</g>
<!-- Node7 -->
<g id="node7" class="node">
<title>Node7</title>
<g id="a_node7"><a xlink:href="../../d0/d13/FRSMusicHitPar_8h.html" target="_top" xlink:title=" ">
<polygon fill="white" stroke="black" points="299,-56.5 299,-75.5 397,-75.5 397,-56.5 299,-56.5"/>
<text text-anchor="middle" x="348" y="-63.5" font-family="Helvetica" font-size="10.00">FRSMusicHitPar.h</text>
</a>
</g>
</g>
<!-- Node1&#45;&gt;Node7 -->
<g id="edge6" class="edge">
<title>Node1&#45;&gt;Node7</title>
<path fill="none" stroke="midnightblue" d="M957.58,-122.17C843.38,-114.75 608.8,-98.22 411,-76 409.73,-75.86 408.45,-75.71 407.16,-75.56"/>
<polygon fill="midnightblue" stroke="midnightblue" points="407.5,-72.07 397.14,-74.31 406.64,-79.02 407.5,-72.07"/>
</g>
<!-- Node10 -->
<g id="node10" class="node">
<title>Node10</title>
<g id="a_node10"><a xlink:title=" ">
<polygon fill="white" stroke="#bfbfbf" points="514,-0.5 514,-19.5 582,-19.5 582,-0.5 514,-0.5"/>
<text text-anchor="middle" x="548" y="-7.5" font-family="Helvetica" font-size="10.00">TObjArray.h</text>
</a>
</g>
</g>
<!-- Node1&#45;&gt;Node10 -->
<g id="edge24" class="edge">
<title>Node1&#45;&gt;Node10</title>
<path fill="none" stroke="midnightblue" d="M957.81,-125.63C811.03,-123.05 479.06,-113.14 445,-76 422.5,-51.46 466.63,-32.52 503.94,-21.58"/>
<polygon fill="midnightblue" stroke="midnightblue" points="505.05,-24.9 513.73,-18.83 503.16,-18.16 505.05,-24.9"/>
</g>
<!-- Node12 -->
<g id="node12" class="node">
<title>Node12</title>
<g id="a_node12"><a xlink:title=" ">
<polygon fill="white" stroke="#bfbfbf" points="453.5,-56.5 453.5,-75.5 524.5,-75.5 524.5,-56.5 453.5,-56.5"/>
<text text-anchor="middle" x="489" y="-63.5" font-family="Helvetica" font-size="10.00">FairLogger.h</text>
</a>
</g>
</g>
<!-- Node1&#45;&gt;Node12 -->
<g id="edge12" class="edge">
<title>Node1&#45;&gt;Node12</title>
<path fill="none" stroke="midnightblue" d="M957.75,-121.5C864.17,-114.28 691.97,-99.35 535.12,-76.03"/>
<polygon fill="midnightblue" stroke="midnightblue" points="535.22,-72.51 524.81,-74.48 534.18,-79.43 535.22,-72.51"/>
</g>
<!-- Node13 -->
<g id="node13" class="node">
<title>Node13</title>
<g id="a_node13"><a xlink:title=" ">
<polygon fill="white" stroke="#bfbfbf" points="543,-56.5 543,-75.5 643,-75.5 643,-56.5 543,-56.5"/>
<text text-anchor="middle" x="593" y="-63.5" font-family="Helvetica" font-size="10.00">FairRootManager.h</text>
</a>
</g>
</g>
<!-- Node1&#45;&gt;Node13 -->
<g id="edge13" class="edge">
<title>Node1&#45;&gt;Node13</title>
<path fill="none" stroke="midnightblue" d="M957.68,-117.45C882.57,-107.57 759.22,-91.14 653,-76 652.9,-75.99 652.8,-75.97 652.7,-75.96"/>
<polygon fill="midnightblue" stroke="midnightblue" points="653.48,-72.53 643.08,-74.57 652.48,-79.46 653.48,-72.53"/>
</g>
<!-- Node14 -->
<g id="node14" class="node">
<title>Node14</title>
<g id="a_node14"><a xlink:title=" ">
<polygon fill="white" stroke="#bfbfbf" points="661.5,-56.5 661.5,-75.5 738.5,-75.5 738.5,-56.5 661.5,-56.5"/>
<text text-anchor="middle" x="700" y="-63.5" font-family="Helvetica" font-size="10.00">FairRunAna.h</text>
</a>
</g>
</g>
<!-- Node1&#45;&gt;Node14 -->
<g id="edge14" class="edge">
<title>Node1&#45;&gt;Node14</title>
<path fill="none" stroke="midnightblue" d="M957.9,-114.12C903.74,-104.38 826.2,-90.38 748.48,-76.08"/>
<polygon fill="midnightblue" stroke="midnightblue" points="748.98,-72.61 738.51,-74.24 747.71,-79.5 748.98,-72.61"/>
</g>
<!-- Node15 -->
<g id="node15" class="node">
<title>Node15</title>
<g id="a_node15"><a xlink:title=" ">
<polygon fill="white" stroke="#bfbfbf" points="756.5,-56.5 756.5,-75.5 847.5,-75.5 847.5,-56.5 756.5,-56.5"/>
<text text-anchor="middle" x="802" y="-63.5" font-family="Helvetica" font-size="10.00">FairRuntimeDb.h</text>
</a>
</g>
</g>
<!-- Node1&#45;&gt;Node15 -->
<g id="edge15" class="edge">
<title>Node1&#45;&gt;Node15</title>
<path fill="none" stroke="midnightblue" d="M973.96,-112.47C934.3,-101.99 880.79,-87.84 844.06,-78.12"/>
<polygon fill="midnightblue" stroke="midnightblue" points="844.73,-74.68 834.17,-75.51 842.94,-81.45 844.73,-74.68"/>
</g>
<!-- Node16 -->
<g id="node16" class="node">
<title>Node16</title>
<g id="a_node16"><a xlink:title=" ">
<polygon fill="white" stroke="#bfbfbf" points="865.5,-56.5 865.5,-75.5 966.5,-75.5 966.5,-56.5 865.5,-56.5"/>
<text text-anchor="middle" x="916" y="-63.5" font-family="Helvetica" font-size="10.00">R3BEventHeader.h</text>
</a>
</g>
</g>
<!-- Node1&#45;&gt;Node16 -->
<g id="edge16" class="edge">
<title>Node1&#45;&gt;Node16</title>
<path fill="none" stroke="midnightblue" d="M1000.69,-112.4C982.74,-102.77 959.08,-90.09 941.33,-80.58"/>
<polygon fill="midnightblue" stroke="midnightblue" points="942.62,-77.3 932.15,-75.66 939.31,-83.47 942.62,-77.3"/>
</g>
<!-- Node17 -->
<g id="node17" class="node">
<title>Node17</title>
<g id="a_node17"><a xlink:title=" ">
<polygon fill="white" stroke="#bfbfbf" points="985,-56.5 985,-75.5 1069,-75.5 1069,-56.5 985,-56.5"/>
<text text-anchor="middle" x="1027" y="-63.5" font-family="Helvetica" font-size="10.00">TClonesArray.h</text>
</a>
</g>
</g>
<!-- Node1&#45;&gt;Node17 -->
<g id="edge17" class="edge">
<title>Node1&#45;&gt;Node17</title>
<path fill="none" stroke="midnightblue" d="M1027,-112.4C1027,-104.47 1027,-94.46 1027,-85.86"/>
<polygon fill="midnightblue" stroke="midnightblue" points="1030.5,-85.66 1027,-75.66 1023.5,-85.66 1030.5,-85.66"/>
</g>
<!-- Node18 -->
<g id="node18" class="node">
<title>Node18</title>
<g id="a_node18"><a xlink:title=" ">
<polygon fill="white" stroke="#bfbfbf" points="1087,-56.5 1087,-75.5 1129,-75.5 1129,-56.5 1087,-56.5"/>
<text text-anchor="middle" x="1108" y="-63.5" font-family="Helvetica" font-size="10.00">TF1.h</text>
</a>
</g>
</g>
<!-- Node1&#45;&gt;Node18 -->
<g id="edge18" class="edge">
<title>Node1&#45;&gt;Node18</title>
<path fill="none" stroke="midnightblue" d="M1046.2,-112.4C1058.82,-103.13 1075.29,-91.03 1088.06,-81.65"/>
<polygon fill="midnightblue" stroke="midnightblue" points="1090.23,-84.4 1096.21,-75.66 1086.08,-78.76 1090.23,-84.4"/>
</g>
<!-- Node19 -->
<g id="node19" class="node">
<title>Node19</title>
<g id="a_node19"><a xlink:title=" ">
<polygon fill="white" stroke="#bfbfbf" points="1147,-56.5 1147,-75.5 1233,-75.5 1233,-56.5 1147,-56.5"/>
<text text-anchor="middle" x="1190" y="-63.5" font-family="Helvetica" font-size="10.00">TGeoManager.h</text>
</a>
</g>
</g>
<!-- Node1&#45;&gt;Node19 -->
<g id="edge19" class="edge">
<title>Node1&#45;&gt;Node19</title>
<path fill="none" stroke="midnightblue" d="M1065.63,-112.4C1093.34,-102.28 1130.31,-88.79 1156.72,-79.15"/>
<polygon fill="midnightblue" stroke="midnightblue" points="1158.09,-82.37 1166.28,-75.66 1155.69,-75.8 1158.09,-82.37"/>
</g>
<!-- Node20 -->
<g id="node20" class="node">
<title>Node20</title>
<g id="a_node20"><a xlink:title=" ">
<polygon fill="white" stroke="#bfbfbf" points="1251.5,-56.5 1251.5,-75.5 1326.5,-75.5 1326.5,-56.5 1251.5,-56.5"/>
<text text-anchor="middle" x="1289" y="-63.5" font-family="Helvetica" font-size="10.00">TGeoMatrix.h</text>
</a>
</g>
</g>
<!-- Node1&#45;&gt;Node20 -->
<g id="edge20" class="edge">
<title>Node1&#45;&gt;Node20</title>
<path fill="none" stroke="midnightblue" d="M1088.76,-112.47C1135.54,-101.85 1198.85,-87.47 1241.66,-77.75"/>
<polygon fill="midnightblue" stroke="midnightblue" points="1242.57,-81.13 1251.54,-75.51 1241.02,-74.31 1242.57,-81.13"/>
</g>
<!-- Node21 -->
<g id="node21" class="node">
<title>Node21</title>
<g id="a_node21"><a xlink:title=" ">
<polygon fill="white" stroke="#bfbfbf" points="1344.5,-56.5 1344.5,-75.5 1401.5,-75.5 1401.5,-56.5 1344.5,-56.5"/>
<text text-anchor="middle" x="1373" y="-63.5" font-family="Helvetica" font-size="10.00">TGraph.h</text>
</a>
</g>
</g>
<!-- Node1&#45;&gt;Node21 -->
<g id="edge21" class="edge">
<title>Node1&#45;&gt;Node21</title>
<path fill="none" stroke="midnightblue" d="M1096,-116.77C1156.54,-107.88 1247.13,-93.72 1334.55,-76.18"/>
<polygon fill="midnightblue" stroke="midnightblue" points="1335.26,-79.61 1344.37,-74.19 1333.87,-72.75 1335.26,-79.61"/>
</g>
<!-- Node22 -->
<g id="node22" class="node">
<title>Node22</title>
<g id="a_node22"><a xlink:title=" ">
<polygon fill="white" stroke="#bfbfbf" points="1419.5,-56.5 1419.5,-75.5 1472.5,-75.5 1472.5,-56.5 1419.5,-56.5"/>
<text text-anchor="middle" x="1446" y="-63.5" font-family="Helvetica" font-size="10.00">TMath.h</text>
</a>
</g>
</g>
<!-- Node1&#45;&gt;Node22 -->
<g id="edge23" class="edge">
<title>Node1&#45;&gt;Node22</title>
<path fill="none" stroke="midnightblue" d="M1096.08,-119.96C1171.08,-112.28 1294.51,-97.99 1409.31,-76.14"/>
<polygon fill="midnightblue" stroke="midnightblue" points="1410.17,-79.54 1419.32,-74.21 1408.84,-72.67 1410.17,-79.54"/>
</g>
<!-- Node23 -->
<g id="node23" class="node">
<title>Node23</title>
<g id="a_node23"><a xlink:title=" ">
<polygon fill="white" stroke="#bfbfbf" points="1490.5,-56.5 1490.5,-75.5 1557.5,-75.5 1557.5,-56.5 1490.5,-56.5"/>
<text text-anchor="middle" x="1524" y="-63.5" font-family="Helvetica" font-size="10.00">TRandom.h</text>
</a>
</g>
</g>
<!-- Node1&#45;&gt;Node23 -->
<g id="edge25" class="edge">
<title>Node1&#45;&gt;Node23</title>
<path fill="none" stroke="midnightblue" d="M1096.28,-120.99C1183.64,-113.56 1338.6,-98.76 1479.98,-76.2"/>
<polygon fill="midnightblue" stroke="midnightblue" points="1480.81,-79.61 1490.13,-74.56 1479.7,-72.7 1480.81,-79.61"/>
</g>
<!-- Node24 -->
<g id="node24" class="node">
<title>Node24</title>
<g id="a_node24"><a xlink:title=" ">
<polygon fill="white" stroke="#bfbfbf" points="1575.5,-56.5 1575.5,-75.5 1648.5,-75.5 1648.5,-56.5 1575.5,-56.5"/>
<text text-anchor="middle" x="1612" y="-63.5" font-family="Helvetica" font-size="10.00">TSpectrum.h</text>
</a>
</g>
</g>
<!-- Node1&#45;&gt;Node24 -->
<g id="edge26" class="edge">
<title>Node1&#45;&gt;Node24</title>
<path fill="none" stroke="midnightblue" d="M1096.32,-122.34C1197.39,-115.75 1391.27,-101.18 1565.12,-76.15"/>
<polygon fill="midnightblue" stroke="midnightblue" points="1565.83,-79.58 1575.22,-74.68 1564.82,-72.66 1565.83,-79.58"/>
</g>
<!-- Node25 -->
<g id="node25" class="node">
<title>Node25</title>
<g id="a_node25"><a xlink:title=" ">
<polygon fill="white" stroke="#bfbfbf" points="1667,-56.5 1667,-75.5 1731,-75.5 1731,-56.5 1667,-56.5"/>
<text text-anchor="middle" x="1699" y="-63.5" font-family="Helvetica" font-size="10.00">TVector3.h</text>
</a>
</g>
</g>
<!-- Node1&#45;&gt;Node25 -->
<g id="edge27" class="edge">
<title>Node1&#45;&gt;Node25</title>
<path fill="none" stroke="midnightblue" d="M1096.45,-124.04C1211.21,-119.29 1447.74,-106.62 1656.91,-75.97"/>
<polygon fill="midnightblue" stroke="midnightblue" points="1657.47,-79.42 1666.85,-74.49 1656.44,-72.5 1657.47,-79.42"/>
</g>
<!-- Node26 -->
<g id="node26" class="node">
<title>Node26</title>
<g id="a_node26"><a xlink:title=" ">
<polygon fill="white" stroke="#bfbfbf" points="1749,-56.5 1749,-75.5 1803,-75.5 1803,-56.5 1749,-56.5"/>
<text text-anchor="middle" x="1776" y="-63.5" font-family="Helvetica" font-size="10.00">iostream</text>
</a>
</g>
</g>
<!-- Node1&#45;&gt;Node26 -->
<g id="edge28" class="edge">
<title>Node1&#45;&gt;Node26</title>
<path fill="none" stroke="midnightblue" d="M1096.03,-125.6C1222.12,-123.08 1498.09,-113.55 1738.98,-75.88"/>
<polygon fill="midnightblue" stroke="midnightblue" points="1739.65,-79.31 1748.98,-74.29 1738.55,-72.4 1739.65,-79.31"/>
</g>
<!-- Node27 -->
<g id="node27" class="node">
<title>Node27</title>
<g id="a_node27"><a xlink:title=" ">
<polygon fill="white" stroke="#bfbfbf" points="1821,-56.5 1821,-75.5 1869,-75.5 1869,-56.5 1821,-56.5"/>
<text text-anchor="middle" x="1845" y="-63.5" font-family="Helvetica" font-size="10.00">stdlib.h</text>
</a>
</g>
</g>
<!-- Node1&#45;&gt;Node27 -->
<g id="edge29" class="edge">
<title>Node1&#45;&gt;Node27</title>
<path fill="none" stroke="midnightblue" d="M1096.05,-126.72C1231.71,-126.14 1542.46,-119.82 1811.04,-75.8"/>
<polygon fill="midnightblue" stroke="midnightblue" points="1811.68,-79.25 1820.97,-74.16 1810.54,-72.34 1811.68,-79.25"/>
</g>
<!-- Node3 -->
<g id="node3" class="node">
<title>Node3</title>
<g id="a_node3"><a xlink:title=" ">
<polygon fill="white" stroke="#bfbfbf" points="0,-0.5 0,-19.5 62,-19.5 62,-0.5 0,-0.5"/>
<text text-anchor="middle" x="31" y="-7.5" font-family="Helvetica" font-size="10.00">FairTask.h</text>
</a>
</g>
</g>
<!-- Node2&#45;&gt;Node3 -->
<g id="edge2" class="edge">
<title>Node2&#45;&gt;Node3</title>
<path fill="none" stroke="midnightblue" d="M55.21,-56.08C51.24,-48.69 45.47,-37.95 40.57,-28.81"/>
<polygon fill="midnightblue" stroke="midnightblue" points="43.51,-26.91 35.7,-19.75 37.35,-30.22 43.51,-26.91"/>
</g>
<!-- Node2&#45;&gt;Node4 -->
<g id="edge3" class="edge">
<title>Node2&#45;&gt;Node4</title>
<path fill="none" stroke="midnightblue" d="M67.43,-56.08C73.85,-48.38 83.31,-37.03 91.12,-27.65"/>
<polygon fill="midnightblue" stroke="midnightblue" points="93.99,-29.67 97.71,-19.75 88.62,-25.19 93.99,-29.67"/>
</g>
<!-- Node6 -->
<g id="node6" class="node">
<title>Node6</title>
<g id="a_node6"><a xlink:title=" ">
<polygon fill="white" stroke="#bfbfbf" points="147.5,-0.5 147.5,-19.5 206.5,-19.5 206.5,-0.5 147.5,-0.5"/>
<text text-anchor="middle" x="177" y="-7.5" font-family="Helvetica" font-size="10.00">TObject.h</text>
</a>
</g>
</g>
<!-- Node5&#45;&gt;Node6 -->
<g id="edge5" class="edge">
<title>Node5&#45;&gt;Node6</title>
<path fill="none" stroke="midnightblue" d="M219.58,-56.08C212.15,-48.22 201.15,-36.57 192.19,-27.08"/>
<polygon fill="midnightblue" stroke="midnightblue" points="194.68,-24.62 185.26,-19.75 189.59,-29.42 194.68,-24.62"/>
</g>
<!-- Node7&#45;&gt;Node6 -->
<g id="edge10" class="edge">
<title>Node7&#45;&gt;Node6</title>
<path fill="none" stroke="midnightblue" d="M320.9,-56.44C292.01,-47.32 246.08,-32.81 213.89,-22.65"/>
<polygon fill="midnightblue" stroke="midnightblue" points="214.56,-19.19 203.97,-19.52 212.45,-25.87 214.56,-19.19"/>
</g>
<!-- Node8 -->
<g id="node8" class="node">
<title>Node8</title>
<g id="a_node8"><a xlink:title=" ">
<polygon fill="white" stroke="#bfbfbf" points="225,-0.5 225,-19.5 329,-19.5 329,-0.5 225,-0.5"/>
<text text-anchor="middle" x="277" y="-7.5" font-family="Helvetica" font-size="10.00">FairParGenericSet.h</text>
</a>
</g>
</g>
<!-- Node7&#45;&gt;Node8 -->
<g id="edge7" class="edge">
<title>Node7&#45;&gt;Node8</title>
<path fill="none" stroke="midnightblue" d="M336.59,-56.32C325.89,-48.18 309.66,-35.84 296.84,-26.09"/>
<polygon fill="midnightblue" stroke="midnightblue" points="298.69,-23.1 288.61,-19.83 294.46,-28.67 298.69,-23.1"/>
</g>
<!-- Node9 -->
<g id="node9" class="node">
<title>Node9</title>
<g id="a_node9"><a xlink:title=" ">
<polygon fill="white" stroke="#bfbfbf" points="347.5,-0.5 347.5,-19.5 406.5,-19.5 406.5,-0.5 347.5,-0.5"/>
<text text-anchor="middle" x="377" y="-7.5" font-family="Helvetica" font-size="10.00">TArrayF.h</text>
</a>
</g>
</g>
<!-- Node7&#45;&gt;Node9 -->
<g id="edge8" class="edge">
<title>Node7&#45;&gt;Node9</title>
<path fill="none" stroke="midnightblue" d="M352.79,-56.08C356.76,-48.69 362.53,-37.95 367.43,-28.81"/>
<polygon fill="midnightblue" stroke="midnightblue" points="370.65,-30.22 372.3,-19.75 364.49,-26.91 370.65,-30.22"/>
</g>
<!-- Node7&#45;&gt;Node10 -->
<g id="edge9" class="edge">
<title>Node7&#45;&gt;Node10</title>
<path fill="none" stroke="midnightblue" d="M379.69,-56.44C414.07,-47.16 469.08,-32.31 506.79,-22.13"/>
<polygon fill="midnightblue" stroke="midnightblue" points="507.72,-25.5 516.46,-19.52 505.89,-18.74 507.72,-25.5"/>
</g>
<!-- Node11 -->
<g id="node11" class="node">
<title>Node11</title>
<g id="a_node11"><a xlink:title=" ">
<polygon fill="white" stroke="#bfbfbf" points="424.5,-0.5 424.5,-19.5 495.5,-19.5 495.5,-0.5 424.5,-0.5"/>
<text text-anchor="middle" x="460" y="-7.5" font-family="Helvetica" font-size="10.00">TObjString.h</text>
</a>
</g>
</g>
<!-- Node7&#45;&gt;Node11 -->
<g id="edge11" class="edge">
<title>Node7&#45;&gt;Node11</title>
<path fill="none" stroke="midnightblue" d="M365.99,-56.32C384.04,-47.62 412.05,-34.12 432.8,-24.11"/>
<polygon fill="midnightblue" stroke="midnightblue" points="434.56,-27.15 442.05,-19.65 431.52,-20.84 434.56,-27.15"/>
</g>
</g>
</svg>
        <g id="navigator" transform="translate(0 0)" fill="#404254">
                <rect fill="#f2f5e9" fill-opacity="0.5" stroke="#606060" stroke-width=".5" x="0" y="0" width="60" height="60"/>
                <use id="zoomplus" xlink:href="#zoomPlus" x="17" y="9" onmousedown="handleZoom(evt,'in')"/>
                <use id="zoomminus" xlink:href="#zoomMin" x="42" y="9" onmousedown="handleZoom(evt,'out')"/>
                <use id="reset" xlink:href="#resetDef" x="30" y="36" onmousedown="handleReset()"/>
                <g id="arrowUp" xlink:href="#dirArrow" transform="translate(30 24)" onmousedown="handlePan(0,-1)">
                  <use xlink:href="#rim" fill="#404040">
                        <set attributeName="fill" to="#808080" begin="arrowUp.mouseover" end="arrowUp.mouseout"/>
                  </use>
                  <path fill="none" stroke="white" stroke-width="1.5" d="M0,-3.0v7 M-2.5,-0.5L0,-3.0L2.5,-0.5"/>
                </g>
                <g id="arrowRight" xlink:href="#dirArrow" transform="rotate(90) translate(36 -43)" onmousedown="handlePan(1,0)">
                  <use xlink:href="#rim" fill="#404040">
                        <set attributeName="fill" to="#808080" begin="arrowRight.mouseover" end="arrowRight.mouseout"/>
                  </use>
                  <path fill="none" stroke="white" stroke-width="1.5" d="M0,-3.0v7 M-2.5,-0.5L0,-3.0L2.5,-0.5"/>
                </g>
                <g id="arrowDown" xlink:href="#dirArrow" transform="rotate(180) translate(-30 -48)" onmousedown="handlePan(0,1)">
                  <use xlink:href="#rim" fill="#404040">
                        <set attributeName="fill" to="#808080" begin="arrowDown.mouseover" end="arrowDown.mouseout"/>
                  </use>
                  <path fill="none" stroke="white" stroke-width="1.5" d="M0,-3.0v7 M-2.5,-0.5L0,-3.0L2.5,-0.5"/>
                </g>
                <g id="arrowLeft" xlink:href="#dirArrow" transform="rotate(270) translate(-36 17)" onmousedown="handlePan(-1,0)">
                  <use xlink:href="#rim" fill="#404040">
                        <set attributeName="fill" to="#808080" begin="arrowLeft.mouseover" end="arrowLeft.mouseout"/>
                  </use>
                  <path fill="none" stroke="white" stroke-width="1.5" d="M0,-3.0v7 M-2.5,-0.5L0,-3.0L2.5,-0.5"/>
                </g>
        </g>
        <svg viewBox="0 0 15 15" width="100%" height="30px" preserveAspectRatio="xMaxYMin meet">
         <g id="arrow_out" transform="scale(0.3 0.3)">
          <a xlink:href="FRSMusicCal2HitPar_8cxx__incl_org.svg" target="_base">
           <rect id="button" ry="5" rx="5" y="6" x="6" height="38" width="38"
                fill="#f2f5e9" fill-opacity="0.5" stroke="#606060" stroke-width="1.0"/>
           <path id="arrow"
             d="M 11.500037,31.436501 C 11.940474,20.09759 22.043105,11.32322 32.158766,21.979434 L 37.068811,17.246167 C 37.068811,17.246167 37.088388,32 37.088388,32 L 22.160133,31.978069 C 22.160133,31.978069 26.997745,27.140456 26.997745,27.140456 C 18.528582,18.264221 13.291696,25.230495 11.500037,31.436501 z"
             style="fill:#404040;"/>
          </a>
         </g>
        </svg>
</svg>
