<?xml version="1.0" encoding="UTF-8" standalone="no"?>
<!DOCTYPE svg PUBLIC "-//W3C//DTD SVG 1.1//EN"
 "http://www.w3.org/Graphics/SVG/1.1/DTD/svg11.dtd">
<!-- Generated by graphviz version 2.44.0 (0)
 -->
<!-- Title: sci/FrsTcalContFact.cxx Pages: 1 -->
<!--zoomable 140 -->
<svg id="main" version="1.1" xmlns="http://www.w3.org/2000/svg" xmlns:xlink="http://www.w3.org/1999/xlink" xml:space="preserve" onload="init(evt)">
<style type="text/css"><![CDATA[
.edge:hover path { stroke: red; }
.edge:hover polygon { stroke: red; fill: red; }
]]></style>
<script type="text/javascript"><![CDATA[
var edges = document.getElementsByTagName('g');
if (edges && edges.length) {
  for (var i=0;i<edges.length;i++) {
    if (edges[i].id.substr(0,4)=='edge') {
      edges[i].setAttribute('class','edge');
    }
  }
}
]]></script>
        <defs>
                <circle id="rim" cx="0" cy="0" r="7"/>
                <circle id="rim2" cx="0" cy="0" r="3.5"/>
                <g id="zoomPlus">
                        <use xlink:href="#rim" fill="#404040">
                                <set attributeName="fill" to="#808080" begin="zoomplus.mouseover" end="zoomplus.mouseout"/>
                        </use>
                        <path d="M-4,0h8M0,-4v8" fill="none" stroke="white" stroke-width="1.5" pointer-events="none"/>
                </g>
                <g id="zoomMin">
                        <use xlink:href="#rim" fill="#404040">
                                <set attributeName="fill" to="#808080" begin="zoomminus.mouseover" end="zoomminus.mouseout"/>
                        </use>
                        <path d="M-4,0h8" fill="none" stroke="white" stroke-width="1.5" pointer-events="none"/>
                </g>
                <g id="dirArrow">
                        <path fill="none" stroke="white" stroke-width="1.5" d="M0,-3.0v7 M-2.5,-0.5L0,-3.0L2.5,-0.5"/>
                </g>
               <g id="resetDef">
                       <use xlink:href="#rim2" fill="#404040">
                               <set attributeName="fill" to="#808080" begin="reset.mouseover" end="reset.mouseout"/>
                       </use>
               </g>
        </defs>

<script type="text/javascript">
var viewWidth = 969;
var viewHeight = 140;
var sectionId = 'dynsection-0';
</script>
<script xlink:href="../../svgpan.js"/>
<svg id="graph" class="graph">
<g id="viewport">
<title>sci/FrsTcalContFact.cxx</title>
<polygon fill="white" stroke="transparent" points="-4,4 -4,-136 965,-136 965,4 -4,4"/>
<!-- Node1 -->
<g id="node1" class="node">
<title>Node1</title>
<g id="a_node1"><a xlink:title=" ">
<polygon fill="#bfbfbf" stroke="black" points="429,-112.5 429,-131.5 553,-131.5 553,-112.5 429,-112.5"/>
<text text-anchor="middle" x="491" y="-119.5" font-family="Helvetica" font-size="10.00">sci/FrsTcalContFact.cxx</text>
</a>
</g>
</g>
<!-- Node2 -->
<g id="node2" class="node">
<title>Node2</title>
<g id="a_node2"><a xlink:href="../../d4/d5b/FrsTcalContFact_8h.html" target="_top" xlink:title=" ">
<polygon fill="white" stroke="black" points="0,-56.5 0,-75.5 98,-75.5 98,-56.5 0,-56.5"/>
<text text-anchor="middle" x="49" y="-63.5" font-family="Helvetica" font-size="10.00">FrsTcalContFact.h</text>
</a>
</g>
</g>
<!-- Node1&#45;&gt;Node2 -->
<g id="edge1" class="edge">
<title>Node1&#45;&gt;Node2</title>
<path fill="none" stroke="midnightblue" d="M428.72,-114.42C354.77,-106.45 227.43,-92.22 108.08,-76.1"/>
<polygon fill="midnightblue" stroke="midnightblue" points="108.41,-72.62 98.03,-74.74 107.47,-79.55 108.41,-72.62"/>
</g>
<!-- Node4 -->
<g id="node4" class="node">
<title>Node4</title>
<g id="a_node4"><a xlink:title=" ">
<polygon fill="white" stroke="#bfbfbf" points="116.5,-56.5 116.5,-75.5 187.5,-75.5 187.5,-56.5 116.5,-56.5"/>
<text text-anchor="middle" x="152" y="-63.5" font-family="Helvetica" font-size="10.00">FairLogger.h</text>
</a>
</g>
</g>
<!-- Node1&#45;&gt;Node4 -->
<g id="edge3" class="edge">
<title>Node1&#45;&gt;Node4</title>
<path fill="none" stroke="midnightblue" d="M430.06,-112.5C372.71,-104.31 284.21,-91.19 197.81,-76.08"/>
<polygon fill="midnightblue" stroke="midnightblue" points="198.29,-72.61 187.83,-74.32 197.08,-79.5 198.29,-72.61"/>
</g>
<!-- Node5 -->
<g id="node5" class="node">
<title>Node5</title>
<g id="a_node5"><a xlink:title=" ">
<polygon fill="white" stroke="#bfbfbf" points="206,-56.5 206,-75.5 308,-75.5 308,-56.5 206,-56.5"/>
<text text-anchor="middle" x="257" y="-63.5" font-family="Helvetica" font-size="10.00">FairParAsciiFileIo.h</text>
</a>
</g>
</g>
<!-- Node1&#45;&gt;Node5 -->
<g id="edge4" class="edge">
<title>Node1&#45;&gt;Node5</title>
<path fill="none" stroke="midnightblue" d="M453.92,-112.44C413.27,-103.06 347.97,-87.99 303.82,-77.8"/>
<polygon fill="midnightblue" stroke="midnightblue" points="304.44,-74.35 293.9,-75.52 302.86,-81.18 304.44,-74.35"/>
</g>
<!-- Node6 -->
<g id="node6" class="node">
<title>Node6</title>
<g id="a_node6"><a xlink:title=" ">
<polygon fill="white" stroke="#bfbfbf" points="326.5,-56.5 326.5,-75.5 427.5,-75.5 427.5,-56.5 326.5,-56.5"/>
<text text-anchor="middle" x="377" y="-63.5" font-family="Helvetica" font-size="10.00">FairParRootFileIo.h</text>
</a>
</g>
</g>
<!-- Node1&#45;&gt;Node6 -->
<g id="edge5" class="edge">
<title>Node1&#45;&gt;Node6</title>
<path fill="none" stroke="midnightblue" d="M472.94,-112.44C454.43,-103.68 425.42,-89.94 404.14,-79.86"/>
<polygon fill="midnightblue" stroke="midnightblue" points="405.51,-76.63 394.98,-75.52 402.52,-82.96 405.51,-76.63"/>
</g>
<!-- Node7 -->
<g id="node7" class="node">
<title>Node7</title>
<g id="a_node7"><a xlink:title=" ">
<polygon fill="white" stroke="#bfbfbf" points="445.5,-56.5 445.5,-75.5 536.5,-75.5 536.5,-56.5 445.5,-56.5"/>
<text text-anchor="middle" x="491" y="-63.5" font-family="Helvetica" font-size="10.00">FairRuntimeDb.h</text>
</a>
</g>
</g>
<!-- Node1&#45;&gt;Node7 -->
<g id="edge6" class="edge">
<title>Node1&#45;&gt;Node7</title>
<path fill="none" stroke="midnightblue" d="M491,-112.08C491,-105.01 491,-94.86 491,-85.99"/>
<polygon fill="midnightblue" stroke="midnightblue" points="494.5,-85.75 491,-75.75 487.5,-85.75 494.5,-85.75"/>
</g>
<!-- Node8 -->
<g id="node8" class="node">
<title>Node8</title>
<g id="a_node8"><a xlink:href="../../d3/dc4/FrsSciRawPosPar_8h.html" target="_top" xlink:title=" ">
<polygon fill="white" stroke="black" points="555,-56.5 555,-75.5 661,-75.5 661,-56.5 555,-56.5"/>
<text text-anchor="middle" x="608" y="-63.5" font-family="Helvetica" font-size="10.00">FrsSciRawPosPar.h</text>
</a>
</g>
</g>
<!-- Node1&#45;&gt;Node8 -->
<g id="edge7" class="edge">
<title>Node1&#45;&gt;Node8</title>
<path fill="none" stroke="midnightblue" d="M509.54,-112.44C528.62,-103.64 558.57,-89.81 580.44,-79.72"/>
<polygon fill="midnightblue" stroke="midnightblue" points="581.93,-82.88 589.55,-75.52 579,-76.53 581.93,-82.88"/>
</g>
<!-- Node14 -->
<g id="node14" class="node">
<title>Node14</title>
<g id="a_node14"><a xlink:href="../../d5/d83/FrsSciRawTofPar_8h.html" target="_top" xlink:title=" ">
<polygon fill="white" stroke="black" points="679,-56.5 679,-75.5 781,-75.5 781,-56.5 679,-56.5"/>
<text text-anchor="middle" x="730" y="-63.5" font-family="Helvetica" font-size="10.00">FrsSciRawTofPar.h</text>
</a>
</g>
</g>
<!-- Node1&#45;&gt;Node14 -->
<g id="edge13" class="edge">
<title>Node1&#45;&gt;Node14</title>
<path fill="none" stroke="midnightblue" d="M528.87,-112.44C570.48,-103.04 637.37,-87.93 682.47,-77.74"/>
<polygon fill="midnightblue" stroke="midnightblue" points="683.32,-81.13 692.31,-75.52 681.78,-74.31 683.32,-81.13"/>
</g>
<!-- Node15 -->
<g id="node15" class="node">
<title>Node15</title>
<g id="a_node15"><a xlink:href="../../d4/dfe/FrsSciTcalPar_8h.html" target="_top" xlink:title=" ">
<polygon fill="white" stroke="black" points="799.5,-56.5 799.5,-75.5 886.5,-75.5 886.5,-56.5 799.5,-56.5"/>
<text text-anchor="middle" x="843" y="-63.5" font-family="Helvetica" font-size="10.00">FrsSciTcalPar.h</text>
</a>
</g>
</g>
<!-- Node1&#45;&gt;Node15 -->
<g id="edge19" class="edge">
<title>Node1&#45;&gt;Node15</title>
<path fill="none" stroke="midnightblue" d="M549.77,-112.49C607.92,-103.99 699.75,-90.37 789.28,-76.09"/>
<polygon fill="midnightblue" stroke="midnightblue" points="790.02,-79.52 799.34,-74.48 788.91,-72.6 790.02,-79.52"/>
</g>
<!-- Node16 -->
<g id="node16" class="node">
<title>Node16</title>
<g id="a_node16"><a xlink:title=" ">
<polygon fill="white" stroke="#bfbfbf" points="905,-56.5 905,-75.5 961,-75.5 961,-56.5 905,-56.5"/>
<text text-anchor="middle" x="933" y="-63.5" font-family="Helvetica" font-size="10.00">TClass.h</text>
</a>
</g>
</g>
<!-- Node1&#45;&gt;Node16 -->
<g id="edge25" class="edge">
<title>Node1&#45;&gt;Node16</title>
<path fill="none" stroke="midnightblue" d="M553.1,-116.58C630.86,-110.5 768.27,-97.92 894.92,-75.99"/>
<polygon fill="midnightblue" stroke="midnightblue" points="895.55,-79.43 904.8,-74.25 894.34,-72.54 895.55,-79.43"/>
</g>
<!-- Node3 -->
<g id="node3" class="node">
<title>Node3</title>
<g id="a_node3"><a xlink:title=" ">
<polygon fill="white" stroke="#bfbfbf" points="8.5,-0.5 8.5,-19.5 89.5,-19.5 89.5,-0.5 8.5,-0.5"/>
<text text-anchor="middle" x="49" y="-7.5" font-family="Helvetica" font-size="10.00">FairContFact.h</text>
</a>
</g>
</g>
<!-- Node2&#45;&gt;Node3 -->
<g id="edge2" class="edge">
<title>Node2&#45;&gt;Node3</title>
<path fill="none" stroke="midnightblue" d="M49,-56.08C49,-49.01 49,-38.86 49,-29.99"/>
<polygon fill="midnightblue" stroke="midnightblue" points="52.5,-29.75 49,-19.75 45.5,-29.75 52.5,-29.75"/>
</g>
<!-- Node9 -->
<g id="node9" class="node">
<title>Node9</title>
<g id="a_node9"><a xlink:title=" ">
<polygon fill="white" stroke="#bfbfbf" points="578,-0.5 578,-19.5 682,-19.5 682,-0.5 578,-0.5"/>
<text text-anchor="middle" x="630" y="-7.5" font-family="Helvetica" font-size="10.00">FairParGenericSet.h</text>
</a>
</g>
</g>
<!-- Node8&#45;&gt;Node9 -->
<g id="edge8" class="edge">
<title>Node8&#45;&gt;Node9</title>
<path fill="none" stroke="midnightblue" d="M611.63,-56.08C614.61,-48.77 618.93,-38.18 622.62,-29.1"/>
<polygon fill="midnightblue" stroke="midnightblue" points="625.9,-30.33 626.43,-19.75 619.42,-27.69 625.9,-30.33"/>
</g>
<!-- Node10 -->
<g id="node10" class="node">
<title>Node10</title>
<g id="a_node10"><a xlink:title=" ">
<polygon fill="white" stroke="#bfbfbf" points="700.5,-0.5 700.5,-19.5 759.5,-19.5 759.5,-0.5 700.5,-0.5"/>
<text text-anchor="middle" x="730" y="-7.5" font-family="Helvetica" font-size="10.00">TArrayF.h</text>
</a>
</g>
</g>
<!-- Node8&#45;&gt;Node10 -->
<g id="edge9" class="edge">
<title>Node8&#45;&gt;Node10</title>
<path fill="none" stroke="midnightblue" d="M627.33,-56.44C647.32,-47.6 678.74,-33.69 701.56,-23.59"/>
<polygon fill="midnightblue" stroke="midnightblue" points="703.03,-26.76 710.76,-19.52 700.2,-20.36 703.03,-26.76"/>
</g>
<!-- Node11 -->
<g id="node11" class="node">
<title>Node11</title>
<g id="a_node11"><a xlink:title=" ">
<polygon fill="white" stroke="#bfbfbf" points="778,-0.5 778,-19.5 846,-19.5 846,-0.5 778,-0.5"/>
<text text-anchor="middle" x="812" y="-7.5" font-family="Helvetica" font-size="10.00">TObjArray.h</text>
</a>
</g>
</g>
<!-- Node8&#45;&gt;Node11 -->
<g id="edge10" class="edge">
<title>Node8&#45;&gt;Node11</title>
<path fill="none" stroke="midnightblue" d="M640.32,-56.44C675.39,-47.16 731.5,-32.31 769.96,-22.13"/>
<polygon fill="midnightblue" stroke="midnightblue" points="771.06,-25.46 779.83,-19.52 769.26,-18.69 771.06,-25.46"/>
</g>
<!-- Node12 -->
<g id="node12" class="node">
<title>Node12</title>
<g id="a_node12"><a xlink:title=" ">
<polygon fill="white" stroke="#bfbfbf" points="864.5,-0.5 864.5,-19.5 923.5,-19.5 923.5,-0.5 864.5,-0.5"/>
<text text-anchor="middle" x="894" y="-7.5" font-family="Helvetica" font-size="10.00">TObject.h</text>
</a>
</g>
</g>
<!-- Node8&#45;&gt;Node12 -->
<g id="edge11" class="edge">
<title>Node8&#45;&gt;Node12</title>
<path fill="none" stroke="midnightblue" d="M658.75,-56.47C706.63,-48.25 780.64,-35.15 854.3,-20.07"/>
<polygon fill="midnightblue" stroke="midnightblue" points="855.13,-23.47 864.22,-18.02 853.72,-16.61 855.13,-23.47"/>
</g>
<!-- Node13 -->
<g id="node13" class="node">
<title>Node13</title>
<g id="a_node13"><a xlink:title=" ">
<polygon fill="white" stroke="#bfbfbf" points="488.5,-0.5 488.5,-19.5 559.5,-19.5 559.5,-0.5 488.5,-0.5"/>
<text text-anchor="middle" x="524" y="-7.5" font-family="Helvetica" font-size="10.00">TObjString.h</text>
</a>
</g>
</g>
<!-- Node8&#45;&gt;Node13 -->
<g id="edge12" class="edge">
<title>Node8&#45;&gt;Node13</title>
<path fill="none" stroke="midnightblue" d="M594.5,-56.32C581.4,-47.9 561.29,-34.97 545.89,-25.07"/>
<polygon fill="midnightblue" stroke="midnightblue" points="547.77,-22.12 537.46,-19.65 543.98,-28.01 547.77,-22.12"/>
</g>
<!-- Node14&#45;&gt;Node9 -->
<g id="edge14" class="edge">
<title>Node14&#45;&gt;Node9</title>
<path fill="none" stroke="midnightblue" d="M713.93,-56.32C698.04,-47.74 673.49,-34.49 655.04,-24.52"/>
<polygon fill="midnightblue" stroke="midnightblue" points="656.49,-21.33 646.03,-19.65 653.16,-27.49 656.49,-21.33"/>
</g>
<!-- Node14&#45;&gt;Node10 -->
<g id="edge15" class="edge">
<title>Node14&#45;&gt;Node10</title>
<path fill="none" stroke="midnightblue" d="M730,-56.08C730,-49.01 730,-38.86 730,-29.99"/>
<polygon fill="midnightblue" stroke="midnightblue" points="733.5,-29.75 730,-19.75 726.5,-29.75 733.5,-29.75"/>
</g>
<!-- Node14&#45;&gt;Node11 -->
<g id="edge16" class="edge">
<title>Node14&#45;&gt;Node11</title>
<path fill="none" stroke="midnightblue" d="M743.17,-56.32C755.85,-47.98 775.23,-35.21 790.21,-25.35"/>
<polygon fill="midnightblue" stroke="midnightblue" points="792.43,-28.08 798.86,-19.65 788.58,-22.23 792.43,-28.08"/>
</g>
<!-- Node14&#45;&gt;Node12 -->
<g id="edge17" class="edge">
<title>Node14&#45;&gt;Node12</title>
<path fill="none" stroke="midnightblue" d="M755.99,-56.44C783.7,-47.32 827.75,-32.81 858.62,-22.65"/>
<polygon fill="midnightblue" stroke="midnightblue" points="859.73,-25.97 868.14,-19.52 857.54,-19.32 859.73,-25.97"/>
</g>
<!-- Node14&#45;&gt;Node13 -->
<g id="edge18" class="edge">
<title>Node14&#45;&gt;Node13</title>
<path fill="none" stroke="midnightblue" d="M697.36,-56.44C661.95,-47.16 605.29,-32.31 566.45,-22.13"/>
<polygon fill="midnightblue" stroke="midnightblue" points="567.05,-18.67 556.49,-19.52 565.27,-25.44 567.05,-18.67"/>
</g>
<!-- Node15&#45;&gt;Node9 -->
<g id="edge20" class="edge">
<title>Node15&#45;&gt;Node9</title>
<path fill="none" stroke="midnightblue" d="M809.25,-56.44C772.48,-47.12 713.55,-32.18 673.38,-22"/>
<polygon fill="midnightblue" stroke="midnightblue" points="674.15,-18.58 663.59,-19.52 672.43,-25.37 674.15,-18.58"/>
</g>
<!-- Node15&#45;&gt;Node10 -->
<g id="edge21" class="edge">
<title>Node15&#45;&gt;Node10</title>
<path fill="none" stroke="midnightblue" d="M825.09,-56.44C806.75,-47.68 777.99,-33.94 756.91,-23.86"/>
<polygon fill="midnightblue" stroke="midnightblue" points="758.35,-20.67 747.82,-19.52 755.33,-26.99 758.35,-20.67"/>
</g>
<!-- Node15&#45;&gt;Node11 -->
<g id="edge22" class="edge">
<title>Node15&#45;&gt;Node11</title>
<path fill="none" stroke="midnightblue" d="M837.88,-56.08C833.59,-48.61 827.34,-37.72 822.06,-28.52"/>
<polygon fill="midnightblue" stroke="midnightblue" points="825.04,-26.68 817.02,-19.75 818.97,-30.17 825.04,-26.68"/>
</g>
<!-- Node15&#45;&gt;Node12 -->
<g id="edge23" class="edge">
<title>Node15&#45;&gt;Node12</title>
<path fill="none" stroke="midnightblue" d="M851.42,-56.08C858.85,-48.22 869.85,-36.57 878.81,-27.08"/>
<polygon fill="midnightblue" stroke="midnightblue" points="881.41,-29.42 885.74,-19.75 876.32,-24.62 881.41,-29.42"/>
</g>
<!-- Node15&#45;&gt;Node13 -->
<g id="edge24" class="edge">
<title>Node15&#45;&gt;Node13</title>
<path fill="none" stroke="midnightblue" d="M799.33,-57.56C796.17,-57.03 793.04,-56.51 790,-56 695,-40.2 668.6,-37.9 569.94,-20.12"/>
<polygon fill="midnightblue" stroke="midnightblue" points="570.3,-16.63 559.84,-18.29 569.06,-23.51 570.3,-16.63"/>
</g>
</g>
</svg>
        <g id="navigator" transform="translate(0 0)" fill="#404254">
                <rect fill="#f2f5e9" fill-opacity="0.5" stroke="#606060" stroke-width=".5" x="0" y="0" width="60" height="60"/>
                <use id="zoomplus" xlink:href="#zoomPlus" x="17" y="9" onmousedown="handleZoom(evt,'in')"/>
                <use id="zoomminus" xlink:href="#zoomMin" x="42" y="9" onmousedown="handleZoom(evt,'out')"/>
                <use id="reset" xlink:href="#resetDef" x="30" y="36" onmousedown="handleReset()"/>
                <g id="arrowUp" xlink:href="#dirArrow" transform="translate(30 24)" onmousedown="handlePan(0,-1)">
                  <use xlink:href="#rim" fill="#404040">
                        <set attributeName="fill" to="#808080" begin="arrowUp.mouseover" end="arrowUp.mouseout"/>
                  </use>
                  <path fill="none" stroke="white" stroke-width="1.5" d="M0,-3.0v7 M-2.5,-0.5L0,-3.0L2.5,-0.5"/>
                </g>
                <g id="arrowRight" xlink:href="#dirArrow" transform="rotate(90) translate(36 -43)" onmousedown="handlePan(1,0)">
                  <use xlink:href="#rim" fill="#404040">
                        <set attributeName="fill" to="#808080" begin="arrowRight.mouseover" end="arrowRight.mouseout"/>
                  </use>
                  <path fill="none" stroke="white" stroke-width="1.5" d="M0,-3.0v7 M-2.5,-0.5L0,-3.0L2.5,-0.5"/>
                </g>
                <g id="arrowDown" xlink:href="#dirArrow" transform="rotate(180) translate(-30 -48)" onmousedown="handlePan(0,1)">
                  <use xlink:href="#rim" fill="#404040">
                        <set attributeName="fill" to="#808080" begin="arrowDown.mouseover" end="arrowDown.mouseout"/>
                  </use>
                  <path fill="none" stroke="white" stroke-width="1.5" d="M0,-3.0v7 M-2.5,-0.5L0,-3.0L2.5,-0.5"/>
                </g>
                <g id="arrowLeft" xlink:href="#dirArrow" transform="rotate(270) translate(-36 17)" onmousedown="handlePan(-1,0)">
                  <use xlink:href="#rim" fill="#404040">
                        <set attributeName="fill" to="#808080" begin="arrowLeft.mouseover" end="arrowLeft.mouseout"/>
                  </use>
                  <path fill="none" stroke="white" stroke-width="1.5" d="M0,-3.0v7 M-2.5,-0.5L0,-3.0L2.5,-0.5"/>
                </g>
        </g>
        <svg viewBox="0 0 15 15" width="100%" height="30px" preserveAspectRatio="xMaxYMin meet">
         <g id="arrow_out" transform="scale(0.3 0.3)">
          <a xlink:href="FrsTcalContFact_8cxx__incl_org.svg" target="_base">
           <rect id="button" ry="5" rx="5" y="6" x="6" height="38" width="38"
                fill="#f2f5e9" fill-opacity="0.5" stroke="#606060" stroke-width="1.0"/>
           <path id="arrow"
             d="M 11.500037,31.436501 C 11.940474,20.09759 22.043105,11.32322 32.158766,21.979434 L 37.068811,17.246167 C 37.068811,17.246167 37.088388,32 37.088388,32 L 22.160133,31.978069 C 22.160133,31.978069 26.997745,27.140456 26.997745,27.140456 C 18.528582,18.264221 13.291696,25.230495 11.500037,31.436501 z"
             style="fill:#404040;"/>
          </a>
         </g>
        </svg>
</svg>
