<?xml version="1.0" encoding="UTF-8" standalone="no"?>
<!DOCTYPE svg PUBLIC "-//W3C//DTD SVG 1.1//EN"
 "http://www.w3.org/Graphics/SVG/1.1/DTD/svg11.dtd">
<!-- Generated by graphviz version 2.44.0 (0)
 -->
<!-- Title: frssource/FrsTpcReader.cxx Pages: 1 -->
<svg width="1706pt" height="140pt"
 viewBox="0.00 0.00 1706.00 140.00" xmlns="http://www.w3.org/2000/svg" xmlns:xlink="http://www.w3.org/1999/xlink">
<g id="graph0" class="graph" transform="scale(1 1) rotate(0) translate(4 136)">
<title>frssource/FrsTpcReader.cxx</title>
<polygon fill="white" stroke="transparent" points="-4,4 -4,-136 1702,-136 1702,4 -4,4"/>
<!-- Node1 -->
<g id="node1" class="node">
<title>Node1</title>
<g id="a_node1"><a xlink:title=" ">
<polygon fill="#bfbfbf" stroke="black" points="859.5,-112.5 859.5,-131.5 1001.5,-131.5 1001.5,-112.5 859.5,-112.5"/>
<text text-anchor="middle" x="930.5" y="-119.5" font-family="Helvetica" font-size="10.00">frssource/FrsTpcReader.cxx</text>
</a>
</g>
</g>
<!-- Node2 -->
<g id="node2" class="node">
<title>Node2</title>
<g id="a_node2"><a xlink:href="../../d8/d92/FrsTpcReader_8h.html" target="_top" xlink:title=" ">
<polygon fill="white" stroke="black" points="73,-56.5 73,-75.5 160,-75.5 160,-56.5 73,-56.5"/>
<text text-anchor="middle" x="116.5" y="-63.5" font-family="Helvetica" font-size="10.00">FrsTpcReader.h</text>
</a>
</g>
</g>
<!-- Node1&#45;&gt;Node2 -->
<g id="edge1" class="edge">
<title>Node1&#45;&gt;Node2</title>
<path fill="none" stroke="midnightblue" d="M859.44,-119.01C725.26,-114.75 425.51,-102.88 174.5,-76 173.04,-75.84 171.57,-75.68 170.08,-75.5"/>
<polygon fill="midnightblue" stroke="midnightblue" points="170.51,-72.03 160.15,-74.22 169.62,-78.97 170.51,-72.03"/>
</g>
<!-- Node4 -->
<g id="node4" class="node">
<title>Node4</title>
<g id="a_node4"><a xlink:title=" ">
<polygon fill="white" stroke="#bfbfbf" points="164,-0.5 164,-19.5 211,-19.5 211,-0.5 164,-0.5"/>
<text text-anchor="middle" x="187.5" y="-7.5" font-family="Helvetica" font-size="10.00">TFile.h</text>
</a>
</g>
</g>
<!-- Node1&#45;&gt;Node4 -->
<g id="edge11" class="edge">
<title>Node1&#45;&gt;Node4</title>
<path fill="none" stroke="midnightblue" d="M859.36,-121.1C687.08,-120.7 257.88,-115.69 207.5,-76 193.75,-65.17 189.22,-45.09 187.84,-30.1"/>
<polygon fill="midnightblue" stroke="midnightblue" points="191.32,-29.67 187.3,-19.87 184.33,-30.04 191.32,-29.67"/>
</g>
<!-- Node6 -->
<g id="node6" class="node">
<title>Node6</title>
<g id="a_node6"><a xlink:title=" ">
<polygon fill="white" stroke="#bfbfbf" points="217,-56.5 217,-75.5 288,-75.5 288,-56.5 217,-56.5"/>
<text text-anchor="middle" x="252.5" y="-63.5" font-family="Helvetica" font-size="10.00">FairLogger.h</text>
</a>
</g>
</g>
<!-- Node1&#45;&gt;Node6 -->
<g id="edge5" class="edge">
<title>Node1&#45;&gt;Node6</title>
<path fill="none" stroke="midnightblue" d="M859.48,-118.88C743.9,-114.78 507.83,-103.73 298.25,-75.92"/>
<polygon fill="midnightblue" stroke="midnightblue" points="298.67,-72.44 288.29,-74.58 297.74,-79.38 298.67,-72.44"/>
</g>
<!-- Node7 -->
<g id="node7" class="node">
<title>Node7</title>
<g id="a_node7"><a xlink:title=" ">
<polygon fill="white" stroke="#bfbfbf" points="306.5,-56.5 306.5,-75.5 406.5,-75.5 406.5,-56.5 306.5,-56.5"/>
<text text-anchor="middle" x="356.5" y="-63.5" font-family="Helvetica" font-size="10.00">FairRootManager.h</text>
</a>
</g>
</g>
<!-- Node1&#45;&gt;Node7 -->
<g id="edge6" class="edge">
<title>Node1&#45;&gt;Node7</title>
<path fill="none" stroke="midnightblue" d="M859.12,-116.22C761.61,-109.36 581.05,-95.51 416.97,-76.11"/>
<polygon fill="midnightblue" stroke="midnightblue" points="417.03,-72.59 406.68,-74.88 416.2,-79.54 417.03,-72.59"/>
</g>
<!-- Node8 -->
<g id="node8" class="node">
<title>Node8</title>
<g id="a_node8"><a xlink:href="../../d6/d64/R3BTpcMappedData_8h.html" target="_top" xlink:title=" ">
<polygon fill="white" stroke="black" points="424.5,-56.5 424.5,-75.5 540.5,-75.5 540.5,-56.5 424.5,-56.5"/>
<text text-anchor="middle" x="482.5" y="-63.5" font-family="Helvetica" font-size="10.00">R3BTpcMappedData.h</text>
</a>
</g>
</g>
<!-- Node1&#45;&gt;Node8 -->
<g id="edge7" class="edge">
<title>Node1&#45;&gt;Node8</title>
<path fill="none" stroke="midnightblue" d="M859.19,-112.92C784.77,-104.41 664.43,-90.43 550.54,-76.11"/>
<polygon fill="midnightblue" stroke="midnightblue" points="550.96,-72.64 540.6,-74.86 550.08,-79.58 550.96,-72.64"/>
</g>
<!-- Node10 -->
<g id="node10" class="node">
<title>Node10</title>
<g id="a_node10"><a xlink:title=" ">
<polygon fill="white" stroke="#bfbfbf" points="558.5,-56.5 558.5,-75.5 628.5,-75.5 628.5,-56.5 558.5,-56.5"/>
<text text-anchor="middle" x="593.5" y="-63.5" font-family="Helvetica" font-size="10.00">Riostream.h</text>
</a>
</g>
</g>
<!-- Node1&#45;&gt;Node10 -->
<g id="edge9" class="edge">
<title>Node1&#45;&gt;Node10</title>
<path fill="none" stroke="midnightblue" d="M869.19,-112.48C812.01,-104.33 724.11,-91.29 638.43,-76.09"/>
<polygon fill="midnightblue" stroke="midnightblue" points="638.99,-72.64 628.53,-74.33 637.76,-79.53 638.99,-72.64"/>
</g>
<!-- Node11 -->
<g id="node11" class="node">
<title>Node11</title>
<g id="a_node11"><a xlink:title=" ">
<polygon fill="white" stroke="#bfbfbf" points="646.5,-56.5 646.5,-75.5 730.5,-75.5 730.5,-56.5 646.5,-56.5"/>
<text text-anchor="middle" x="688.5" y="-63.5" font-family="Helvetica" font-size="10.00">TClonesArray.h</text>
</a>
</g>
</g>
<!-- Node1&#45;&gt;Node11 -->
<g id="edge10" class="edge">
<title>Node1&#45;&gt;Node11</title>
<path fill="none" stroke="midnightblue" d="M892.15,-112.44C850.03,-103.04 782.29,-87.93 736.63,-77.74"/>
<polygon fill="midnightblue" stroke="midnightblue" points="737.19,-74.28 726.67,-75.52 735.66,-81.11 737.19,-74.28"/>
</g>
<!-- Node12 -->
<g id="node12" class="node">
<title>Node12</title>
<g id="a_node12"><a xlink:title=" ">
<polygon fill="white" stroke="#bfbfbf" points="749,-56.5 749,-75.5 802,-75.5 802,-56.5 749,-56.5"/>
<text text-anchor="middle" x="775.5" y="-63.5" font-family="Helvetica" font-size="10.00">TMath.h</text>
</a>
</g>
</g>
<!-- Node1&#45;&gt;Node12 -->
<g id="edge12" class="edge">
<title>Node1&#45;&gt;Node12</title>
<path fill="none" stroke="midnightblue" d="M905.94,-112.44C879.98,-103.4 838.83,-89.06 809.7,-78.92"/>
<polygon fill="midnightblue" stroke="midnightblue" points="810.54,-75.5 799.95,-75.52 808.24,-82.11 810.54,-75.5"/>
</g>
<!-- Node13 -->
<g id="node13" class="node">
<title>Node13</title>
<g id="a_node13"><a xlink:title=" ">
<polygon fill="white" stroke="#bfbfbf" points="820.5,-56.5 820.5,-75.5 878.5,-75.5 878.5,-56.5 820.5,-56.5"/>
<text text-anchor="middle" x="849.5" y="-63.5" font-family="Helvetica" font-size="10.00">TROOT.h</text>
</a>
</g>
</g>
<!-- Node1&#45;&gt;Node13 -->
<g id="edge13" class="edge">
<title>Node1&#45;&gt;Node13</title>
<path fill="none" stroke="midnightblue" d="M917.49,-112.32C904.97,-103.98 885.82,-91.21 871.03,-81.35"/>
<polygon fill="midnightblue" stroke="midnightblue" points="872.74,-78.29 862.48,-75.65 868.86,-84.11 872.74,-78.29"/>
</g>
<!-- Node14 -->
<g id="node14" class="node">
<title>Node14</title>
<g id="a_node14"><a xlink:title=" ">
<polygon fill="white" stroke="#bfbfbf" points="897,-56.5 897,-75.5 964,-75.5 964,-56.5 897,-56.5"/>
<text text-anchor="middle" x="930.5" y="-63.5" font-family="Helvetica" font-size="10.00">TRandom.h</text>
</a>
</g>
</g>
<!-- Node1&#45;&gt;Node14 -->
<g id="edge14" class="edge">
<title>Node1&#45;&gt;Node14</title>
<path fill="none" stroke="midnightblue" d="M930.5,-112.08C930.5,-105.01 930.5,-94.86 930.5,-85.99"/>
<polygon fill="midnightblue" stroke="midnightblue" points="934,-85.75 930.5,-75.75 927,-85.75 934,-85.75"/>
</g>
<!-- Node15 -->
<g id="node15" class="node">
<title>Node15</title>
<g id="a_node15"><a xlink:title=" ">
<polygon fill="white" stroke="#bfbfbf" points="982.5,-56.5 982.5,-75.5 1054.5,-75.5 1054.5,-56.5 982.5,-56.5"/>
<text text-anchor="middle" x="1018.5" y="-63.5" font-family="Helvetica" font-size="10.00">TRandom3.h</text>
</a>
</g>
</g>
<!-- Node1&#45;&gt;Node15 -->
<g id="edge15" class="edge">
<title>Node1&#45;&gt;Node15</title>
<path fill="none" stroke="midnightblue" d="M944.64,-112.32C958.37,-103.9 979.44,-90.97 995.56,-81.07"/>
<polygon fill="midnightblue" stroke="midnightblue" points="997.7,-83.87 1004.4,-75.65 994.04,-77.9 997.7,-83.87"/>
</g>
<!-- Node16 -->
<g id="node16" class="node">
<title>Node16</title>
<g id="a_node16"><a xlink:title=" ">
<polygon fill="white" stroke="#bfbfbf" points="1072.5,-56.5 1072.5,-75.5 1136.5,-75.5 1136.5,-56.5 1072.5,-56.5"/>
<text text-anchor="middle" x="1104.5" y="-63.5" font-family="Helvetica" font-size="10.00">TSystem.h</text>
</a>
</g>
</g>
<!-- Node1&#45;&gt;Node16 -->
<g id="edge16" class="edge">
<title>Node1&#45;&gt;Node16</title>
<path fill="none" stroke="midnightblue" d="M958.07,-112.44C987.6,-103.28 1034.62,-88.69 1067.38,-78.52"/>
<polygon fill="midnightblue" stroke="midnightblue" points="1068.54,-81.82 1077.06,-75.52 1066.47,-75.14 1068.54,-81.82"/>
</g>
<!-- Node17 -->
<g id="node17" class="node">
<title>Node17</title>
<g id="a_node17"><a xlink:title=" ">
<polygon fill="white" stroke="#bfbfbf" points="1154.5,-56.5 1154.5,-75.5 1220.5,-75.5 1220.5,-56.5 1154.5,-56.5"/>
<text text-anchor="middle" x="1187.5" y="-63.5" font-family="Helvetica" font-size="10.00">TVectorD.h</text>
</a>
</g>
</g>
<!-- Node1&#45;&gt;Node17 -->
<g id="edge17" class="edge">
<title>Node1&#45;&gt;Node17</title>
<path fill="none" stroke="midnightblue" d="M971.73,-112.43C1012.9,-103.86 1078.29,-90.21 1144.32,-76.24"/>
<polygon fill="midnightblue" stroke="midnightblue" points="1145.43,-79.59 1154.49,-74.09 1143.98,-72.74 1145.43,-79.59"/>
</g>
<!-- Node18 -->
<g id="node18" class="node">
<title>Node18</title>
<g id="a_node18"><a xlink:title=" ">
<polygon fill="white" stroke="#bfbfbf" points="1238.5,-56.5 1238.5,-75.5 1284.5,-75.5 1284.5,-56.5 1238.5,-56.5"/>
<text text-anchor="middle" x="1261.5" y="-63.5" font-family="Helvetica" font-size="10.00">cstring</text>
</a>
</g>
</g>
<!-- Node1&#45;&gt;Node18 -->
<g id="edge18" class="edge">
<title>Node1&#45;&gt;Node18</title>
<path fill="none" stroke="midnightblue" d="M1001.63,-112.83C1060.18,-105.53 1145.47,-93.56 1228.34,-76.03"/>
<polygon fill="midnightblue" stroke="midnightblue" points="1229.12,-79.45 1238.17,-73.93 1227.65,-72.6 1229.12,-79.45"/>
</g>
<!-- Node19 -->
<g id="node19" class="node">
<title>Node19</title>
<g id="a_node19"><a xlink:title=" ">
<polygon fill="white" stroke="#bfbfbf" points="1302.5,-56.5 1302.5,-75.5 1352.5,-75.5 1352.5,-56.5 1302.5,-56.5"/>
<text text-anchor="middle" x="1327.5" y="-63.5" font-family="Helvetica" font-size="10.00">fstream</text>
</a>
</g>
</g>
<!-- Node1&#45;&gt;Node19 -->
<g id="edge19" class="edge">
<title>Node1&#45;&gt;Node19</title>
<path fill="none" stroke="midnightblue" d="M1001.55,-115.06C1072.83,-108.45 1185.87,-96.21 1292.38,-75.99"/>
<polygon fill="midnightblue" stroke="midnightblue" points="1293.18,-79.4 1302.34,-74.07 1291.86,-72.52 1293.18,-79.4"/>
</g>
<!-- Node20 -->
<g id="node20" class="node">
<title>Node20</title>
<g id="a_node20"><a xlink:title=" ">
<polygon fill="white" stroke="#bfbfbf" points="1370.5,-56.5 1370.5,-75.5 1424.5,-75.5 1424.5,-56.5 1370.5,-56.5"/>
<text text-anchor="middle" x="1397.5" y="-63.5" font-family="Helvetica" font-size="10.00">iostream</text>
</a>
</g>
</g>
<!-- Node1&#45;&gt;Node20 -->
<g id="edge20" class="edge">
<title>Node1&#45;&gt;Node20</title>
<path fill="none" stroke="midnightblue" d="M1001.85,-116.64C1085.59,-110.83 1228.72,-98.75 1360.58,-75.93"/>
<polygon fill="midnightblue" stroke="midnightblue" points="1361.22,-79.37 1370.46,-74.19 1360.01,-72.48 1361.22,-79.37"/>
</g>
<!-- Node21 -->
<g id="node21" class="node">
<title>Node21</title>
<g id="a_node21"><a xlink:title=" ">
<polygon fill="white" stroke="#bfbfbf" points="1442.5,-56.5 1442.5,-75.5 1488.5,-75.5 1488.5,-56.5 1442.5,-56.5"/>
<text text-anchor="middle" x="1465.5" y="-63.5" font-family="Helvetica" font-size="10.00">stdio.h</text>
</a>
</g>
</g>
<!-- Node1&#45;&gt;Node21 -->
<g id="edge21" class="edge">
<title>Node1&#45;&gt;Node21</title>
<path fill="none" stroke="midnightblue" d="M1001.86,-118.77C1097.86,-114.84 1273.89,-104.4 1432.27,-75.91"/>
<polygon fill="midnightblue" stroke="midnightblue" points="1432.99,-79.33 1442.2,-74.09 1431.73,-72.45 1432.99,-79.33"/>
</g>
<!-- Node22 -->
<g id="node22" class="node">
<title>Node22</title>
<g id="a_node22"><a xlink:title=" ">
<polygon fill="white" stroke="#bfbfbf" points="1506.5,-56.5 1506.5,-75.5 1596.5,-75.5 1596.5,-56.5 1506.5,-56.5"/>
<text text-anchor="middle" x="1551.5" y="-63.5" font-family="Helvetica" font-size="10.00">ext_data_client.h</text>
</a>
</g>
</g>
<!-- Node1&#45;&gt;Node22 -->
<g id="edge22" class="edge">
<title>Node1&#45;&gt;Node22</title>
<path fill="none" stroke="midnightblue" d="M1001.86,-117.31C1107.59,-111.4 1312.29,-98.3 1496.32,-76.04"/>
<polygon fill="midnightblue" stroke="midnightblue" points="1496.96,-79.49 1506.46,-74.8 1496.11,-72.54 1496.96,-79.49"/>
</g>
<!-- Node23 -->
<g id="node23" class="node">
<title>Node23</title>
<g id="a_node23"><a xlink:href="../../dd/dba/ext__h101__tpc_8h.html" target="_top" xlink:title=" ">
<polygon fill="white" stroke="black" points="1615,-56.5 1615,-75.5 1698,-75.5 1698,-56.5 1615,-56.5"/>
<text text-anchor="middle" x="1656.5" y="-63.5" font-family="Helvetica" font-size="10.00">ext_h101_tpc.h</text>
</a>
</g>
</g>
<!-- Node1&#45;&gt;Node23 -->
<g id="edge23" class="edge">
<title>Node1&#45;&gt;Node23</title>
<path fill="none" stroke="midnightblue" d="M1001.68,-118.79C1123.21,-114.45 1378.68,-102.91 1604.74,-75.95"/>
<polygon fill="midnightblue" stroke="midnightblue" points="1605.3,-79.41 1614.81,-74.74 1604.46,-72.46 1605.3,-79.41"/>
</g>
<!-- Node3 -->
<g id="node3" class="node">
<title>Node3</title>
<g id="a_node3"><a xlink:title=" ">
<polygon fill="white" stroke="#bfbfbf" points="0,-0.5 0,-19.5 75,-19.5 75,-0.5 0,-0.5"/>
<text text-anchor="middle" x="37.5" y="-7.5" font-family="Helvetica" font-size="10.00">R3BReader.h</text>
</a>
</g>
</g>
<!-- Node2&#45;&gt;Node3 -->
<g id="edge2" class="edge">
<title>Node2&#45;&gt;Node3</title>
<path fill="none" stroke="midnightblue" d="M103.81,-56.32C91.6,-47.98 72.92,-35.21 58.5,-25.35"/>
<polygon fill="midnightblue" stroke="midnightblue" points="60.39,-22.41 50.16,-19.65 56.44,-28.19 60.39,-22.41"/>
</g>
<!-- Node2&#45;&gt;Node4 -->
<g id="edge3" class="edge">
<title>Node2&#45;&gt;Node4</title>
<path fill="none" stroke="midnightblue" d="M127.91,-56.32C138.61,-48.18 154.84,-35.84 167.66,-26.09"/>
<polygon fill="midnightblue" stroke="midnightblue" points="170.04,-28.67 175.89,-19.83 165.81,-23.1 170.04,-28.67"/>
</g>
<!-- Node5 -->
<g id="node5" class="node">
<title>Node5</title>
<g id="a_node5"><a xlink:title=" ">
<polygon fill="white" stroke="#bfbfbf" points="93.5,-0.5 93.5,-19.5 143.5,-19.5 143.5,-0.5 93.5,-0.5"/>
<text text-anchor="middle" x="118.5" y="-7.5" font-family="Helvetica" font-size="10.00">TTree.h</text>
</a>
</g>
</g>
<!-- Node2&#45;&gt;Node5 -->
<g id="edge4" class="edge">
<title>Node2&#45;&gt;Node5</title>
<path fill="none" stroke="midnightblue" d="M116.83,-56.08C117.09,-49.01 117.47,-38.86 117.8,-29.99"/>
<polygon fill="midnightblue" stroke="midnightblue" points="121.3,-29.87 118.18,-19.75 114.31,-29.61 121.3,-29.87"/>
</g>
<!-- Node9 -->
<g id="node9" class="node">
<title>Node9</title>
<g id="a_node9"><a xlink:title=" ">
<polygon fill="white" stroke="#bfbfbf" points="453,-0.5 453,-19.5 512,-19.5 512,-0.5 453,-0.5"/>
<text text-anchor="middle" x="482.5" y="-7.5" font-family="Helvetica" font-size="10.00">TObject.h</text>
</a>
</g>
</g>
<!-- Node8&#45;&gt;Node9 -->
<g id="edge8" class="edge">
<title>Node8&#45;&gt;Node9</title>
<path fill="none" stroke="midnightblue" d="M482.5,-56.08C482.5,-49.01 482.5,-38.86 482.5,-29.99"/>
<polygon fill="midnightblue" stroke="midnightblue" points="486,-29.75 482.5,-19.75 479,-29.75 486,-29.75"/>
</g>
<!-- Node24 -->
<g id="node24" class="node">
<title>Node24</title>
<g id="a_node24"><a xlink:title=" ">
<polygon fill="white" stroke="#bfbfbf" points="1632.5,-0.5 1632.5,-19.5 1680.5,-19.5 1680.5,-0.5 1632.5,-0.5"/>
<text text-anchor="middle" x="1656.5" y="-7.5" font-family="Helvetica" font-size="10.00">stdint.h</text>
</a>
</g>
</g>
<!-- Node23&#45;&gt;Node24 -->
<g id="edge24" class="edge">
<title>Node23&#45;&gt;Node24</title>
<path fill="none" stroke="midnightblue" d="M1656.5,-56.08C1656.5,-49.01 1656.5,-38.86 1656.5,-29.99"/>
<polygon fill="midnightblue" stroke="midnightblue" points="1660,-29.75 1656.5,-19.75 1653,-29.75 1660,-29.75"/>
</g>
</g>
</svg>
